{
.appVersion = "1147";
classes = (
{
automatic = 1;
code = "A B C D E F G H I J K L M N O P Q R S T U V W X Y Z Agrave Aacute Acircumflex Atilde Adieresis Amacron Abreve Aring Aringacute Aogonek AE AEacute Cacute Ccircumflex Ccaron Cdotaccent Ccedilla Dcaron Dcroat Egrave Eacute Ecircumflex Ecaron Edieresis Emacron Ebreve Edotaccent Eogonek Gcircumflex Gbreve Gdotaccent Gcommaaccent Hcircumflex Hbar Igrave Iacute Icircumflex Itilde Idieresis Imacron Ibreve Idotaccent Iogonek Jcircumflex Kcommaaccent Lacute Lcaron Lcommaaccent Lslash Nacute Ncaron Ntilde Ncommaaccent Ograve Oacute Ocircumflex Otilde Odieresis Omacron Obreve Ohungarumlaut Oslash Oslashacute OE Racute Rcaron Rcommaaccent Sacute Scircumflex Scaron Scedilla Scommaaccent Tcaron Tcommaaccent Tbar Ugrave Uacute Ucircumflex Utilde Udieresis Umacron Ubreve Uring Uhungarumlaut Uogonek Wgrave Wacute Wcircumflex Wdieresis Ygrave Yacute Ycircumflex Ydieresis Zacute Zcaron Zdotaccent Eng Eth Thorn endash.cap emdash.cap periodcentered.cap parenleft.cap parenright.cap bracketleft.cap bracketright.cap braceleft.cap braceright.cap at.cap";
name = caps;
},
{
automatic = 1;
code = "questiondown.cap endash.cap emdash.cap periodcentered.cap exclamdown.cap parenleft.cap parenright.cap bracketleft.cap bracketright.cap braceleft.cap braceright.cap";
name = cap;
},
{
automatic = 1;
code = "slash fraction perthousand onehalf onequarter threequarters threequarters zeroinferior oneinferior twoinferior threeinferior fourinferior fiveinferior sixinferior seveninferior eightinferior nineinferior";
name = frac2;
},
{
automatic = 1;
code = "questiondown endash emdash periodcentered exclamdown parenleft parenright bracketleft bracketright braceleft braceright";
name = cap_0;
},
{
automatic = 1;

glyphs = (
{
glyphname = A;
layers = (
{
layerId = "F1BADE0A-D307-4A55-B1D9-DEBA981FCD10";
paths = (
{
closed = 1;
nodes = (
"64 0 LINE",
"129 215 LINE",
"463 215 LINE",
"528 0 LINE",
"564 0 LINE",
"349 700 LINE",
"243 700 LINE",
"28 0 LINE {name = hr00;}"
);
},
{
closed = 1;
nodes = (
"268 666 LINE",
"324 666 LINE",
"452 249 LINE",
"140 249 LINE"
);
}
);
width = 592;
},
{
layerId = "D02A7F20-5372-446E-84B7-8F4B885083B2";
paths = (
{
closed = 1;
nodes = (
"155 0 LINE",
"182 123 LINE",
"420 123 LINE",
"447 0 LINE",
"585 0 LINE",
"432 680 LINE",
"170 680 LINE",
"17 0 LINE {name = hr00;}"
);
},
{
closed = 1;
nodes = (
"277 566 LINE",
"325 566 LINE",
"394 243 LINE",
"208 243 LINE"
);
}
);
width = 602;
},
{
layerId = "2D07D9D6-DD7A-4EF1-82E8-8B18836F0AAC";
paths = (
{
closed = 1;
nodes = (
"223 0 LINE",
"239 77 LINE",
"392 77 LINE",
"411 0 LINE",
"645 0 LINE",
"494 670 LINE",
"143 670 LINE",
"-5 0 LINE {name = hr00;}"
);
},
{
closed = 1;
nodes = (
"307 488 LINE",
"332 488 LINE",
"368 254 LINE",
"269 254 LINE"
);
}
);
width = 639;
}
);
leftKerningGroup = A;
rightKerningGroup = A;
unicode = 0041;
},
{
glyphname = AE;
layers = (
{
layerId = "F1BADE0A-D307-4A55-B1D9-DEBA981FCD10";
paths = (
{
closed = 1;
nodes = (
"65 0 LINE",
"143 215 LINE",
"419 215 LINE",
"419 0 LINE {name = hr00;}",
"828 0 LINE",
"828 34 LINE",
"455 34 LINE",
"455 344 LINE",
"768 344 LINE",
"768 378 LINE",
"455 378 LINE",
"455 666 LINE",
"828 666 LINE",
"828 700 LINE",
"276 700 LINE",
"25 0 LINE"
);
},
{
closed = 1;
nodes = (
"304 666 LINE",
"419 666 LINE",
"419 249 LINE",
"155 249 LINE"
);
}
);
width = 879;
},
{
layerId = "D02A7F20-5372-446E-84B7-8F4B885083B2";
paths = (
{
closed = 1;
nodes = (
"150 0 LINE",
"179 116 LINE",
"392 116 LINE",
"392 0 LINE {name = hr00;}",
"830 0 LINE",
"830 132 LINE",
"528 132 LINE",
"528 284 LINE",
"770 284 LINE",
"770 415 LINE",
"528 415 LINE",
"528 558 LINE",
"830 558 LINE",
"830 690 LINE",
"196 690 LINE",
"12 0 LINE"
);
},
{
closed = 1;
nodes = (
"293 558 LINE",
"393 558 LINE",
"392 249 LINE",
"213 249 LINE"
);
}
);
width = 871;
},
{
layerId = "2D07D9D6-DD7A-4EF1-82E8-8B18836F0AAC";
paths = (
{
closed = 1;
nodes = (
"223 0 LINE",
"239 77 LINE",
"366 77 LINE",
"366 0 LINE {name = hr00;}",
"865 0 LINE",
"865 185 LINE",
"592 185 LINE",
"592 248 LINE",
"805 248 LINE",
"805 425 LINE",
"592 425 LINE",
"592 485 LINE",
"865 485 LINE",
"865 670 LINE",
"143 670 LINE",
"-5 0 LINE"
);
},
{
closed = 1;
nodes = (
"307 485 LINE",
"366 485 LINE",
"366 256 LINE",
"270 256 LINE"
);
}
);
width = 882;
}
);
rightKerningGroup = E;
unicode = 00C6;
userData = {
com.typemytype.robofont.guides = (
{
angle = 0;
isGlobal = 0;
magnetic = 5;
x = 0;
y = 558;
}
);
};
},
{
glyphname = B;
layers = (
{
layerId = "F1BADE0A-D307-4A55-B1D9-DEBA981FCD10";
paths = (
{
closed = 1;
nodes = (
"351 0 LINE",
"477 0 OFFCURVE",
"561 41 OFFCURVE",
"561 193 CURVE SMOOTH",
"561 301 OFFCURVE",
"499 344 OFFCURVE",
"437 361 CURVE",
"494 382 OFFCURVE",
"534 428 OFFCURVE",
"534 527 CURVE SMOOTH",
"534 645 OFFCURVE",
"466 700 OFFCURVE",
"332 700 CURVE SMOOTH",
"92 700 LINE {name = hr00;}",
"92 0 LINE"
);
},
{
closed = 1;
nodes = (
"128 341 LINE",
"343 341 LINE SMOOTH",
"394 341 OFFCURVE",
"524 335 OFFCURVE",
"524 193 CURVE SMOOTH",
"524 69 OFFCURVE",
"453 34 OFFCURVE",
"351 34 CURVE SMOOTH",
"128 34 LINE"
);
},
{
closed = 1;
nodes = (
"128 666 LINE",
"332 666 LINE SMOOTH",
"444 666 OFFCURVE",
"497 624 OFFCURVE",
"497 527 CURVE SMOOTH",
"497 425 OFFCURVE",
"452 375 OFFCURVE",
"343 375 CURVE SMOOTH",
"128 375 LINE"
);
}
);
width = 620;
},
{
layerId = "D02A7F20-5372-446E-84B7-8F4B885083B2";
paths = (
{
closed = 1;
nodes = (
"345 0 LINE",
"481 0 OFFCURVE",
"566 59 OFFCURVE",
"566 195 CURVE SMOOTH",
"566 283 OFFCURVE",
"536 325 OFFCURVE",
"478 350 CURVE",
"532 384 OFFCURVE",
"553 423 OFFCURVE",
"553 500 CURVE SMOOTH",
"553 630 OFFCURVE",
"478 680 OFFCURVE",
"341 680 CURVE SMOOTH",
"74 680 LINE {name = hr00;}",
"74 0 LINE"
);
},
{
closed = 1;
nodes = (
"212 284 LINE",
"338 284 LINE SMOOTH",
"393 284 OFFCURVE",
"426 258 OFFCURVE",
"426 202 CURVE SMOOTH",
"426 135 OFFCURVE",
"395 118 OFFCURVE",
"338 118 CURVE SMOOTH",
"212 118 LINE"
);
},
{
closed = 1;
nodes = (
"212 562 LINE",
"334 562 LINE SMOOTH",
"386 562 OFFCURVE",
"413 538 OFFCURVE",
"413 482 CURVE SMOOTH",
"413 428 OFFCURVE",
"389 400 OFFCURVE",
"335 400 CURVE SMOOTH",
"212 400 LINE"
);
}
);
width = 609;
},
{
layerId = "2D07D9D6-DD7A-4EF1-82E8-8B18836F0AAC";
paths = (
{
closed = 1;
nodes = (
"337 0 LINE SMOOTH",
"473 0 OFFCURVE",
"595 39 OFFCURVE",
"595 190 CURVE SMOOTH",
"595 288 OFFCURVE",
"571 316 OFFCURVE",
"509 343 CURVE",
"568 385 OFFCURVE",
"578 424 OFFCURVE",
"578 504 CURVE SMOOTH",
"578 632 OFFCURVE",
"469 670 OFFCURVE",
"333 670 CURVE SMOOTH",
"30 670 LINE {name = hr00;}",
"30 0 LINE"
);
},
{
closed = 1;
nodes = (
"262 265 LINE",
"316 265 LINE",
"361 265 OFFCURVE",
"375 251 OFFCURVE",
"375 211 CURVE SMOOTH",
"375 166 OFFCURVE",
"362 155 OFFCURVE",
"316 155 CURVE SMOOTH",
"262 155 LINE"
);
},
{
closed = 1;
nodes = (
"262 517 LINE",
"313 517 LINE",
"351 517 OFFCURVE",
"368 503 OFFCURVE",
"368 466 CURVE SMOOTH",
"368 427 OFFCURVE",
"354 410 OFFCURVE",
"314 410 CURVE SMOOTH",
"262 410 LINE"
);
}
);
width = 607;
}
);
leftKerningGroup = I;
unicode = 0042;
},
{
glyphname = C;
layers = (
{
layerId = "F1BADE0A-D307-4A55-B1D9-DEBA981FCD10";
paths = (
{
closed = 1;
nodes = (
"384 -9 OFFCURVE",
"451 1 OFFCURVE",
"501 11 CURVE",
"498 45 LINE {name = hr00;}",
"446 35 OFFCURVE",
"379 25 OFFCURVE",
"316 25 CURVE SMOOTH",
"132 25 OFFCURVE",
"105 147 OFFCURVE",
"105 347 CURVE SMOOTH",
"105 546 OFFCURVE",
"128 675 OFFCURVE",
"316 675 CURVE SMOOTH",
"376 675 OFFCURVE",
"455 664 OFFCURVE",
"498 655 CURVE",
"501 690 LINE",
"455 699 OFFCURVE",
"386 709 OFFCURVE",
"316 709 CURVE SMOOTH",
"103 709 OFFCURVE",
"67 565 OFFCURVE",
"67 347 CURVE SMOOTH",
"67 125 OFFCURVE",
"110 -9 OFFCURVE",
"316 -9 CURVE SMOOTH"
);
}
);
width = 545;
},
{
layerId = "D02A7F20-5372-446E-84B7-8F4B885083B2";
paths = (
{
closed = 1;
nodes = (
"369 -12 OFFCURVE",
"459 1 OFFCURVE",
"505 11 CURVE",
"502 124 LINE {name = hr00;}",
"462 118 OFFCURVE",
"377 110 OFFCURVE",
"331 110 CURVE SMOOTH",
"213 110 OFFCURVE",
"189 157 OFFCURVE",
"189 340 CURVE SMOOTH",
"189 533 OFFCURVE",
"222 570 OFFCURVE",
"327 570 CURVE SMOOTH",
"372 570 OFFCURVE",
"456 562 OFFCURVE",
"502 555 CURVE",
"506 665 LINE",
"464 675 OFFCURVE",
"378 692 OFFCURVE",
"307 692 CURVE SMOOTH",
"105 692 OFFCURVE",
"47 598 OFFCURVE",
"47 340 CURVE SMOOTH",
"47 102 OFFCURVE",
"97 -12 OFFCURVE",
"307 -12 CURVE SMOOTH"
);
}
);
width = 543;
},
{
layerId = "2D07D9D6-DD7A-4EF1-82E8-8B18836F0AAC";
paths = (
{
closed = 1;
nodes = (
"384 -13 OFFCURVE",
"473 2 OFFCURVE",
"519 13 CURVE",
"516 189 LINE {name = hr00;}",
"479 186 OFFCURVE",
"412 183 OFFCURVE",
"360 183 CURVE SMOOTH",
"272 183 OFFCURVE",
"252 202 OFFCURVE",
"252 337 CURVE SMOOTH",
"252 469 OFFCURVE",
"271 487 OFFCURVE",
"360 487 CURVE SMOOTH",
"412 487 OFFCURVE",
"478 481 OFFCURVE",
"513 477 CURVE",
"519 656 LINE",
"463 668 OFFCURVE",
"369 683 OFFCURVE",
"314 683 CURVE SMOOTH",
"82 683 OFFCURVE",
"18 601 OFFCURVE",
"18 337 CURVE SMOOTH",
"18 65 OFFCURVE",
"84 -13 OFFCURVE",
"304 -13 CURVE SMOOTH"
);
}
);
width = 533;
}
);
leftKerningGroup = C;
rightKerningGroup = C;
unicode = 0043;
},
{
glyphname = D;
layers = (
{
layerId = "F1BADE0A-D307-4A55-B1D9-DEBA981FCD10";
paths = (
{
closed = 1;
nodes = (
"352 0 LINE {name = hr00;}",
"528 0 OFFCURVE",
"586 182 OFFCURVE",
"586 358 CURVE SMOOTH",
"586 534 OFFCURVE",
"528 700 OFFCURVE",
"352 700 CURVE",
"92 700 LINE",
"92 0 LINE"
);
},
{
closed = 1;
nodes = (
"128 666 LINE",
"352 666 LINE SMOOTH",
"502 666 OFFCURVE",
"548 508 OFFCURVE",
"548 358 CURVE SMOOTH",
"548 208 OFFCURVE",
"502 34 OFFCURVE",
"352 34 CURVE",
"128 34 LINE"
);
}
);
width = 649;
},
{
layerId = "D02A7F20-5372-446E-84B7-8F4B885083B2";
paths = (
{
closed = 1;
nodes = (
"303 0 LINE {name = hr00;}",
"547 0 OFFCURVE",
"592 121 OFFCURVE",
"592 353 CURVE SMOOTH",
"592 579 OFFCURVE",
"540 680 OFFCURVE",
"303 680 CURVE",
"74 680 LINE",
"74 0 LINE"
);
},
{
closed = 1;
nodes = (
"212 560 LINE",
"303 560 LINE SMOOTH",
"437 560 OFFCURVE",
"450 502 OFFCURVE",
"450 353 CURVE SMOOTH",
"450 202 OFFCURVE",
"437 120 OFFCURVE",
"303 120 CURVE",
"212 120 LINE"
);
}
);
width = 638;
},
{
layerId = "2D07D9D6-DD7A-4EF1-82E8-8B18836F0AAC";
paths = (
{
closed = 1;
nodes = (
"323 0 LINE",
"556 0 OFFCURVE",
"638 122 OFFCURVE",
"638 345 CURVE SMOOTH",
"638 568 OFFCURVE",
"546 670 OFFCURVE",
"313 670 CURVE SMOOTH",
"30 670 LINE",
"30 0 LINE {name = hr00;}"
);
},
{
closed = 1;
nodes = (
"262 481 LINE",
"303 481 LINE SMOOTH",
"393 481 OFFCURVE",
"404 438 OFFCURVE",
"404 345 CURVE SMOOTH",
"404 247 OFFCURVE",
"398 189 OFFCURVE",
"303 189 CURVE SMOOTH",
"262 189 LINE"
);
}
);
width = 654;
}
);
leftKerningGroup = I;
rightKerningGroup = D;
unicode = 0044;
},
{
glyphname = Eth;
layers = (
{
components = (
{
name = D;
transform = "{1, 0, 0, 1, 2, 0}";
}
);
layerId = "F1BADE0A-D307-4A55-B1D9-DEBA981FCD10";
paths = (
{
closed = 1;
nodes = (
"307 334 LINE",
"307 368 LINE",
"17 368 LINE {name = hr00;}",
"17 334 LINE"
);
}
);
width = 651;
},
{
components = (
{
name = D;
transform = "{1, 0, 0, 1, 5, 0}";
}
);
layerId = "D02A7F20-5372-446E-84B7-8F4B885083B2";
paths = (
{
closed = 1;
nodes = (
"345 277 LINE",
"345 409 LINE",
"25 409 LINE",
"25 277 LINE"
);
}
);
width = 642;
},
{
components = (
{
name = D;
transform = "{1, 0, 0, 1, 7, 0}";
}
);
layerId = "2D07D9D6-DD7A-4EF1-82E8-8B18836F0AAC";
paths = (
{
closed = 1;
nodes = (
"324 270 LINE",
"324 407 LINE",
"-1 407 LINE",
"-1 270 LINE"
);
}
);
width = 661;
}
);
leftKerningGroup = I;
rightKerningGroup = D;
unicode = 00D0;
},
{
glyphname = Dcroat;
layers = (
{
components = (
{
name = D;
transform = "{1, 0, 0, 1, 2, 0}";
}
);
layerId = "F1BADE0A-D307-4A55-B1D9-DEBA981FCD10";
paths = (
{
closed = 1;
nodes = (
"307 334 LINE",
"307 368 LINE",
"17 368 LINE {name = hr00;}",
"17 334 LINE"
);
}
);
width = 651;
},
{
components = (
{
name = D;
transform = "{1, 0, 0, 1, 5, 0}";
}
);
layerId = "D02A7F20-5372-446E-84B7-8F4B885083B2";
paths = (
{
closed = 1;
nodes = (
"345 277 LINE",
"345 409 LINE",
"25 409 LINE {name = hr00;}",
"25 277 LINE"
);
}
);
width = 642;
},
{
components = (
{
name = D;
transform = "{1, 0, 0, 1, 7, 0}";
}
);
layerId = "2D07D9D6-DD7A-4EF1-82E8-8B18836F0AAC";
paths = (
{
closed = 1;
nodes = (
"324 270 LINE",
"324 407 LINE",
"-1 407 LINE",
"-1 270 LINE"
);
}
);
width = 661;
}
);
leftKerningGroup = I;
rightKerningGroup = D;
unicode = 0110;
},
{
glyphname = E;
layers = (
{
layerId = "F1BADE0A-D307-4A55-B1D9-DEBA981FCD10";
paths = (
{
closed = 1;
nodes = (
"501 0 LINE",
"501 34 LINE",
"128 34 LINE",
"128 341 LINE",
"441 341 LINE",
"441 375 LINE",
"128 375 LINE",
"128 666 LINE",
"501 666 LINE",
"501 700 LINE",
"92 700 LINE",
"92 0 LINE {name = hr00;}"
);
}
);
width = 552;
},
{
layerId = "D02A7F20-5372-446E-84B7-8F4B885083B2";
paths = (
{
closed = 1;
nodes = (
"514 0 LINE",
"514 120 LINE",
"212 120 LINE",
"212 283 LINE",
"454 283 LINE",
"454 401 LINE",
"212 401 LINE",
"212 560 LINE",
"514 560 LINE",
"514 680 LINE",
"74 680 LINE",
"74 0 LINE {name = hr00;}"
);
}
);
width = 554;
},
{
layerId = "2D07D9D6-DD7A-4EF1-82E8-8B18836F0AAC";
paths = (
{
closed = 1;
nodes = (
"532 0 LINE",
"532 185 LINE",
"262 185 LINE",
"262 245 LINE",
"472 245 LINE",
"472 428 LINE",
"262 428 LINE",
"262 485 LINE",
"532 485 LINE",
"532 670 LINE",
"30 670 LINE",
"30 0 LINE {name = hr00;}"
);
}
);
width = 549;
}
);
leftKerningGroup = I;
rightKerningGroup = E;
unicode = 0045;
},
{
glyphname = F;
layers = (
{
layerId = "F1BADE0A-D307-4A55-B1D9-DEBA981FCD10";
paths = (
{
closed = 1;
nodes = (
"128 0 LINE",
"128 316 LINE",
"442 316 LINE",
"442 350 LINE",
"128 350 LINE",
"128 666 LINE",
"493 666 LINE",
"493 700 LINE",
"92 700 LINE",
"92 0 LINE {name = hr00;}"
);
}
);
width = 523;
},
{
layerId = "D02A7F20-5372-446E-84B7-8F4B885083B2";
paths = (
{
closed = 1;
nodes = (
"212 0 LINE",
"212 240 LINE",
"454 240 LINE",
"454 360 LINE",
"212 360 LINE",
"212 560 LINE",
"508 560 LINE",
"508 680 LINE",
"74 680 LINE",
"74 0 LINE {name = hr00;}"
);
}
);
width = 531;
},
{
layerId = "2D07D9D6-DD7A-4EF1-82E8-8B18836F0AAC";
paths = (
{
closed = 1;
nodes = (
"262 0 LINE",
"262 184 LINE",
"453 184 LINE",
"453 373 LINE",
"262 373 LINE",
"262 481 LINE",
"513 481 LINE",
"513 670 LINE",
"30 670 LINE",
"30 0 LINE {name = hr00;}"
);
}
);
width = 521;
}
);
leftKerningGroup = I;
unicode = 0046;
},
{
glyphname = G;
layers = (
{
layerId = "F1BADE0A-D307-4A55-B1D9-DEBA981FCD10";
paths = (
{
closed = 1;
nodes = (
"393 -9 OFFCURVE",
"511 9 OFFCURVE",
"547 16 CURVE",
"547 347 LINE",
"361 347 LINE",
"361 313 LINE {name = hr00;}",
"511 313 LINE",
"511 45 LINE",
"467 37 OFFCURVE",
"383 25 OFFCURVE",
"327 25 CURVE SMOOTH",
"143 25 OFFCURVE",
"103 147 OFFCURVE",
"103 347 CURVE SMOOTH",
"103 546 OFFCURVE",
"139 675 OFFCURVE",
"327 675 CURVE SMOOTH",
"393 675 OFFCURVE",
"490 660 OFFCURVE",
"544 649 CURVE",
"547 684 LINE",
"498 695 OFFCURVE",
"404 709 OFFCURVE",
"327 709 CURVE SMOOTH",
"114 709 OFFCURVE",
"65 565 OFFCURVE",
"65 347 CURVE SMOOTH",
"65 125 OFFCURVE",
"121 -9 OFFCURVE",
"327 -9 CURVE SMOOTH"
);
}
);
width = 619;
},
{
layerId = "D02A7F20-5372-446E-84B7-8F4B885083B2";
paths = (
{
closed = 1;
nodes = (
"388 -12 OFFCURVE",
"494 1 OFFCURVE",
"555 11 CURVE",
"555 364 LINE",
"357 364 LINE",
"357 244 LINE {name = hr00;}",
"419 244 LINE",
"419 112 LINE",
"401 110 OFFCURVE",
"366 108 OFFCURVE",
"336 108 CURVE SMOOTH",
"212 108 OFFCURVE",
"187 159 OFFCURVE",
"187 340 CURVE SMOOTH",
"187 531 OFFCURVE",
"222 570 OFFCURVE",
"340 570 CURVE SMOOTH",
"406 570 OFFCURVE",
"499 563 OFFCURVE",
"551 557 CURVE",
"555 664 LINE",
"498 676 OFFCURVE",
"395 692 OFFCURVE",
"318 692 CURVE SMOOTH",
"117 692 OFFCURVE",
"45 588 OFFCURVE",
"45 340 CURVE SMOOTH",
"45 112 OFFCURVE",
"101 -12 OFFCURVE",
"323 -12 CURVE SMOOTH"
);
}
);
width = 611;
},
{
layerId = "2D07D9D6-DD7A-4EF1-82E8-8B18836F0AAC";
paths = (
{
closed = 1;
nodes = (
"390 -9 OFFCURVE",
"514 8 OFFCURVE",
"592 20 CURVE",
"592 394 LINE",
"345 394 LINE",
"346 232 LINE {name = hr00;}",
"376 232 LINE",
"376 182 LINE",
"367 182 OFFCURVE",
"351 181 OFFCURVE",
"342 181 CURVE SMOOTH",
"265 181 OFFCURVE",
"251 231 OFFCURVE",
"251 336 CURVE SMOOTH",
"251 453 OFFCURVE",
"253 487 OFFCURVE",
"352 487 CURVE SMOOTH",
"418 487 OFFCURVE",
"525 480 OFFCURVE",
"587 474 CURVE",
"587 649 LINE",
"527 664 OFFCURVE",
"416 683 OFFCURVE",
"332 683 CURVE SMOOTH",
"107 683 OFFCURVE",
"17 597 OFFCURVE",
"17 336 CURVE SMOOTH",
"17 98 OFFCURVE",
"77 -9 OFFCURVE",
"332 -9 CURVE SMOOTH"
);
}
);
width = 619;
}
);
leftKerningGroup = O;
rightKerningGroup = G;
unicode = 0047;
},
{
glyphname = Gdotaccent;
layers = (
{
components = (
{
name = G;
}
);
layerId = "F1BADE0A-D307-4A55-B1D9-DEBA981FCD10";
paths = (
{
closed = 1;
nodes = (
"331 823 LINE",
"331 878 LINE",
"296 878 LINE",
"296 823 LINE {name = hr00;}"
);
}
);
width = 619;
},
{
components = (
{
name = G;
}
);
layerId = "D02A7F20-5372-446E-84B7-8F4B885083B2";
paths = (
{
closed = 1;
nodes = (
"379 767 LINE",
"379 902 LINE",
"245 902 LINE",
"245 767 LINE {name = hr00;}"
);
}
);
width = 611;
},
{
components = (
{
name = G;
}
);
layerId = "2D07D9D6-DD7A-4EF1-82E8-8B18836F0AAC";
paths = (
{
closed = 1;
nodes = (
"398 728 LINE",
"398 881 LINE",
"212 881 LINE",
"212 728 LINE"
);
}
);
width = 619;
}
);
leftKerningGroup = O;
rightKerningGroup = G;
unicode = 0120;
},
{
glyphname = H;
layers = (
{
layerId = "F1BADE0A-D307-4A55-B1D9-DEBA981FCD10";
paths = (
{
closed = 1;
nodes = (
"128 0 LINE",
"128 334 LINE",
"546 334 LINE",
"546 0 LINE {name = hr00;}",
"582 0 LINE",
"582 700 LINE",
"546 700 LINE",
"546 368 LINE",
"128 368 LINE",
"128 700 LINE",
"92 700 LINE",
"92 0 LINE"
);
}
);
width = 674;
},
{
layerId = "D02A7F20-5372-446E-84B7-8F4B885083B2";
paths = (
{
closed = 1;
nodes = (
"212 0 LINE",
"212 282 LINE",
"465 282 LINE",
"465 0 LINE {name = hr00;}",
"603 0 LINE",
"603 680 LINE",
"465 680 LINE",
"465 402 LINE",
"212 402 LINE",
"212 680 LINE",
"74 680 LINE",
"74 0 LINE"
);
}
);
width = 677;
},
{
layerId = "2D07D9D6-DD7A-4EF1-82E8-8B18836F0AAC";
paths = (
{
closed = 1;
nodes = (
"262 0 LINE",
"262 234 LINE",
"393 234 LINE",
"393 0 LINE {name = hr00;}",
"625 0 LINE",
"625 670 LINE",
"393 670 LINE",
"393 423 LINE",
"262 423 LINE",
"262 670 LINE",
"30 670 LINE",
"30 0 LINE"
);
}
);
width = 655;
}
);
leftKerningGroup = I;
rightKerningGroup = I;
unicode = 0048;
},
{
glyphname = Hbar;
layers = (
{
components = (
{
name = H;
transform = "{1, 0, 0, 1, 4, 0}";
}
);
layerId = "F1BADE0A-D307-4A55-B1D9-DEBA981FCD10";
paths = (
{
closed = 1;
nodes = (
"679 522 LINE",
"679 554 LINE",
"12 554 LINE",
"12 522 LINE {name = hr00;}"
);
}
);
width = 686;
},
{
components = (
{
name = H;
transform = "{1, 0, 0, 1, 4, 0}";
}
);
layerId = "D02A7F20-5372-446E-84B7-8F4B885083B2";
paths = (
{
closed = 1;
nodes = (
"673 486 LINE",
"673 602 LINE",
"19 602 LINE",
"19 486 LINE {name = hr00;}"
);
}
);
width = 685;
},
{
components = (
{
name = H;
transform = "{1, 0, 0, 1, 2, 0}";
}
);
layerId = "2D07D9D6-DD7A-4EF1-82E8-8B18836F0AAC";
paths = (
{
closed = 1;
nodes = (
"655 473 LINE",
"655 605 LINE",
"4 605 LINE",
"4 473 LINE"
);
}
);
width = 659;
}
);
leftKerningGroup = I;
rightKerningGroup = I;
unicode = 0126;
},
{
glyphname = I;
layers = (
{
layerId = "F1BADE0A-D307-4A55-B1D9-DEBA981FCD10";
paths = (
{
closed = 1;
nodes = (
"128 0 LINE",
"128 700 LINE",
"92 700 LINE",
"92 0 LINE {name = hr00;}"
);
}
);
width = 220;
},
{
layerId = "D02A7F20-5372-446E-84B7-8F4B885083B2";
paths = (
{
closed = 1;
nodes = (
"212 0 LINE",
"212 680 LINE",
"74 680 LINE",
"74 0 LINE {name = hr00;}"
);
}
);
width = 286;
},
{
layerId = "2D07D9D6-DD7A-4EF1-82E8-8B18836F0AAC";
paths = (
{
closed = 1;
nodes = (
"262 0 LINE",
"262 670 LINE",
"30 670 LINE",
"30 0 LINE {name = hr00;}"
);
}
);
width = 292;
}
);
leftKerningGroup = I;
rightKerningGroup = I;
unicode = 0049;
},
{
glyphname = Idotaccent;
layers = (
{
components = (
{
name = I;
}
);
layerId = "F1BADE0A-D307-4A55-B1D9-DEBA981FCD10";
paths = (
{
closed = 1;
nodes = (
"128 823 LINE",
"128 878 LINE",
"93 878 LINE",
"93 823 LINE {name = hr00;}"
);
}
);
width = 220;
},
{
components = (
{
name = I;
}
);
layerId = "D02A7F20-5372-446E-84B7-8F4B885083B2";
paths = (
{
closed = 1;
nodes = (
"210 767 LINE",
"210 902 LINE",
"76 902 LINE",
"76 767 LINE {name = hr00;}"
);
}
);
width = 286;
},
{
components = (
{
name = I;
}
);
layerId = "2D07D9D6-DD7A-4EF1-82E8-8B18836F0AAC";
paths = (
{
closed = 1;
nodes = (
"239 706 LINE",
"239 859 LINE",
"53 859 LINE",
"53 706 LINE"
);
}
);
width = 292;
}
);
leftKerningGroup = I;
rightKerningGroup = I;
unicode = 0130;
},
{
glyphname = J;
layers = (
{
layerId = "F1BADE0A-D307-4A55-B1D9-DEBA981FCD10";
paths = (
{
closed = 1;
nodes = (
"138 -73 OFFCURVE",
"191 -69 OFFCURVE",
"191 81 CURVE SMOOTH",
"191 700 LINE {name = hr00;}",
"155 700 LINE",
"155 96 LINE",
"155 -37 OFFCURVE",
"135 -39 OFFCURVE",
"18 -39 CURVE",
"18 -73 LINE"
);
}
);
width = 280;
},
{
layerId = "D02A7F20-5372-446E-84B7-8F4B885083B2";
paths = (
{
closed = 1;
nodes = (
"169 -70 OFFCURVE",
"233 -35 OFFCURVE",
"233 115 CURVE",
"232 680 LINE {name = hr00;}",
"95 680 LINE",
"95 121 LINE",
"95 64 OFFCURVE",
"69 50 OFFCURVE",
"19 50 CURVE",
"19 -70 LINE"
);
}
);
width = 302;
},
{
layerId = "2D07D9D6-DD7A-4EF1-82E8-8B18836F0AAC";
paths = (
{
closed = 1;
nodes = (
"188 -13 OFFCURVE",
"294 -1 OFFCURVE",
"294 177 CURVE",
"294 670 LINE {name = hr00;}",
"62 670 LINE",
"62 322 LINE SMOOTH",
"62 181 OFFCURVE",
"58 178 OFFCURVE",
"15 178 CURVE",
"15 -13 LINE"
);
}
);
width = 321;
}
);
leftKerningGroup = J;
rightKerningGroup = J;
unicode = 004A;
},
{
glyphname = K;
layers = (
{
layerId = "F1BADE0A-D307-4A55-B1D9-DEBA981FCD10";
paths = (
{
closed = 1;
nodes = (
"128 0 LINE",
"128 329 LINE",
"259 329 LINE",
"490 0 LINE {name = hr00;}",
"536 0 LINE",
"289 348 LINE",
"520 700 LINE",
"477 700 LINE",
"257 363 LINE",
"128 363 LINE",
"128 700 LINE",
"92 700 LINE",
"92 0 LINE"
);
}
);
width = 553;
},
{
layerId = "D02A7F20-5372-446E-84B7-8F4B885083B2";
paths = (
{
closed = 1;
nodes = (
"212 0 LINE",
"212 261 LINE",
"304 271 LINE",
"418 0 LINE {name = hr00;}",
"577 0 LINE",
"425 339 LINE",
"573 680 LINE",
"416 680 LINE",
"304 391 LINE",
"212 381 LINE",
"212 680 LINE",
"74 680 LINE",
"74 0 LINE"
);
}
);
width = 593;
},
{
layerId = "2D07D9D6-DD7A-4EF1-82E8-8B18836F0AAC";
paths = (
{
closed = 1;
nodes = (
"262 0 LINE",
"262 223 LINE {name = hr02;}",
"303 223 LINE",
"384 0 LINE {name = hr00;}",
"617 0 LINE",
"500 346 LINE",
"607 670 LINE {name = hr01;}",
"377 670 LINE",
"302 433 LINE",
"262 433 LINE",
"262 670 LINE",
"30 670 LINE",
"30 0 LINE"
);
}
);
width = 609;
}
);
leftKerningGroup = I;
rightKerningGroup = K;
unicode = 004B;
},
{
glyphname = Kcommaaccent;
layers = (
{
components = (
{
name = K;
}
);
layerId = "F1BADE0A-D307-4A55-B1D9-DEBA981FCD10";
paths = (
{
closed = 1;
nodes = (
"268 -267 LINE",
"314 -78 LINE",
"277 -78 LINE {name = hr01;}",
"240 -267 LINE"
);
}
);
width = 553;
},
{
components = (
{
name = K;
}
);
layerId = "D02A7F20-5372-446E-84B7-8F4B885083B2";
paths = (
{
closed = 1;
nodes = (
"320 -311 LINE",
"375 -77 LINE",
"245 -77 LINE {name = hr01;}",
"199 -311 LINE"
);
}
);
width = 591;
},
{
components = (
{
name = K;
}
);
layerId = "2D07D9D6-DD7A-4EF1-82E8-8B18836F0AAC";
paths = (
{
closed = 1;
nodes = (
"336 -260 LINE",
"398 -45 LINE",
"194 -45 LINE",
"174 -260 LINE"
);
}
);
width = 609;
}
);
leftKerningGroup = I;
rightKerningGroup = K;
unicode = 0136;
},
{
glyphname = L;
layers = (
{
layerId = "F1BADE0A-D307-4A55-B1D9-DEBA981FCD10";
paths = (
{
closed = 1;
nodes = (
"469 0 LINE {name = hr00;}",
"469 34 LINE",
"128 34 LINE",
"128 700 LINE",
"92 700 LINE",
"92 0 LINE"
);
}
);
width = 483;
},
{
layerId = "D02A7F20-5372-446E-84B7-8F4B885083B2";
paths = (
{
closed = 1;
nodes = (
"461 0 LINE {name = hr00;}",
"461 122 LINE",
"212 122 LINE",
"212 680 LINE",
"74 680 LINE",
"74 0 LINE"
);
}
);
width = 472;
},
{
layerId = "2D07D9D6-DD7A-4EF1-82E8-8B18836F0AAC";
paths = (
{
closed = 1;
nodes = (
"480 0 LINE {name = hr00;}",
"480 189 LINE",
"262 189 LINE",
"262 670 LINE",
"30 670 LINE",
"30 0 LINE"
);
}
);
width = 489;
}
);
leftKerningGroup = I;
rightKerningGroup = L;
unicode = 004C;
},
{
glyphname = Lacute;
layers = (
{
components = (
{
name = acute.cap;
transform = "{1, 0, 0, 1, 130, 0}";
}
);
layerId = "F1BADE0A-D307-4A55-B1D9-DEBA981FCD10";
paths = (
{
closed = 1;
nodes = (
"469 0 LINE {name = hr00;}",
"469 34 LINE",
"128 34 LINE",
"128 700 LINE",
"92 700 LINE",
"92 0 LINE"
);
}
);
width = 483;
},
{
components = (
{
name = acute.cap;
transform = "{1, 0, 0, 1, 109, 0}";
}
);
layerId = "D02A7F20-5372-446E-84B7-8F4B885083B2";
paths = (
{
closed = 1;
nodes = (
"461 0 LINE {name = hr00;}",
"461 133 LINE",
"212 133 LINE",
"212 690 LINE",
"74 690 LINE",
"74 0 LINE"
);
}
);
width = 473;
},
{
components = (
{
name = acute.cap;
transform = "{1, 0, 0, 1, -50, 0}";
}
);
layerId = "2D07D9D6-DD7A-4EF1-82E8-8B18836F0AAC";
paths = (
{
closed = 1;
nodes = (
"480 0 LINE {name = hr00;}",
"480 189 LINE",
"262 189 LINE",
"262 670 LINE",
"30 670 LINE",
"30 0 LINE"
);
}
);
width = 489;
}
);
leftKerningGroup = I;
rightKerningGroup = L;
unicode = 0139;
},
{
glyphname = Lcaron;
layers = (
{
components = (
{
name = L;
}
);
layerId = "F1BADE0A-D307-4A55-B1D9-DEBA981FCD10";
paths = (
{
closed = 1;
nodes = (
"424 483 LINE",
"424 700 LINE {name = hr00;}",
"390 700 LINE",
"390 483 LINE"
);
}
);
width = 492;
},
{
components = (
{
name = L;
}
);
layerId = "D02A7F20-5372-446E-84B7-8F4B885083B2";
paths = (
{
closed = 1;
nodes = (
"461 430 LINE",
"461 690 LINE {name = hr00;}",
"331 690 LINE",
"331 430 LINE"
);
}
);
width = 498;
},
{
components = (
{
name = L;
}
);
layerId = "2D07D9D6-DD7A-4EF1-82E8-8B18836F0AAC";
paths = (
{
closed = 1;
nodes = (
"480 488 LINE",
"542 703 LINE",
"338 703 LINE",
"318 488 LINE"
);
}
);
width = 512;
}
);
leftKerningGroup = I;
rightKerningGroup = L;
unicode = 013D;
},
{
glyphname = Lcommaaccent;
layers = (
{
components = (
{
name = L;
}
);
layerId = "F1BADE0A-D307-4A55-B1D9-DEBA981FCD10";
paths = (
{
closed = 1;
nodes = (
"256 -267 LINE",
"302 -78 LINE",
"265 -78 LINE {name = hr00;}",
"228 -267 LINE"
);
}
);
width = 483;
},
{
components = (
{
name = L;
}
);
layerId = "D02A7F20-5372-446E-84B7-8F4B885083B2";
paths = (
{
closed = 1;
nodes = (
"279 -311 LINE",
"334 -77 LINE",
"204 -77 LINE {name = hr00;}",
"158 -311 LINE"
);
}
);
width = 472;
},
{
components = (
{
name = L;
}
);
layerId = "2D07D9D6-DD7A-4EF1-82E8-8B18836F0AAC";
paths = (
{
closed = 1;
nodes = (
"297 -260 LINE",
"359 -45 LINE",
"155 -45 LINE",
"135 -260 LINE"
);
}
);
width = 489;
}
);
leftKerningGroup = I;
rightKerningGroup = L;
unicode = 013B;
},
{
glyphname = Lslash;
layers = (
{
components = (
{
name = L;
transform = "{1, 0, 0, 1, 2, 0}";
}
);
layerId = "F1BADE0A-D307-4A55-B1D9-DEBA981FCD10";
paths = (
{
closed = 1;
nodes = (
"320 467 LINE",
"301 493 LINE",
"9 288 LINE",
"28 262 LINE"
);
}
);
width = 485;
},
{
components = (
{
name = L;
transform = "{1, 0, 0, 1, 9, 0}";
}
);
layerId = "D02A7F20-5372-446E-84B7-8F4B885083B2";
paths = (
{
closed = 1;
nodes = (
"385 429 LINE",
"320 519 LINE",
"-24 278 LINE",
"41 188 LINE"
);
}
);
width = 481;
},
{
components = (
{
name = L;
transform = "{1, 0, 0, 1, 4, 0}";
}
);
layerId = "2D07D9D6-DD7A-4EF1-82E8-8B18836F0AAC";
paths = (
{
closed = 1;
nodes = (
"340 319 LINE",
"340 506 LINE",
"3 338 LINE",
"3 151 LINE"
);
}
);
width = 493;
}
);
leftKerningGroup = I;
rightKerningGroup = L;
unicode = 0141;
},
{
glyphname = M;
layers = (
{
layerId = "F1BADE0A-D307-4A55-B1D9-DEBA981FCD10";
paths = (
{
closed = 1;
nodes = (
"128 0 LINE",
"128 666 LINE",
"142 666 LINE",
"388 21 LINE",
"440 21 LINE",
"686 666 LINE",
"700 666 LINE",
"700 0 LINE",
"736 0 LINE",
"736 700 LINE",
"660 700 LINE",
"414 55 LINE",
"168 700 LINE",
"92 700 LINE",
"92 0 LINE {name = hr00;}"
);
}
);
width = 828;
},
{
layerId = "D02A7F20-5372-446E-84B7-8F4B885083B2";
paths = (
{
closed = 1;
nodes = (
"212 0 LINE",
"212 526 LINE",
"227 526 LINE",
"360 30 LINE",
"498 30 LINE",
"631 526 LINE",
"646 526 LINE",
"646 0 LINE",
"784 0 LINE",
"784 680 LINE",
"549 680 LINE",
"429 184 LINE",
"309 680 LINE",
"74 680 LINE",
"74 0 LINE {name = hr00;}"
);
}
);
width = 858;
},
{
layerId = "2D07D9D6-DD7A-4EF1-82E8-8B18836F0AAC";
paths = (
{
closed = 1;
nodes = (
"262 0 LINE",
"262 345 LINE",
"273 345 LINE",
"330 7 LINE",
"524 7 LINE",
"582 345 LINE",
"593 345 LINE",
"593 0 LINE",
"825 0 LINE",
"825 670 LINE",
"470 670 LINE",
"427 414 LINE",
"375 670 LINE",
"30 670 LINE",
"30 0 LINE {name = hr00;}"
);
}
);
width = 855;
}
);
leftKerningGroup = I;
rightKerningGroup = I;
unicode = 004D;
},
{
glyphname = N;
layers = (
{
layerId = "F1BADE0A-D307-4A55-B1D9-DEBA981FCD10";
paths = (
{
closed = 1;
nodes = (
"128 0 LINE",
"128 666 LINE",
"154 666 LINE",
"488 0 LINE",
"573 0 LINE",
"573 700 LINE",
"537 700 LINE",
"537 34 LINE",
"510 34 LINE",
"177 700 LINE",
"92 700 LINE",
"92 0 LINE {name = hr00;}"
);
}
);
width = 665;
},
{
layerId = "D02A7F20-5372-446E-84B7-8F4B885083B2";
paths = (
{
closed = 1;
nodes = (
"212 0 LINE",
"212 560 LINE",
"222 560 LINE",
"392 0 LINE",
"619 0 LINE",
"619 680 LINE",
"481 680 LINE",
"481 120 LINE",
"471 120 LINE",
"307 680 LINE",
"74 680 LINE",
"74 0 LINE {name = hr00;}"
);
}
);
width = 693;
},
{
layerId = "2D07D9D6-DD7A-4EF1-82E8-8B18836F0AAC";
paths = (
{
closed = 1;
nodes = (
"262 0 LINE",
"262 273 LINE",
"277 273 LINE",
"429 0 LINE",
"658 0 LINE",
"658 670 LINE",
"426 670 LINE",
"426 416 LINE",
"412 416 LINE",
"258 670 LINE",
"30 670 LINE",
"30 0 LINE {name = hr00;}"
);
}
);
width = 688;
}
);
leftKerningGroup = I;
rightKerningGroup = I;
unicode = 004E;
},
{
glyphname = Ncommaaccent;
layers = (
{
components = (
{
name = N;
}
);
layerId = "F1BADE0A-D307-4A55-B1D9-DEBA981FCD10";
paths = (
{
closed = 1;
nodes = (
"331 -267 LINE",
"377 -78 LINE",
"340 -78 LINE {name = hr00;}",
"303 -267 LINE"
);
}
);
width = 665;
},
{
components = (
{
name = N;
}
);
layerId = "D02A7F20-5372-446E-84B7-8F4B885083B2";
paths = (
{
closed = 1;
nodes = (
"374 -311 LINE",
"429 -77 LINE",
"299 -77 LINE {name = hr00;}",
"253 -311 LINE"
);
}
);
width = 693;
},
{
components = (
{
name = N;
}
);
layerId = "2D07D9D6-DD7A-4EF1-82E8-8B18836F0AAC";
paths = (
{
closed = 1;
nodes = (
"404 -260 LINE",
"466 -45 LINE",
"262 -45 LINE",
"242 -260 LINE"
);
}
);
width = 688;
}
);
leftKerningGroup = I;
rightKerningGroup = I;
unicode = 0145;
},
{
glyphname = Eng;
layers = (
{
components = (
{
name = N;
}
);
layerId = "F1BADE0A-D307-4A55-B1D9-DEBA981FCD10";
paths = (
{
closed = 1;
nodes = (
"520 -152 OFFCURVE",
"573 -148 OFFCURVE",
"573 2 CURVE SMOOTH",
"573 48 LINE {name = hr00;}",
"537 48 LINE",
"537 17 LINE",
"537 -116 OFFCURVE",
"517 -118 OFFCURVE",
"400 -118 CURVE",
"400 -152 LINE"
);
}
);
width = 671;
},
{
components = (
{
name = N;
}
);
layerId = "D02A7F20-5372-446E-84B7-8F4B885083B2";
paths = (
{
closed = 1;
nodes = (
"555 -228 OFFCURVE",
"619 -193 OFFCURVE",
"619 -43 CURVE",
"619 27 LINE {name = hr00;}",
"481 27 LINE",
"481 -37 LINE",
"481 -94 OFFCURVE",
"455 -108 OFFCURVE",
"405 -108 CURVE",
"405 -228 LINE"
);
}
);
width = 688;
},
{
components = (
{
name = N;
}
);
layerId = "2D07D9D6-DD7A-4EF1-82E8-8B18836F0AAC";
paths = (
{
closed = 1;
nodes = (
"613 -224 OFFCURVE",
"658 -197 OFFCURVE",
"658 7 CURVE SMOOTH",
"658 14 LINE",
"429 14 LINE",
"429 0 LINE",
"429 -72 OFFCURVE",
"421 -78 OFFCURVE",
"340 -116 CURVE",
"412 -286 LINE"
);
}
);
width = 688;
}
);
leftKerningGroup = I;
rightKerningGroup = I;
unicode = 014A;
},
{
glyphname = O;
layers = (
{
layerId = "F1BADE0A-D307-4A55-B1D9-DEBA981FCD10";
paths = (
{
closed = 1;
nodes = (
"548 -9 OFFCURVE",
"601 105 OFFCURVE",
"601 347 CURVE SMOOTH",
"601 577 OFFCURVE",
"547 709 OFFCURVE",
"333 709 CURVE SMOOTH",
"119 709 OFFCURVE",
"65 575 OFFCURVE",
"65 347 CURVE SMOOTH",
"65 115 OFFCURVE",
"117 -9 OFFCURVE",
"333 -9 CURVE SMOOTH"
);
},
{
closed = 1;
nodes = (
"140 25 OFFCURVE",
"103 137 OFFCURVE",
"103 347 CURVE SMOOTH",
"103 556 OFFCURVE",
"143 675 OFFCURVE",
"333 675 CURVE SMOOTH",
"521 675 OFFCURVE",
"563 554 OFFCURVE",
"563 347 CURVE SMOOTH",
"563 127 OFFCURVE",
"526 25 OFFCURVE",
"333 25 CURVE SMOOTH {name = hr00;}"
);
}
);
width = 666;
},
{
layerId = "D02A7F20-5372-446E-84B7-8F4B885083B2";
paths = (
{
closed = 1;
nodes = (
"540 -12 OFFCURVE",
"608 106 OFFCURVE",
"608 336 CURVE SMOOTH",
"608 566 OFFCURVE",
"540 692 OFFCURVE",
"326 692 CURVE SMOOTH",
"112 692 OFFCURVE",
"44 566 OFFCURVE",
"44 336 CURVE SMOOTH",
"44 106 OFFCURVE",
"112 -12 OFFCURVE",
"326 -12 CURVE SMOOTH"
);
},
{
closed = 1;
nodes = (
"214 108 OFFCURVE",
"186 179 OFFCURVE",
"186 336 CURVE SMOOTH",
"186 493 OFFCURVE",
"214 572 OFFCURVE",
"326 572 CURVE SMOOTH",
"438 572 OFFCURVE",
"466 493 OFFCURVE",
"466 336 CURVE SMOOTH",
"466 179 OFFCURVE",
"438 108 OFFCURVE",
"326 108 CURVE SMOOTH {name = hr00;}"
);
}
);
width = 652;
},
{
layerId = "2D07D9D6-DD7A-4EF1-82E8-8B18836F0AAC";
paths = (
{
closed = 1;
nodes = (
"558 -13 OFFCURVE",
"654 91 OFFCURVE",
"654 335 CURVE SMOOTH",
"654 579 OFFCURVE",
"558 683 OFFCURVE",
"335 683 CURVE SMOOTH",
"112 683 OFFCURVE",
"16 579 OFFCURVE",
"16 335 CURVE SMOOTH",
"16 91 OFFCURVE",
"115 -13 OFFCURVE",
"335 -13 CURVE SMOOTH"
);
},
{
closed = 1;
nodes = (
"261 175 OFFCURVE",
"250 232 OFFCURVE",
"250 335 CURVE SMOOTH",
"250 438 OFFCURVE",
"261 495 OFFCURVE",
"335 495 CURVE SMOOTH",
"412 495 OFFCURVE",
"420 438 OFFCURVE",
"420 335 CURVE SMOOTH",
"420 233 OFFCURVE",
"411 175 OFFCURVE",
"335 175 CURVE SMOOTH {name = hr00;}"
);
}
);
width = 670;
}
);
leftKerningGroup = O;
rightKerningGroup = O;
unicode = 004F;
},
{
glyphname = Oslash;
layers = (
{
components = (
{
name = O;
}
);
layerId = "F1BADE0A-D307-4A55-B1D9-DEBA981FCD10";
paths = (
{
closed = 1;
nodes = (
"381 402 LINE",
"352 416 LINE",
"111 -98 LINE",
"141 -109 LINE"
);
},
{
closed = 1;
nodes = (
"558 780 LINE",
"528 792 LINE",
"296 297 LINE",
"327 286 LINE"
);
}
);
width = 666;
},
{
components = (
{
name = O;
}
);
layerId = "D02A7F20-5372-446E-84B7-8F4B885083B2";
paths = (
{
closed = 1;
nodes = (
"420 405 LINE",
"324 458 LINE",
"74 -78 LINE",
"172 -127 LINE"
);
},
{
closed = 1;
nodes = (
"588 767 LINE",
"488 810 LINE",
"252 304 LINE",
"349 253 LINE"
);
}
);
width = 652;
},
{
components = (
{
name = O;
}
);
layerId = "2D07D9D6-DD7A-4EF1-82E8-8B18836F0AAC";
paths = (
{
closed = 1;
nodes = (
"359 92 LINE",
"131 105 LINE",
"83 -10 LINE",
"300 -54 LINE"
);
},
{
closed = 1;
nodes = (
"560 586 LINE",
"598 680 LINE",
"381 724 LINE",
"324 585 LINE"
);
}
);
width = 670;
}
);
leftKerningGroup = O;
rightKerningGroup = O;
unicode = 00D8;
},
{
glyphname = OE;
layers = (
{
layerId = "F1BADE0A-D307-4A55-B1D9-DEBA981FCD10";
paths = (
{
closed = 1;
nodes = (
"370 -9 OFFCURVE",
"449 -5 OFFCURVE",
"491 -1 CURVE {name = hr02;}",
"889 -1 LINE {name = hr00;}",
"889 36 LINE",
"526 36 LINE",
"526 342 LINE",
"829 342 LINE",
"829 378 LINE",
"526 378 LINE",
"526 664 LINE",
"889 664 LINE",
"889 700 LINE",
"491 700 LINE",
"449 704 OFFCURVE",
"370 708 OFFCURVE",
"333 708 CURVE SMOOTH",
"117 708 OFFCURVE",
"65 584 OFFCURVE",
"65 354 CURVE SMOOTH",
"65 124 OFFCURVE",
"117 -9 OFFCURVE",
"333 -9 CURVE SMOOTH"
);
},
{
closed = 1;
nodes = (
"140 25 OFFCURVE",
"103 140 OFFCURVE",
"103 350 CURVE SMOOTH",
"103 560 OFFCURVE",
"140 674 OFFCURVE",
"333 674 CURVE SMOOTH",
"355 674 OFFCURVE",
"455 668 OFFCURVE",
"490 665 CURVE",
"490 34 LINE",
"455 31 OFFCURVE",
"355 25 OFFCURVE",
"333 25 CURVE SMOOTH"
);
}
);
width = 940;
},
{
layerId = "D02A7F20-5372-446E-84B7-8F4B885083B2";
paths = (
{
closed = 1;
nodes = (
"338 -12 OFFCURVE",
"390 -7 OFFCURVE",
"434 0 CURVE",
"861 0 LINE",
"861 120 LINE",
"559 120 LINE",
"559 283 LINE",
"801 283 LINE",
"801 401 LINE",
"559 401 LINE",
"559 560 LINE",
"861 560 LINE",
"861 680 LINE",
"422 680 LINE",
"383 687 OFFCURVE",
"338 692 OFFCURVE",
"298 692 CURVE SMOOTH",
"96 692 OFFCURVE",
"38 598 OFFCURVE",
"38 340 CURVE SMOOTH",
"38 102 OFFCURVE",
"88 -12 OFFCURVE",
"298 -12 CURVE SMOOTH"
);
},
{
closed = 1;
nodes = (
"204 110 OFFCURVE",
"180 157 OFFCURVE",
"180 340 CURVE SMOOTH",
"180 533 OFFCURVE",
"213 570 OFFCURVE",
"318 570 CURVE SMOOTH",
"344 570 OFFCURVE",
"384 567 OFFCURVE",
"421 564 CURVE",
"421 116 LINE",
"386 112 OFFCURVE",
"348 110 OFFCURVE",
"322 110 CURVE SMOOTH"
);
}
);
width = 902;
},
{
layerId = "2D07D9D6-DD7A-4EF1-82E8-8B18836F0AAC";
paths = (
{
closed = 1;
nodes = (
"349 -13 OFFCURVE",
"435 -6 OFFCURVE",
"484 0 CURVE",
"869 0 LINE",
"869 185 LINE",
"630 185 LINE",
"630 246 LINE",
"809 246 LINE",
"809 427 LINE",
"630 427 LINE",
"630 485 LINE",
"869 485 LINE",
"869 670 LINE",
"484 670 LINE",
"425 676 OFFCURVE",
"334 683 OFFCURVE",
"301 683 CURVE SMOOTH",
"83 683 OFFCURVE",
"18 591 OFFCURVE",
"18 340 CURVE SMOOTH",
"18 94 OFFCURVE",
"77 -13 OFFCURVE",
"291 -13 CURVE SMOOTH"
);
},
{
closed = 1;
nodes = (
"249 175 OFFCURVE",
"246 224 OFFCURVE",
"246 340 CURVE SMOOTH",
"246 462 OFFCURVE",
"260 495 OFFCURVE",
"357 495 CURVE SMOOTH",
"370 495 OFFCURVE",
"384 494 OFFCURVE",
"398 494 CURVE",
"398 176 LINE",
"385 175 OFFCURVE",
"371 175 OFFCURVE",
"357 175 CURVE SMOOTH"
);
}
);
width = 886;
},
{
associatedMasterId = "F1BADE0A-D307-4A55-B1D9-DEBA981FCD10";
layerId = "857E74BB-16EB-4806-962A-3988D03AF076";
name = "Apr 14 18, 13:13";
paths = (
{
closed = 1;
nodes = (
"370 -9 OFFCURVE",
"449 -5 OFFCURVE",
"491 -1 CURVE {name = hr02;}",
"889 -1 LINE {name = hr00;}",
"889 36 LINE",
"526 36 LINE",
"526 342 LINE",
"829 342 LINE",
"829 378 LINE",
"526 378 LINE",
"526 664 LINE",
"889 664 LINE",
"889 700 LINE",
"490 700 LINE",
"453 706 OFFCURVE",
"370 709 OFFCURVE",
"333 709 CURVE SMOOTH {name = hr01;}",
"119 709 OFFCURVE",
"65 575 OFFCURVE",
"65 345 CURVE SMOOTH",
"65 115 OFFCURVE",
"117 -9 OFFCURVE",
"333 -9 CURVE SMOOTH"
);
},
{
closed = 1;
nodes = (
"140 25 OFFCURVE",
"103 137 OFFCURVE",
"103 347 CURVE SMOOTH",
"103 556 OFFCURVE",
"143 675 OFFCURVE",
"333 675 CURVE SMOOTH",
"358 675 OFFCURVE",
"455 666 OFFCURVE",
"490 663 CURVE",
"490 34 LINE",
"455 31 OFFCURVE",
"355 25 OFFCURVE",
"333 25 CURVE SMOOTH"
);
}
);
width = 940;
},
{
associatedMasterId = "D02A7F20-5372-446E-84B7-8F4B885083B2";
layerId = "D7687A74-6FE5-42C4-AB77-0E6B5B4DD04A";
name = "Apr 14 18, 13:15";
paths = (
{
closed = 1;
nodes = (
"343 -12 OFFCURVE",
"387 -6 OFFCURVE",
"425 0 CURVE {name = hr02;}",
"861 0 LINE {name = hr00;}",
"861 132 LINE",
"559 132 LINE",
"559 284 LINE",
"801 284 LINE",
"801 415 LINE",
"559 415 LINE",
"559 558 LINE",
"861 558 LINE",
"861 690 LINE",
"423 690 LINE",
"386 696 OFFCURVE",
"343 702 OFFCURVE",
"306 702 CURVE SMOOTH {name = hr01;}",
"114 702 OFFCURVE",
"46 605 OFFCURVE",
"46 345 CURVE SMOOTH",
"46 105 OFFCURVE",
"96 -12 OFFCURVE",
"306 -12 CURVE SMOOTH"
);
},
{
closed = 1;
nodes = (
"212 124 OFFCURVE",
"188 174 OFFCURVE",
"188 345 CURVE SMOOTH",
"188 526 OFFCURVE",
"221 566 OFFCURVE",
"326 566 CURVE SMOOTH",
"351 566 OFFCURVE",
"388 563 OFFCURVE",
"423 560 CURVE",
"423 130 LINE",
"389 127 OFFCURVE",
"352 124 OFFCURVE",
"330 124 CURVE SMOOTH"
);
}
);
width = 902;
},
{
associatedMasterId = "2D07D9D6-DD7A-4EF1-82E8-8B18836F0AAC";
layerId = "C43260BC-0ABF-4D55-902B-50BA06B8C273";
name = "Apr 14 18, 13:16";
paths = (
{
closed = 1;
nodes = (
"349 -13 OFFCURVE",
"435 -6 OFFCURVE",
"484 0 CURVE",
"484 181 LINE {name = hr00;}",
"460 178 OFFCURVE",
"409 175 OFFCURVE",
"357 175 CURVE SMOOTH",
"249 175 OFFCURVE",
"246 224 OFFCURVE",
"246 340 CURVE SMOOTH",
"246 462 OFFCURVE",
"260 495 OFFCURVE",
"357 495 CURVE SMOOTH",
"402 495 OFFCURVE",
"456 489 OFFCURVE",
"484 485 CURVE",
"484 670 LINE",
"425 676 OFFCURVE",
"334 683 OFFCURVE",
"301 683 CURVE SMOOTH",
"83 683 OFFCURVE",
"18 591 OFFCURVE",
"18 340 CURVE SMOOTH",
"18 94 OFFCURVE",
"77 -13 OFFCURVE",
"291 -13 CURVE SMOOTH"
);
},
{
closed = 1;
nodes = (
"869 0 LINE",
"869 185 LINE",
"630 185 LINE",
"630 246 LINE",
"809 246 LINE",
"809 427 LINE",
"630 427 LINE",
"630 485 LINE",
"869 485 LINE",
"869 670 LINE",
"398 670 LINE",
"398 0 LINE"
);
}
);
width = 886;
},
{
associatedMasterId = "2D07D9D6-DD7A-4EF1-82E8-8B18836F0AAC";
components = (
{
name = O;
transform = "{1, 0, 0, 1, 2, 0}";
}
);
layerId = "0C7F72B9-102C-4C95-8F26-7DEB8D98FE2F";
name = "Apr 14 18, 13:17";
paths = (
{
closed = 1;
nodes = (
"869 0 LINE",
"869 185 LINE",
"630 185 LINE",
"630 246 LINE",
"809 246 LINE",
"809 427 LINE",
"630 427 LINE",
"630 485 LINE",
"869 485 LINE",
"869 670 LINE",
"398 670 LINE",
"398 0 LINE"
);
}
);
width = 886;
},
{
associatedMasterId = "D02A7F20-5372-446E-84B7-8F4B885083B2";
layerId = "96C963EA-AA10-4FD3-9612-44D2AD8B7338";
name = "Apr 14 18, 13:18";
paths = (
{
closed = 1;
nodes = (
"343 -12 OFFCURVE",
"387 -6 OFFCURVE",
"425 0 CURVE {name = hr02;}",
"861 0 LINE {name = hr00;}",
"861 132 LINE",
"559 132 LINE",
"559 284 LINE",
"801 284 LINE",
"801 415 LINE",
"559 415 LINE",
"559 558 LINE",
"861 558 LINE",
"861 690 LINE",
"423 690 LINE",
"386 696 OFFCURVE",
"343 702 OFFCURVE",
"306 702 CURVE SMOOTH {name = hr01;}",
"114 702 OFFCURVE",
"46 605 OFFCURVE",
"46 345 CURVE SMOOTH",
"46 105 OFFCURVE",
"96 -12 OFFCURVE",
"306 -12 CURVE SMOOTH"
);
},
{
closed = 1;
nodes = (
"212 124 OFFCURVE",
"188 174 OFFCURVE",
"188 345 CURVE SMOOTH",
"188 526 OFFCURVE",
"221 566 OFFCURVE",
"326 566 CURVE SMOOTH",
"351 566 OFFCURVE",
"388 563 OFFCURVE",
"423 560 CURVE",
"423 130 LINE",
"389 127 OFFCURVE",
"352 124 OFFCURVE",
"330 124 CURVE SMOOTH"
);
}
);
width = 902;
},
{
associatedMasterId = "D02A7F20-5372-446E-84B7-8F4B885083B2";
layerId = "ABE567DD-1EEC-4064-92FE-0D69A8AB7FC4";
name = "Apr 14 18, 13:20";
paths = (
{
closed = 1;
nodes = (
"861 0 LINE {name = hr00;}",
"861 120 LINE",
"559 120 LINE",
"559 283 LINE",
"801 283 LINE",
"801 401 LINE",
"559 401 LINE",
"559 560 LINE",
"861 560 LINE",
"861 680 LINE",
"421 680 LINE",
"421 0 LINE {name = hr00;}"
);
},
{
closed = 1;
nodes = (
"440 -12 OFFCURVE",
"514 25 OFFCURVE",
"556 99 CURVE",
"525 620 LINE",
"481 667 OFFCURVE",
"415 692 OFFCURVE",
"320 692 CURVE SMOOTH",
"106 692 OFFCURVE",
"38 566 OFFCURVE",
"38 336 CURVE SMOOTH",
"38 106 OFFCURVE",
"106 -12 OFFCURVE",
"320 -12 CURVE SMOOTH"
);
},
{
closed = 1;
nodes = (
"208 108 OFFCURVE",
"180 179 OFFCURVE",
"180 336 CURVE SMOOTH",
"180 493 OFFCURVE",
"208 572 OFFCURVE",
"320 572 CURVE SMOOTH",
"432 572 OFFCURVE",
"460 493 OFFCURVE",
"460 336 CURVE SMOOTH",
"460 179 OFFCURVE",
"432 108 OFFCURVE",
"320 108 CURVE SMOOTH {name = hr00;}"
);
}
);
width = 902;
},
{
associatedMasterId = "2D07D9D6-DD7A-4EF1-82E8-8B18836F0AAC";
layerId = "940137F5-C2F3-4342-ACB1-B87F09F3284D";
name = "Apr 14 18, 13:21";
paths = (
{
closed = 1;
nodes = (
"358 -13 OFFCURVE",
"398 -9 OFFCURVE",
"433 0 CURVE",
"869 0 LINE",
"869 185 LINE",
"630 185 LINE",
"630 246 LINE",
"809 246 LINE",
"809 427 LINE",
"630 427 LINE",
"630 485 LINE",
"869 485 LINE",
"869 670 LINE",
"433 670 LINE",
"398 679 OFFCURVE",
"358 683 OFFCURVE",
"313 683 CURVE SMOOTH",
"90 683 OFFCURVE",
"-6 579 OFFCURVE",
"-6 335 CURVE SMOOTH",
"-6 91 OFFCURVE",
"93 -13 OFFCURVE",
"313 -13 CURVE SMOOTH"
);
},
{
closed = 1;
nodes = (
"239 175 OFFCURVE",
"228 232 OFFCURVE",
"228 335 CURVE SMOOTH",
"228 438 OFFCURVE",
"239 495 OFFCURVE",
"313 495 CURVE SMOOTH",
"390 495 OFFCURVE",
"398 438 OFFCURVE",
"398 335 CURVE SMOOTH",
"398 233 OFFCURVE",
"389 175 OFFCURVE",
"313 175 CURVE SMOOTH {name = hr00;}"
);
}
);
width = 886;
},
{
associatedMasterId = "2D07D9D6-DD7A-4EF1-82E8-8B18836F0AAC";
layerId = "C36E1484-8F64-4772-BE2A-6F6B455B70AC";
name = "Apr 14 18, 13:22";
paths = (
{
closed = 1;
nodes = (
"358 -13 OFFCURVE",
"398 -9 OFFCURVE",
"433 0 CURVE",
"869 0 LINE",
"869 185 LINE",
"630 185 LINE",
"630 246 LINE",
"809 246 LINE",
"809 427 LINE",
"630 427 LINE",
"630 485 LINE",
"869 485 LINE",
"869 670 LINE",
"433 670 LINE",
"398 679 OFFCURVE",
"358 683 OFFCURVE",
"313 683 CURVE SMOOTH",
"90 683 OFFCURVE",
"-6 579 OFFCURVE",
"-6 335 CURVE SMOOTH",
"-6 91 OFFCURVE",
"93 -13 OFFCURVE",
"313 -13 CURVE SMOOTH"
);
},
{
closed = 1;
nodes = (
"239 175 OFFCURVE",
"228 232 OFFCURVE",
"228 335 CURVE SMOOTH",
"228 438 OFFCURVE",
"239 495 OFFCURVE",
"313 495 CURVE SMOOTH",
"390 495 OFFCURVE",
"398 438 OFFCURVE",
"398 335 CURVE SMOOTH",
"398 233 OFFCURVE",
"389 175 OFFCURVE",
"313 175 CURVE SMOOTH {name = hr00;}"
);
}
);
width = 886;
}
);
leftKerningGroup = O;
rightKerningGroup = E;
unicode = 0152;
},
{
glyphname = P;
layers = (
{
layerId = "F1BADE0A-D307-4A55-B1D9-DEBA981FCD10";
paths = (
{
closed = 1;
nodes = (
"128 0 LINE",
"128 257 LINE",
"347 257 LINE SMOOTH {name = hr00;}",
"492 257 OFFCURVE",
"554 340 OFFCURVE",
"554 485 CURVE SMOOTH",
"554 630 OFFCURVE",
"492 700 OFFCURVE",
"347 700 CURVE SMOOTH",
"92 700 LINE",
"92 0 LINE"
);
},
{
closed = 1;
nodes = (
"128 666 LINE",
"347 666 LINE",
"468 666 OFFCURVE",
"516 606 OFFCURVE",
"516 485 CURVE SMOOTH",
"516 364 OFFCURVE",
"468 291 OFFCURVE",
"347 291 CURVE SMOOTH",
"128 291 LINE"
);
}
);
width = 595;
},
{
layerId = "D02A7F20-5372-446E-84B7-8F4B885083B2";
paths = (
{
closed = 1;
nodes = (
"212 0 LINE",
"212 198 LINE",
"324 198 LINE SMOOTH {name = hr00;}",
"484 198 OFFCURVE",
"566 286 OFFCURVE",
"566 444 CURVE SMOOTH",
"566 602 OFFCURVE",
"484 680 OFFCURVE",
"324 680 CURVE SMOOTH",
"74 680 LINE",
"74 0 LINE"
);
},
{
closed = 1;
nodes = (
"212 562 LINE",
"323 562 LINE",
"392 562 OFFCURVE",
"426 529 OFFCURVE",
"426 444 CURVE SMOOTH",
"426 358 OFFCURVE",
"392 316 OFFCURVE",
"323 316 CURVE SMOOTH",
"212 316 LINE"
);
}
);
width = 589;
},
{
layerId = "2D07D9D6-DD7A-4EF1-82E8-8B18836F0AAC";
paths = (
{
closed = 1;
nodes = (
"262 0 LINE",
"262 142 LINE {name = hr00;}",
"293 142 LINE",
"493 142 OFFCURVE",
"597 198 OFFCURVE",
"597 409 CURVE SMOOTH",
"597 620 OFFCURVE",
"492 670 OFFCURVE",
"293 670 CURVE SMOOTH",
"30 670 LINE",
"30 0 LINE"
);
},
{
closed = 1;
nodes = (
"262 487 LINE",
"283 487 LINE SMOOTH",
"341 487 OFFCURVE",
"363 472 OFFCURVE",
"363 408 CURVE SMOOTH",
"363 347 OFFCURVE",
"340 325 OFFCURVE",
"283 325 CURVE",
"262 325 LINE"
);
}
);
width = 612;
}
);
leftKerningGroup = I;
unicode = 0050;
},
{
glyphname = Thorn;
layers = (
{
layerId = "F1BADE0A-D307-4A55-B1D9-DEBA981FCD10";
paths = (
{
closed = 1;
nodes = (
"128 0 LINE",
"128 135 LINE",
"347 135 LINE SMOOTH",
"492 135 OFFCURVE",
"554 222 OFFCURVE",
"554 367 CURVE SMOOTH",
"554 512 OFFCURVE",
"492 578 OFFCURVE",
"347 578 CURVE SMOOTH",
"128 578 LINE",
"128 700 LINE",
"92 700 LINE",
"92 0 LINE"
);
},
{
closed = 1;
nodes = (
"128 544 LINE",
"347 544 LINE SMOOTH",
"468 544 OFFCURVE",
"516 488 OFFCURVE",
"516 367 CURVE SMOOTH",
"516 246 OFFCURVE",
"468 169 OFFCURVE",
"347 169 CURVE SMOOTH",
"128 169 LINE"
);
}
);
width = 601;
},
{
layerId = "D02A7F20-5372-446E-84B7-8F4B885083B2";
paths = (
{
closed = 1;
nodes = (
"212 0 LINE",
"212 99 LINE",
"324 99 LINE SMOOTH",
"484 99 OFFCURVE",
"568 193 OFFCURVE",
"568 353 CURVE SMOOTH",
"568 513 OFFCURVE",
"484 592 OFFCURVE",
"324 592 CURVE SMOOTH",
"212 592 LINE",
"212 690 LINE",
"74 690 LINE",
"74 0 LINE"
);
},
{
closed = 1;
nodes = (
"212 460 LINE",
"323 460 LINE",
"392 460 OFFCURVE",
"428 427 OFFCURVE",
"428 353 CURVE SMOOTH",
"428 278 OFFCURVE",
"392 233 OFFCURVE",
"323 233 CURVE {name = hr00;}",
"212 233 LINE"
);
}
);
width = 596;
},
{
layerId = "2D07D9D6-DD7A-4EF1-82E8-8B18836F0AAC";
paths = (
{
closed = 1;
nodes = (
"256 0 LINE",
"256 72 LINE",
"290 72 LINE SMOOTH",
"488 72 OFFCURVE",
"591 129 OFFCURVE",
"591 339 CURVE SMOOTH",
"591 549 OFFCURVE",
"487 600 OFFCURVE",
"290 600 CURVE SMOOTH",
"256 600 LINE",
"256 670 LINE",
"30 670 LINE",
"30 0 LINE"
);
},
{
closed = 1;
nodes = (
"256 417 LINE",
"280 417 LINE SMOOTH",
"341 417 OFFCURVE",
"363 402 OFFCURVE",
"363 338 CURVE SMOOTH",
"363 277 OFFCURVE",
"340 255 OFFCURVE",
"280 255 CURVE SMOOTH",
"256 255 LINE"
);
}
);
width = 611;
}
);
leftKerningGroup = I;
unicode = 00DE;
},
{
glyphname = Q;
layers = (
{
layerId = "F1BADE0A-D307-4A55-B1D9-DEBA981FCD10";
paths = (
{
closed = 1;
nodes = (
"566 -121 LINE",
"480 19 LINE",
"574 67 OFFCURVE",
"601 174 OFFCURVE",
"601 347 CURVE SMOOTH",
"601 577 OFFCURVE",
"547 709 OFFCURVE",
"333 709 CURVE SMOOTH",
"119 709 OFFCURVE",
"65 575 OFFCURVE",
"65 347 CURVE SMOOTH",
"65 115 OFFCURVE",
"117 -9 OFFCURVE",
"333 -9 CURVE SMOOTH",
"376 -9 OFFCURVE",
"412 -4 OFFCURVE",
"443 5 CURVE",
"530 -138 LINE {name = hr00;}"
);
},
{
closed = 1;
nodes = (
"140 25 OFFCURVE",
"103 137 OFFCURVE",
"103 347 CURVE SMOOTH",
"103 556 OFFCURVE",
"143 675 OFFCURVE",
"333 675 CURVE SMOOTH",
"521 675 OFFCURVE",
"563 554 OFFCURVE",
"563 347 CURVE SMOOTH",
"563 127 OFFCURVE",
"526 25 OFFCURVE",
"333 25 CURVE SMOOTH"
);
}
);
width = 666;
},
{
layerId = "D02A7F20-5372-446E-84B7-8F4B885083B2";
paths = (
{
closed = 1;
nodes = (
"586 -97 LINE",
"503 37 LINE",
"578 92 OFFCURVE",
"608 188 OFFCURVE",
"608 336 CURVE SMOOTH",
"608 566 OFFCURVE",
"540 692 OFFCURVE",
"326 692 CURVE SMOOTH",
"112 692 OFFCURVE",
"44 566 OFFCURVE",
"44 336 CURVE SMOOTH",
"44 104 OFFCURVE",
"112 -12 OFFCURVE",
"326 -12 CURVE SMOOTH",
"341 -12 OFFCURVE",
"363 -11 OFFCURVE",
"370 -9 CURVE",
"460 -156 LINE {name = hr00;}"
);
},
{
closed = 1;
nodes = (
"214 108 OFFCURVE",
"186 177 OFFCURVE",
"186 336 CURVE SMOOTH",
"186 493 OFFCURVE",
"214 572 OFFCURVE",
"326 572 CURVE SMOOTH",
"438 572 OFFCURVE",
"466 493 OFFCURVE",
"466 336 CURVE SMOOTH",
"466 177 OFFCURVE",
"438 108 OFFCURVE",
"326 108 CURVE SMOOTH"
);
}
);
width = 652;
},
{
layerId = "2D07D9D6-DD7A-4EF1-82E8-8B18836F0AAC";
paths = (
{
closed = 1;
nodes = (
"635 -71 LINE",
"555 48 LINE",
"621 103 OFFCURVE",
"651 196 OFFCURVE",
"651 335 CURVE SMOOTH",
"651 582 OFFCURVE",
"557 683 OFFCURVE",
"332 683 CURVE SMOOTH",
"107 683 OFFCURVE",
"16 582 OFFCURVE",
"16 335 CURVE SMOOTH",
"16 88 OFFCURVE",
"110 -13 OFFCURVE",
"332 -13 CURVE SMOOTH",
"342 -13 OFFCURVE",
"352 -13 OFFCURVE",
"361 -12 CURVE",
"459 -158 LINE"
);
},
{
closed = 1;
nodes = (
"260 175 OFFCURVE",
"244 233 OFFCURVE",
"244 335 CURVE SMOOTH",
"244 437 OFFCURVE",
"260 495 OFFCURVE",
"332 495 CURVE SMOOTH",
"407 495 OFFCURVE",
"417 437 OFFCURVE",
"417 335 CURVE SMOOTH",
"417 234 OFFCURVE",
"406 175 OFFCURVE",
"332 175 CURVE SMOOTH"
);
}
);
width = 667;
},
{
associatedMasterId = "2D07D9D6-DD7A-4EF1-82E8-8B18836F0AAC";
layerId = "18CF9254-3BE0-422D-A775-50EA3F1CD50C";
name = "Apr 14 18, 13:25";
paths = (
{
closed = 1;
nodes = (
"557 -13 OFFCURVE",
"651 88 OFFCURVE",
"651 335 CURVE SMOOTH",
"651 582 OFFCURVE",
"557 683 OFFCURVE",
"332 683 CURVE SMOOTH",
"107 683 OFFCURVE",
"16 582 OFFCURVE",
"16 335 CURVE SMOOTH",
"16 88 OFFCURVE",
"110 -13 OFFCURVE",
"332 -13 CURVE SMOOTH"
);
},
{
closed = 1;
nodes = (
"635 -71 LINE",
"529 87 LINE",
"353 0 LINE",
"459 -158 LINE {name = hr00;}"
);
},
{
closed = 1;
nodes = (
"260 175 OFFCURVE",
"244 233 OFFCURVE",
"244 335 CURVE SMOOTH",
"244 437 OFFCURVE",
"260 495 OFFCURVE",
"332 495 CURVE SMOOTH",
"407 495 OFFCURVE",
"417 437 OFFCURVE",
"417 335 CURVE SMOOTH",
"417 234 OFFCURVE",
"406 175 OFFCURVE",
"332 175 CURVE SMOOTH"
);
}
);
width = 667;
}
);
leftKerningGroup = O;
rightKerningGroup = O;
unicode = 0051;
},
{
glyphname = R;
layers = (
{
layerId = "F1BADE0A-D307-4A55-B1D9-DEBA981FCD10";
paths = (
{
closed = 1;
nodes = (
"128 0 LINE",
"128 290 LINE {name = hr00;}",
"367 290 LINE",
"523 0 LINE",
"564 0 LINE",
"406 295 LINE",
"510 315 OFFCURVE",
"551 392 OFFCURVE",
"551 500 CURVE SMOOTH",
"551 640 OFFCURVE",
"482 700 OFFCURVE",
"343 700 CURVE",
"92 700 LINE",
"92 0 LINE"
);
},
{
closed = 1;
nodes = (
"128 666 LINE",
"343 666 LINE SMOOTH",
"460 666 OFFCURVE",
"513 616 OFFCURVE",
"513 500 CURVE SMOOTH",
"513 396 OFFCURVE",
"470 324 OFFCURVE",
"343 324 CURVE",
"128 324 LINE"
);
}
);
width = 613;
},
{
layerId = "D02A7F20-5372-446E-84B7-8F4B885083B2";
paths = (
{
closed = 1;
nodes = (
"212 0 LINE",
"212 228 LINE {name = hr00;}",
"345 228 LINE",
"424 0 LINE",
"575 0 LINE",
"478 260 LINE",
"540 299 OFFCURVE",
"578 362 OFFCURVE",
"578 456 CURVE SMOOTH",
"578 611 OFFCURVE",
"493 680 OFFCURVE",
"338 680 CURVE",
"74 680 LINE",
"74 0 LINE"
);
},
{
closed = 1;
nodes = (
"212 562 LINE",
"338 562 LINE SMOOTH",
"404 562 OFFCURVE",
"437 519 OFFCURVE",
"437 454 CURVE SMOOTH",
"437 394 OFFCURVE",
"409 346 OFFCURVE",
"340 346 CURVE",
"212 346 LINE"
);
}
);
width = 620;
},
{
layerId = "2D07D9D6-DD7A-4EF1-82E8-8B18836F0AAC";
paths = (
{
closed = 1;
nodes = (
"262 0 LINE",
"262 173 LINE",
"320 173 LINE",
"357 0 LINE",
"593 0 LINE",
"527 228 LINE",
"575 267 OFFCURVE",
"601 329 OFFCURVE",
"601 423 CURVE SMOOTH",
"601 624 OFFCURVE",
"507 670 OFFCURVE",
"312 670 CURVE SMOOTH",
"30 670 LINE",
"30 0 LINE"
);
},
{
closed = 1;
nodes = (
"261 487 LINE",
"312 487 LINE SMOOTH",
"350 487 OFFCURVE",
"367 465 OFFCURVE",
"367 423 CURVE SMOOTH",
"367 381 OFFCURVE",
"351 356 OFFCURVE",
"318 356 CURVE SMOOTH",
"261 356 LINE"
);
}
);
width = 617;
},
{
associatedMasterId = "2D07D9D6-DD7A-4EF1-82E8-8B18836F0AAC";
layerId = "EC6AA774-B2FB-4E52-A7E0-8F1A7B37EAC6";
name = "Apr 14 18, 13:27";
paths = (
{
closed = 1;
nodes = (
"262 0 LINE",
"262 173 LINE",
"318 173 LINE {name = hr00;}",
"338 356 LINE",
"261 356 LINE",
"261 487 LINE",
"312 487 LINE SMOOTH",
"350 487 OFFCURVE",
"367 465 OFFCURVE",
"367 423 CURVE SMOOTH",
"367 381 OFFCURVE",
"351 356 OFFCURVE",
"318 356 CURVE",
"318 173 LINE",
"499 173 OFFCURVE",
"601 236 OFFCURVE",
"601 423 CURVE SMOOTH",
"601 624 OFFCURVE",
"507 670 OFFCURVE",
"312 670 CURVE SMOOTH",
"30 670 LINE",
"30 0 LINE"
);
},
{
closed = 1;
nodes = (
"593 0 LINE",
"522 246 LINE",
"318 181 LINE",
"357 0 LINE"
);
}
);
width = 617;
}
);
leftKerningGroup = I;
rightKerningGroup = R;
unicode = 0052;
},
{
glyphname = S;
layers = (
{
layerId = "F1BADE0A-D307-4A55-B1D9-DEBA981FCD10";
paths = (
{
closed = 1;
nodes = (
"412 -7 OFFCURVE",
"486 47 OFFCURVE",
"486 203 CURVE SMOOTH",
"486 329 OFFCURVE",
"414.004 359.023 OFFCURVE",
"282 380 CURVE SMOOTH",
"156.004 400.023 OFFCURVE",
"94 415 OFFCURVE",
"94 537 CURVE SMOOTH",
"94 637 OFFCURVE",
"158 677 OFFCURVE",
"272 677 CURVE SMOOTH",
"314 677 OFFCURVE",
"408 667 OFFCURVE",
"467 660 CURVE",
"471 695 LINE {name = hr00;}",
"419 702 OFFCURVE",
"328 711 OFFCURVE",
"272 711 CURVE SMOOTH",
"139 711 OFFCURVE",
"56 664 OFFCURVE",
"56 535 CURVE SMOOTH",
"56 388 OFFCURVE",
"136.012 365.075 OFFCURVE",
"273 344 CURVE SMOOTH",
"396.012 325.075 OFFCURVE",
"448 302 OFFCURVE",
"448 200 CURVE SMOOTH",
"448 75 OFFCURVE",
"387 27 OFFCURVE",
"273 27 CURVE SMOOTH",
"221 27 OFFCURVE",
"123 37 OFFCURVE",
"64 44 CURVE",
"60 9 LINE",
"120 2 OFFCURVE",
"219 -7 OFFCURVE",
"274 -7 CURVE SMOOTH"
);
}
);
width = 540;
},
{
layerId = "D02A7F20-5372-446E-84B7-8F4B885083B2";
paths = (
{
closed = 1;
nodes = (
"406 -12 OFFCURVE",
"507 57 OFFCURVE",
"507 205 CURVE SMOOTH",
"507 318 OFFCURVE",
"462.073 359.23 OFFCURVE",
"315 406 CURVE SMOOTH",
"201.073 442.23 OFFCURVE",
"174 457 OFFCURVE",
"174 500 CURVE SMOOTH",
"174 545 OFFCURVE",
"209 572 OFFCURVE",
"283 572 CURVE SMOOTH",
"325 572 OFFCURVE",
"421 563 OFFCURVE",
"482 556 CURVE",
"493 665 LINE {name = hr00;}",
"436 677 OFFCURVE",
"335 692 OFFCURVE",
"269 692 CURVE SMOOTH",
"131 692 OFFCURVE",
"37 631 OFFCURVE",
"37 490 CURVE SMOOTH",
"37 381 OFFCURVE",
"94.97 328.897 OFFCURVE",
"248 285 CURVE SMOOTH",
"345.97 256.897 OFFCURVE",
"370 238 OFFCURVE",
"370 196 CURVE SMOOTH",
"370 143 OFFCURVE",
"338 108 OFFCURVE",
"264 108 CURVE SMOOTH",
"212 108 OFFCURVE",
"117 118 OFFCURVE",
"59 126 CURVE",
"45 19 LINE",
"103 6 OFFCURVE",
"204 -12 OFFCURVE",
"272 -12 CURVE SMOOTH"
);
}
);
width = 544;
},
{
layerId = "2D07D9D6-DD7A-4EF1-82E8-8B18836F0AAC";
paths = (
{
closed = 1;
nodes = (
"474 -14 OFFCURVE",
"568 45 OFFCURVE",
"568 216 CURVE SMOOTH",
"568 373 OFFCURVE",
"512 398 OFFCURVE",
"321 441 CURVE SMOOTH",
"257 455 OFFCURVE",
"250 460 OFFCURVE",
"250 474 CURVE SMOOTH",
"250 488 OFFCURVE",
"260 492 OFFCURVE",
"301 492 CURVE SMOOTH",
"373 492 OFFCURVE",
"479 483 OFFCURVE",
"540 477 CURVE",
"546 657 LINE {name = hr00;}",
"478 668 OFFCURVE",
"359 683 OFFCURVE",
"281 683 CURVE SMOOTH",
"115 683 OFFCURVE",
"16 639 OFFCURVE",
"16 448 CURVE SMOOTH",
"16 308 OFFCURVE",
"69 256 OFFCURVE",
"257 227 CURVE SMOOTH",
"327 216 OFFCURVE",
"334 214 OFFCURVE",
"334 200 CURVE SMOOTH",
"334 184 OFFCURVE",
"322 177 OFFCURVE",
"282 177 CURVE SMOOTH",
"210 177 OFFCURVE",
"97 190 OFFCURVE",
"31 199 CURVE",
"21 22 LINE",
"81 7 OFFCURVE",
"199 -14 OFFCURVE",
"303 -14 CURVE SMOOTH"
);
}
);
width = 578;
}
);
leftKerningGroup = S;
rightKerningGroup = S;
unicode = 0053;
},
{
glyphname = Scommaaccent;
layers = (
{
components = (
{
name = S;
}
);
layerId = "F1BADE0A-D307-4A55-B1D9-DEBA981FCD10";
paths = (
{
closed = 1;
nodes = (
"263 -267 LINE",
"309 -78 LINE",
"272 -78 LINE {name = hr00;}",
"235 -267 LINE"
);
}
);
width = 540;
},
{
components = (
{
name = S;
}
);
layerId = "D02A7F20-5372-446E-84B7-8F4B885083B2";
paths = (
{
closed = 1;
nodes = (
"290 -311 LINE",
"345 -77 LINE",
"215 -77 LINE {name = hr00;}",
"169 -311 LINE"
);
}
);
width = 544;
},
{
components = (
{
name = S;
}
);
layerId = "2D07D9D6-DD7A-4EF1-82E8-8B18836F0AAC";
paths = (
{
closed = 1;
nodes = (
"342 -260 LINE",
"404 -45 LINE",
"200 -45 LINE",
"180 -260 LINE"
);
}
);
width = 578;
}
);
leftKerningGroup = S;
rightKerningGroup = S;
unicode = 0218;
},
{
glyphname = T;
layers = (
{
layerId = "F1BADE0A-D307-4A55-B1D9-DEBA981FCD10";
paths = (
{
closed = 1;
nodes = (
"282 0 LINE",
"282 666 LINE",
"513 666 LINE",
"513 700 LINE",
"13 700 LINE",
"13 666 LINE {name = hr00;}",
"246 666 LINE",
"246 0 LINE"
);
}
);
width = 526;
},
{
layerId = "D02A7F20-5372-446E-84B7-8F4B885083B2";
paths = (
{
closed = 1;
nodes = (
"333 0 LINE",
"333 558 LINE",
"513 558 LINE",
"513 680 LINE",
"13 680 LINE",
"13 558 LINE {name = hr00;}",
"195 558 LINE",
"195 0 LINE"
);
}
);
width = 526;
},
{
layerId = "2D07D9D6-DD7A-4EF1-82E8-8B18836F0AAC";
paths = (
{
closed = 1;
nodes = (
"379 0 LINE",
"379 481 LINE",
"509 481 LINE",
"509 670 LINE",
"9 670 LINE",
"9 481 LINE {name = hr00;}",
"147 481 LINE",
"147 0 LINE"
);
}
);
width = 519;
}
);
leftKerningGroup = T;
rightKerningGroup = T;
unicode = 0054;
},
{
glyphname = Tbar;
layers = (
{
components = (
{
name = T;
transform = "{1, 0, 0, 1, 2, 0}";
}
);
layerId = "F1BADE0A-D307-4A55-B1D9-DEBA981FCD10";
paths = (
{
closed = 1;
nodes = (
"465 332 LINE",
"465 364 LINE",
"65 364 LINE",
"65 332 LINE {name = hr00;}"
);
}
);
width = 530;
},
{
components = (
{
name = T;
transform = "{1, 0, 0, 1, 1, 0}";
}
);
layerId = "D02A7F20-5372-446E-84B7-8F4B885083B2";
paths = (
{
closed = 1;
nodes = (
"473 253 LINE",
"473 369 LINE",
"64 369 LINE",
"64 253 LINE {name = hr00;}"
);
}
);
width = 528;
},
{
components = (
{
name = T;
}
);
layerId = "2D07D9D6-DD7A-4EF1-82E8-8B18836F0AAC";
paths = (
{
closed = 1;
nodes = (
"426 190 LINE",
"426 327 LINE",
"100 327 LINE",
"100 190 LINE"
);
}
);
width = 519;
}
);
leftKerningGroup = T;
rightKerningGroup = T;
unicode = 0166;
},
{
glyphname = Tcommaaccent;
layers = (
{
components = (
{
name = T;
}
);
layerId = "F1BADE0A-D307-4A55-B1D9-DEBA981FCD10";
paths = (
{
closed = 1;
nodes = (
"253 -267 LINE",
"299 -78 LINE",
"262 -78 LINE {name = hr00;}",
"225 -267 LINE"
);
}
);
width = 526;
},
{
components = (
{
name = T;
}
);
layerId = "D02A7F20-5372-446E-84B7-8F4B885083B2";
paths = (
{
closed = 1;
nodes = (
"298 -311 LINE",
"353 -77 LINE",
"223 -77 LINE {name = hr00;}",
"177 -311 LINE"
);
}
);
width = 526;
},
{
components = (
{
name = T;
}
);
layerId = "2D07D9D6-DD7A-4EF1-82E8-8B18836F0AAC";
paths = (
{
closed = 1;
nodes = (
"303 -260 LINE",
"365 -45 LINE",
"161 -45 LINE",
"141 -260 LINE"
);
}
);
width = 519;
}
);
leftKerningGroup = T;
rightKerningGroup = T;
unicode = 021A;
},
{
glyphname = U;
layers = (
{
layerId = "F1BADE0A-D307-4A55-B1D9-DEBA981FCD10";
paths = (
{
closed = 1;
nodes = (
"464 -9 OFFCURVE",
"550 46 OFFCURVE",
"550 196 CURVE SMOOTH",
"550 700 LINE",
"514 700 LINE",
"514 196 LINE",
"514 69 OFFCURVE",
"440 25 OFFCURVE",
"314 25 CURVE SMOOTH",
"197 25 OFFCURVE",
"124 70 OFFCURVE",
"124 196 CURVE {name = hr00;}",
"124 700 LINE",
"88 700 LINE",
"88 196 LINE",
"88 45 OFFCURVE",
"174 -9 OFFCURVE",
"314 -9 CURVE SMOOTH"
);
}
);
width = 638;
},
{
layerId = "D02A7F20-5372-446E-84B7-8F4B885083B2";
paths = (
{
closed = 1;
nodes = (
"497 -12 OFFCURVE",
"586 60 OFFCURVE",
"586 230 CURVE SMOOTH",
"586 680 LINE",
"448 680 LINE",
"448 227 LINE",
"448 147 OFFCURVE",
"408 108 OFFCURVE",
"327 108 CURVE SMOOTH",
"246 108 OFFCURVE",
"206 146 OFFCURVE",
"206 227 CURVE {name = hr00;}",
"206 680 LINE",
"68 680 LINE",
"68 230 LINE",
"68 60 OFFCURVE",
"157 -12 OFFCURVE",
"327 -12 CURVE SMOOTH"
);
}
);
width = 654;
},
{
layerId = "2D07D9D6-DD7A-4EF1-82E8-8B18836F0AAC";
paths = (
{
closed = 1;
nodes = (
"516 -13 OFFCURVE",
"615 49 OFFCURVE",
"615 244 CURVE SMOOTH",
"615 670 LINE",
"383 670 LINE",
"383 231 LINE SMOOTH",
"383 193 OFFCURVE",
"367 178 OFFCURVE",
"321 178 CURVE SMOOTH",
"275 178 OFFCURVE",
"258 193 OFFCURVE",
"258 231 CURVE SMOOTH",
"258 670 LINE {name = hr00;}",
"26 670 LINE",
"26 240 LINE SMOOTH",
"26 45 OFFCURVE",
"126 -13 OFFCURVE",
"321 -13 CURVE SMOOTH"
);
}
);
width = 641;
}
);
leftKerningGroup = U;
rightKerningGroup = U;
unicode = 0055;
},
{
glyphname = V;
layers = (
{
layerId = "F1BADE0A-D307-4A55-B1D9-DEBA981FCD10";
paths = (
{
closed = 1;
nodes = (
"342 0 LINE",
"538 700 LINE {name = hr00;}",
"502 700 LINE",
"316 34 LINE",
"252 34 LINE",
"66 700 LINE",
"30 700 LINE",
"226 0 LINE"
);
}
);
width = 568;
},
{
layerId = "D02A7F20-5372-446E-84B7-8F4B885083B2";
paths = (
{
closed = 1;
nodes = (
"429 0 LINE",
"587 680 LINE {name = hr00;}",
"442 680 LINE",
"324 120 LINE",
"279 120 LINE",
"161 680 LINE",
"16 680 LINE",
"174 0 LINE"
);
}
);
width = 603;
},
{
layerId = "2D07D9D6-DD7A-4EF1-82E8-8B18836F0AAC";
paths = (
{
closed = 1;
nodes = (
"471 0 LINE",
"602 670 LINE {name = hr00;}",
"356 670 LINE",
"309 234 LINE",
"291 234 LINE",
"239 670 LINE",
"-7 670 LINE",
"129 0 LINE"
);
}
);
width = 598;
}
);
unicode = 0056;
},
{
glyphname = W;
layers = (
{
layerId = "F1BADE0A-D307-4A55-B1D9-DEBA981FCD10";
paths = (
{
closed = 1;
nodes = (
"281 0 LINE",
"432 656 LINE",
"424 656 LINE",
"575 0 LINE",
"671 0 LINE",
"818 700 LINE",
"782 700 LINE",
"642 34 LINE",
"603 34 LINE",
"450 690 LINE",
"406 690 LINE",
"253 34 LINE",
"214 34 LINE",
"74 700 LINE",
"38 700 LINE {name = hr00;}",
"185 0 LINE"
);
}
);
width = 856;
},
{
layerId = "D02A7F20-5372-446E-84B7-8F4B885083B2";
paths = (
{
closed = 1;
nodes = (
"358 0 LINE",
"477 577 LINE",
"453 577 LINE",
"572 0 LINE",
"781 0 LINE",
"911 680 LINE",
"766 680 LINE",
"682 118 LINE",
"667 118 LINE",
"545 680 LINE",
"385 680 LINE",
"263 118 LINE",
"248 118 LINE",
"164 680 LINE",
"19 680 LINE {name = hr00;}",
"149 0 LINE"
);
}
);
width = 930;
},
{
layerId = "2D07D9D6-DD7A-4EF1-82E8-8B18836F0AAC";
paths = (
{
closed = 1;
nodes = (
"416 0 LINE",
"450 413 LINE",
"460 413 LINE",
"493 0 LINE",
"832 0 LINE",
"906 670 LINE",
"673 670 LINE",
"653 234 LINE",
"635 234 LINE",
"585 660 LINE",
"332 660 LINE",
"287 234 LINE",
"269 234 LINE",
"237 670 LINE",
"6 670 LINE {name = hr00;}",
"85 0 LINE"
);
}
);
width = 915;
}
);
leftKerningGroup = W;
rightKerningGroup = W;
unicode = 0057;
},
{
glyphname = X;
layers = (
{
layerId = "F1BADE0A-D307-4A55-B1D9-DEBA981FCD10";
paths = (
{
closed = 1;
nodes = (
"68 0 LINE",
"277 322 LINE",
"483 0 LINE",
"526 0 LINE",
"303 347 LINE",
"526 700 LINE",
"483 700 LINE",
"276 374 LINE",
"68 700 LINE {name = hr00;}",
"25 700 LINE",
"251 347 LINE",
"25 0 LINE"
);
}
);
width = 551;
},
{
layerId = "D02A7F20-5372-446E-84B7-8F4B885083B2";
paths = (
{
closed = 1;
nodes = (
"152 0 LINE",
"281 235 LINE",
"407 0 LINE",
"560 0 LINE",
"364 333 LINE",
"560 680 LINE",
"417 680 LINE",
"288 430 LINE",
"162 680 LINE {name = hr00;}",
"9 680 LINE",
"205 326 LINE",
"9 0 LINE"
);
}
);
width = 569;
},
{
layerId = "2D07D9D6-DD7A-4EF1-82E8-8B18836F0AAC";
paths = (
{
closed = 1;
nodes = (
"228 0 LINE",
"289 178 LINE",
"348 0 LINE {name = hr01;}",
"586 0 LINE",
"450 351 LINE",
"595 670 LINE",
"367 670 LINE {name = hr02;}",
"289 486 LINE",
"228 670 LINE {name = hr00;}",
"-8 670 LINE",
"135 321 LINE",
"-8 0 LINE"
);
}
);
width = 583;
}
);
unicode = 0058;
},
{
glyphname = Y;
layers = (
{
layerId = "F1BADE0A-D307-4A55-B1D9-DEBA981FCD10";
paths = (
{
closed = 1;
nodes = (
"281 0 LINE",
"281 301 LINE {name = hr00;}",
"509 700 LINE",
"467 700 LINE",
"263 341 LINE",
"59 700 LINE",
"17 700 LINE",
"245 301 LINE",
"245 0 LINE"
);
}
);
width = 526;
},
{
layerId = "D02A7F20-5372-446E-84B7-8F4B885083B2";
paths = (
{
closed = 1;
nodes = (
"348 0 LINE",
"348 275 LINE {name = hr00;}",
"556 680 LINE",
"403 680 LINE",
"278 409 LINE",
"153 680 LINE",
"0 680 LINE",
"210 275 LINE",
"210 0 LINE"
);
}
);
width = 557;
},
{
layerId = "2D07D9D6-DD7A-4EF1-82E8-8B18836F0AAC";
paths = (
{
closed = 1;
nodes = (
"410 0 LINE",
"410 210 LINE {name = hr00;}",
"606 670 LINE",
"361 670 LINE",
"296 473 LINE",
"233 670 LINE",
"-13 670 LINE",
"178 210 LINE",
"178 0 LINE"
);
}
);
width = 590;
}
);
leftKerningGroup = Y;
rightKerningGroup = Y;
unicode = 0059;
},
{
glyphname = Z;
layers = (
{
layerId = "F1BADE0A-D307-4A55-B1D9-DEBA981FCD10";
paths = (
{
closed = 1;
nodes = (
"494 -1 LINE",
"494 33 LINE",
"81 33 LINE",
"81 55 LINE",
"494 630 LINE",
"494 700 LINE",
"44 700 LINE",
"44 666 LINE {name = hr00;}",
"457 666 LINE",
"457 642 LINE",
"44 68 LINE",
"44 -1 LINE"
);
}
);
width = 539;
},
{
layerId = "D02A7F20-5372-446E-84B7-8F4B885083B2";
paths = (
{
closed = 1;
nodes = (
"491 0 LINE",
"491 120 LINE",
"207 120 LINE",
"207 138 LINE",
"491 560 LINE",
"491 680 LINE",
"41 680 LINE",
"41 560 LINE {name = hr00;}",
"325 560 LINE",
"325 542 LINE",
"41 119 LINE",
"41 0 LINE"
);
}
);
width = 532;
},
{
layerId = "2D07D9D6-DD7A-4EF1-82E8-8B18836F0AAC";
paths = (
{
closed = 1;
nodes = (
"549 0 LINE",
"549 189 LINE",
"332 189 LINE",
"332 206 LINE",
"549 481 LINE",
"549 670 LINE",
"19 670 LINE",
"19 481 LINE {name = hr00;}",
"241 481 LINE",
"241 464 LINE",
"19 180 LINE",
"19 0 LINE"
);
}
);
width = 569;
}
);
leftKerningGroup = Z;
rightKerningGroup = Z;
unicode = 005A;
},
{
glyphname = a;
layers = (
{
layerId = "F1BADE0A-D307-4A55-B1D9-DEBA981FCD10";
paths = (
{
closed = 1;
nodes = (
"252 -9 OFFCURVE",
"337 16 OFFCURVE",
"381 34 CURVE",
"391 20 OFFCURVE",
"405 10 OFFCURVE",
"421 3 CURVE SMOOTH",
"439 -5 OFFCURVE",
"461 -8 OFFCURVE",
"484 -8 CURVE",
"486 23 LINE",
"451 26 OFFCURVE",
"414 36 OFFCURVE",
"411 65 CURVE",
"411 353 LINE SMOOTH {name = hr00;}",
"411 456 OFFCURVE",
"366 509 OFFCURVE",
"265 509 CURVE SMOOTH",
"207 509 OFFCURVE",
"121 499 OFFCURVE",
"73 491 CURVE",
"76 458 LINE",
"126 465 OFFCURVE",
"212 475 OFFCURVE",
"265 475 CURVE SMOOTH",
"338 475 OFFCURVE",
"376 440 OFFCURVE",
"376 353 CURVE SMOOTH",
"376 301 LINE",
"186 281 LINE SMOOTH",
"88 271 OFFCURVE",
"48 222 OFFCURVE",
"48 137 CURVE SMOOTH",
"48 40 OFFCURVE",
"97 -9 OFFCURVE",
"179 -9 CURVE SMOOTH"
);
},
{
closed = 1;
nodes = (
"119 23 OFFCURVE",
"85 64 OFFCURVE",
"85 137 CURVE SMOOTH",
"85 206 OFFCURVE",
"112 242 OFFCURVE",
"190 250 CURVE SMOOTH",
"376 269 LINE",
"376 64 LINE",
"332 46 OFFCURVE",
"249 23 OFFCURVE",
"180 23 CURVE SMOOTH"
);
}
);
width = 495;
},
{
layerId = "D02A7F20-5372-446E-84B7-8F4B885083B2";
paths = (
{
closed = 1;
nodes = (
"239 -12 OFFCURVE",
"300 8 OFFCURVE",
"331 23 CURVE",
"350 10 OFFCURVE",
"367 2 OFFCURVE",
"387 -3 CURVE",
"411 -10 OFFCURVE",
"437 -12 OFFCURVE",
"474 -12 CURVE",
"478 89 LINE",
"451 94 OFFCURVE",
"447 106 OFFCURVE",
"445 136 CURVE",
"445 344 LINE SMOOTH {name = hr00;}",
"445 461 OFFCURVE",
"393 512 OFFCURVE",
"263 512 CURVE SMOOTH",
"193 512 OFFCURVE",
"106 495 OFFCURVE",
"60 483 CURVE",
"64 390 LINE",
"116 393 OFFCURVE",
"204 398 OFFCURVE",
"252 398 CURVE SMOOTH",
"292 398 OFFCURVE",
"311 387 OFFCURVE",
"311 344 CURVE SMOOTH",
"311 313 LINE",
"204 305 LINE SMOOTH",
"94 297 OFFCURVE",
"29 265 OFFCURVE",
"29 152 CURVE SMOOTH",
"29 46 OFFCURVE",
"79 -12 OFFCURVE",
"184 -12 CURVE SMOOTH"
);
},
{
closed = 1;
nodes = (
"177 97 OFFCURVE",
"164 121 OFFCURVE",
"164 156 CURVE SMOOTH",
"164 192 OFFCURVE",
"185 209 OFFCURVE",
"220 212 CURVE SMOOTH",
"311 220 LINE",
"311 113 LINE",
"287 106 OFFCURVE",
"244 97 OFFCURVE",
"213 97 CURVE SMOOTH"
);
}
);
width = 511;
},
{
layerId = "2D07D9D6-DD7A-4EF1-82E8-8B18836F0AAC";
paths = (
{
closed = 1;
nodes = (
"255 -13 OFFCURVE",
"312 7 OFFCURVE",
"339 22 CURVE",
"349 7 OFFCURVE",
"382 -13 OFFCURVE",
"436 -13 CURVE SMOOTH",
"454 -13 OFFCURVE",
"505 -6 OFFCURVE",
"539 -1 CURVE",
"542 141 LINE",
"535 143 OFFCURVE",
"522 149 OFFCURVE",
"518 152 CURVE",
"518 342 LINE SMOOTH {name = hr00;}",
"518 487 OFFCURVE",
"418 518 OFFCURVE",
"273 518 CURVE SMOOTH",
"193 518 OFFCURVE",
"89 498 OFFCURVE",
"32 483 CURVE",
"37 331 LINE",
"91 337 OFFCURVE",
"186 344 OFFCURVE",
"251 344 CURVE SMOOTH",
"277 344 OFFCURVE",
"294 339 OFFCURVE",
"294 325 CURVE SMOOTH",
"294 316 LINE",
"222 313 LINE SMOOTH",
"92.017 307.584 OFFCURVE",
"10 288 OFFCURVE",
"10 157 CURVE SMOOTH",
"10 38 OFFCURVE",
"69 -13 OFFCURVE",
"195 -13 CURVE SMOOTH"
);
},
{
closed = 1;
nodes = (
"240 141 OFFCURVE",
"234 149 OFFCURVE",
"234 163 CURVE SMOOTH",
"234 179 OFFCURVE",
"244 190 OFFCURVE",
"260 191 CURVE SMOOTH",
"294 193 LINE",
"294 156 LINE",
"287 150 OFFCURVE",
"271 141 OFFCURVE",
"256 141 CURVE SMOOTH"
);
}
);
width = 557;
},
{
associatedMasterId = "F1BADE0A-D307-4A55-B1D9-DEBA981FCD10";
layerId = "E03D913C-83B0-4235-938D-B9001D76063F";
name = "Apr 14 18, 14:49";
paths = (
{
closed = 1;
nodes = (
"252 -9 OFFCURVE",
"337 16 OFFCURVE",
"381 34 CURVE",
"403 3 OFFCURVE",
"441 -8 OFFCURVE",
"484 -8 CURVE",
"486 23 LINE",
"451 26 OFFCURVE",
"414 36 OFFCURVE",
"411 65 CURVE",
"411 353 LINE {name = hr00;}",
"411 456 OFFCURVE",
"366 509 OFFCURVE",
"265 509 CURVE SMOOTH",
"207 509 OFFCURVE",
"121 499 OFFCURVE",
"73 491 CURVE",
"76 458 LINE",
"126 465 OFFCURVE",
"212 475 OFFCURVE",
"265 475 CURVE SMOOTH",
"338 475 OFFCURVE",
"376 440 OFFCURVE",
"376 353 CURVE SMOOTH",
"376 301 LINE",
"186 281 LINE",
"88 271 OFFCURVE",
"48 222 OFFCURVE",
"48 137 CURVE SMOOTH",
"48 40 OFFCURVE",
"97 -9 OFFCURVE",
"179 -9 CURVE SMOOTH"
);
},
{
closed = 1;
nodes = (
"119 23 OFFCURVE",
"85 64 OFFCURVE",
"85 137 CURVE SMOOTH",
"85 206 OFFCURVE",
"112 242 OFFCURVE",
"190 250 CURVE SMOOTH",
"376 269 LINE",
"376 64 LINE",
"332 46 OFFCURVE",
"249 23 OFFCURVE",
"180 23 CURVE SMOOTH"
);
}
);
width = 495;
},
{
associatedMasterId = "D02A7F20-5372-446E-84B7-8F4B885083B2";
layerId = "4BFBEE63-9B61-49A4-B243-0832D582887F";
name = "Apr 14 18, 14:49";
paths = (
{
closed = 1;
nodes = (
"239 -12 OFFCURVE",
"300 8 OFFCURVE",
"331 23 CURVE",
"373 -5 OFFCURVE",
"407 -12 OFFCURVE",
"474 -12 CURVE",
"478 89 LINE",
"451 94 OFFCURVE",
"447 106 OFFCURVE",
"445 136 CURVE",
"445 344 LINE {name = hr00;}",
"445 461 OFFCURVE",
"393 512 OFFCURVE",
"263 512 CURVE SMOOTH",
"193 512 OFFCURVE",
"106 495 OFFCURVE",
"60 483 CURVE",
"64 390 LINE",
"116 393 OFFCURVE",
"204 398 OFFCURVE",
"252 398 CURVE SMOOTH",
"292 398 OFFCURVE",
"311 387 OFFCURVE",
"311 344 CURVE SMOOTH",
"311 313 LINE",
"204 305 LINE",
"94 297 OFFCURVE",
"29 265 OFFCURVE",
"29 152 CURVE SMOOTH",
"29 46 OFFCURVE",
"79 -12 OFFCURVE",
"184 -12 CURVE SMOOTH"
);
},
{
closed = 1;
nodes = (
"177 97 OFFCURVE",
"164 121 OFFCURVE",
"164 156 CURVE SMOOTH",
"164 192 OFFCURVE",
"185 209 OFFCURVE",
"220 212 CURVE SMOOTH",
"311 220 LINE",
"311 113 LINE",
"287 106 OFFCURVE",
"244 97 OFFCURVE",
"213 97 CURVE SMOOTH"
);
}
);
width = 511;
}
);
leftKerningGroup = a;
rightKerningGroup = a;
unicode = 0061;
},
{
glyphname = ae;
layers = (
{
layerId = "F1BADE0A-D307-4A55-B1D9-DEBA981FCD10";
paths = (
{
closed = 1;
nodes = (
"263 -9 OFFCURVE",
"336 13 OFFCURVE",
"419 49 CURVE",
"447 13 OFFCURVE",
"493 -9 OFFCURVE",
"562 -9 CURVE SMOOTH",
"615 -9 OFFCURVE",
"699 -4 OFFCURVE",
"747 0 CURVE",
"745 32 LINE",
"697 28 OFFCURVE",
"614 23 OFFCURVE",
"563 23 CURVE SMOOTH {name = hr00;}",
"447 23 OFFCURVE",
"411 98 OFFCURVE",
"411 236 CURVE",
"766 236 LINE",
"766 269 LINE",
"766 442 OFFCURVE",
"699 509 OFFCURVE",
"576 509 CURVE SMOOTH",
"502 509 OFFCURVE",
"440 484 OFFCURVE",
"404 413 CURVE",
"388 477 OFFCURVE",
"343 509 OFFCURVE",
"265 509 CURVE SMOOTH",
"207 509 OFFCURVE",
"122 503 OFFCURVE",
"75 499 CURVE",
"77 466 LINE",
"126 470 OFFCURVE",
"211 475 OFFCURVE",
"265 475 CURVE SMOOTH",
"337 475 OFFCURVE",
"376 441 OFFCURVE",
"376 353 CURVE SMOOTH",
"376 301 LINE",
"233 286 LINE",
"100 269 OFFCURVE",
"48 249 OFFCURVE",
"48 137 CURVE SMOOTH",
"48 39 OFFCURVE",
"93 -9 OFFCURVE",
"175 -9 CURVE SMOOTH"
);
},
{
closed = 1;
nodes = (
"120 23 OFFCURVE",
"85 63 OFFCURVE",
"85 137 CURVE SMOOTH",
"85 209 OFFCURVE",
"116 243 OFFCURVE",
"190 250 CURVE SMOOTH",
"374 268 LINE",
"374 186 OFFCURVE",
"380 121 OFFCURVE",
"404 74 CURVE",
"387 67 OFFCURVE",
"269 23 OFFCURVE",
"176 23 CURVE SMOOTH"
);
},
{
closed = 1;
nodes = (
"411 419 OFFCURVE",
"476 477 OFFCURVE",
"576 477 CURVE SMOOTH",
"680 477 OFFCURVE",
"729 421 OFFCURVE",
"729 268 CURVE",
"411 268 LINE"
);
}
);
width = 818;
},
{
layerId = "D02A7F20-5372-446E-84B7-8F4B885083B2";
paths = (
{
closed = 1;
nodes = (
"258 -12 OFFCURVE",
"313 9 OFFCURVE",
"372 36 CURVE",
"407 3 OFFCURVE",
"457 -12 OFFCURVE",
"525 -12 CURVE SMOOTH",
"593 -12 OFFCURVE",
"684 4 OFFCURVE",
"733 16 CURVE",
"731 120 LINE",
"687 116 OFFCURVE",
"606 111 OFFCURVE",
"546 111 CURVE SMOOTH {name = hr00;}",
"474 111 OFFCURVE",
"446 135 OFFCURVE",
"445 192 CURVE",
"739 192 LINE",
"749 286 LINE",
"749 437 OFFCURVE",
"678 511 OFFCURVE",
"531 511 CURVE SMOOTH",
"477 511 OFFCURVE",
"432 498 OFFCURVE",
"398 474 CURVE",
"368 500 OFFCURVE",
"324 511 OFFCURVE",
"269 511 CURVE SMOOTH",
"216 511 OFFCURVE",
"120 498 OFFCURVE",
"63 489 CURVE",
"67 372 LINE",
"119 377 OFFCURVE",
"207 383 OFFCURVE",
"261 383 CURVE SMOOTH",
"290 383 OFFCURVE",
"311 365 OFFCURVE",
"311 338 CURVE SMOOTH",
"311 313 LINE",
"203 306 LINE",
"95 300 OFFCURVE",
"29 264 OFFCURVE",
"29 152 CURVE SMOOTH",
"29 52 OFFCURVE",
"79 -12 OFFCURVE",
"178 -12 CURVE SMOOTH"
);
},
{
closed = 1;
nodes = (
"177 103 OFFCURVE",
"164 121 OFFCURVE",
"164 156 CURVE SMOOTH",
"164 192 OFFCURVE",
"185 205 OFFCURVE",
"220 207 CURVE SMOOTH",
"310 211 LINE",
"310 180 OFFCURVE",
"311 149 OFFCURVE",
"311 118 CURVE",
"283 112 OFFCURVE",
"235 103 OFFCURVE",
"205 103 CURVE SMOOTH"
);
},
{
closed = 1;
nodes = (
"445 361 OFFCURVE",
"466 392 OFFCURVE",
"531 392 CURVE SMOOTH",
"594 392 OFFCURVE",
"617 366 OFFCURVE",
"617 295 CURVE",
"445 295 LINE"
);
}
);
width = 784;
},
{
layerId = "2D07D9D6-DD7A-4EF1-82E8-8B18836F0AAC";
paths = (
{
closed = 1;
nodes = (
"252 -13 OFFCURVE",
"335 6 OFFCURVE",
"383 21 CURVE",
"414 -2 OFFCURVE",
"460 -13 OFFCURVE",
"527 -13 CURVE SMOOTH",
"617 -13 OFFCURVE",
"726 4 OFFCURVE",
"783 16 CURVE",
"778 161 LINE",
"717 157 OFFCURVE",
"610 152 OFFCURVE",
"543 152 CURVE SMOOTH",
"509 152 OFFCURVE",
"495 162 OFFCURVE",
"494 187 CURVE",
"783 187 LINE",
"793 286 LINE",
"793 445 OFFCURVE",
"705 518 OFFCURVE",
"532 518 CURVE SMOOTH",
"479 518 OFFCURVE",
"439 509 OFFCURVE",
"409 492 CURVE",
"378 512 OFFCURVE",
"332 518 OFFCURVE",
"267 518 CURVE SMOOTH",
"187 518 OFFCURVE",
"86 498 OFFCURVE",
"32 483 CURVE",
"37 331 LINE",
"88 337 OFFCURVE",
"180 344 OFFCURVE",
"245 344 CURVE SMOOTH",
"271 344 OFFCURVE",
"288 339 OFFCURVE",
"288 325 CURVE SMOOTH",
"288 316 LINE",
"220 313 LINE SMOOTH",
"81 306 OFFCURVE",
"10 292 OFFCURVE",
"10 157 CURVE SMOOTH",
"10 38 OFFCURVE",
"80 -13 OFFCURVE",
"189 -13 CURVE SMOOTH"
);
},
{
closed = 1;
nodes = (
"234 141 OFFCURVE",
"228 149 OFFCURVE",
"228 163 CURVE SMOOTH",
"228 179 OFFCURVE",
"238 190 OFFCURVE",
"254 191 CURVE SMOOTH",
"288 193 LINE",
"288 181 OFFCURVE",
"288 168 OFFCURVE",
"288 156 CURVE",
"281 150 OFFCURVE",
"265 141 OFFCURVE",
"250 141 CURVE SMOOTH"
);
},
{
closed = 1;
nodes = (
"494 346 OFFCURVE",
"502 362 OFFCURVE",
"532 362 CURVE SMOOTH",
"559 362 OFFCURVE",
"571 349 OFFCURVE",
"571 309 CURVE",
"493 309 LINE"
);
}
);
width = 807;
}
);
leftKerningGroup = a;
rightKerningGroup = e;
unicode = 00E6;
},
{
glyphname = aeacute;
layers = (
{
components = (
{
name = ae;
},
{
name = acute;
transform = "{1, 0, 0, 1, 273, 0}";
}
);
layerId = "F1BADE0A-D307-4A55-B1D9-DEBA981FCD10";
width = 818;
},
{
components = (
{
name = ae;
},
{
name = acute;
transform = "{1, 0, 0, 1, 251, 0}";
}
);
layerId = "D02A7F20-5372-446E-84B7-8F4B885083B2";
width = 784;
},
{
components = (
{
name = ae;
},
{
name = acute;
transform = "{1, 0, 0, 1, 86, 0}";
}
);
layerId = "2D07D9D6-DD7A-4EF1-82E8-8B18836F0AAC";
width = 807;
},
{
associatedMasterId = "2D07D9D6-DD7A-4EF1-82E8-8B18836F0AAC";
components = (
{
name = acute;
transform = "{1, 0, 0, 1, 143, 0}";
}
);
layerId = "C33CC7B1-785A-4EB3-BF97-7B1C3332F353";
name = "Apr 14 18, 13:42";
paths = (
{
closed = 1;
nodes = (
"637 -13 OFFCURVE",
"746 4 OFFCURVE",
"803 16 CURVE",
"798 161 LINE",
"737 157 OFFCURVE",
"630 152 OFFCURVE",
"563 152 CURVE SMOOTH",
"529 152 OFFCURVE",
"515 162 OFFCURVE",
"514 187 CURVE",
"803 187 LINE",
"813 286 LINE",
"813 445 OFFCURVE",
"725 518 OFFCURVE",
"552 518 CURVE SMOOTH",
"376 518 OFFCURVE",
"290 419 OFFCURVE",
"290 243 CURVE SMOOTH",
"290 66 OFFCURVE",
"367 -13 OFFCURVE",
"547 -13 CURVE SMOOTH"
);
},
{
closed = 1;
nodes = (
"234 141 OFFCURVE",
"228 149 OFFCURVE",
"228 163 CURVE SMOOTH",
"228 179 OFFCURVE",
"238 190 OFFCURVE",
"254 191 CURVE",
"288 193 LINE",
"288 156 LINE",
"281 150 OFFCURVE",
"265 141 OFFCURVE",
"250 141 CURVE SMOOTH"
);
},
{
closed = 1;
nodes = (
"253 -13 OFFCURVE",
"339 7 OFFCURVE",
"386 22 CURVE",
"526 149 LINE",
"518 152 OFFCURVE",
"507 157 OFFCURVE",
"502 160 CURVE",
"502 342 LINE {name = hr00;}",
"502 487 OFFCURVE",
"412 518 OFFCURVE",
"267 518 CURVE SMOOTH",
"187 518 OFFCURVE",
"86 498 OFFCURVE",
"32 483 CURVE",
"37 331 LINE",
"88 337 OFFCURVE",
"180 344 OFFCURVE",
"245 344 CURVE SMOOTH",
"271 344 OFFCURVE",
"288 339 OFFCURVE",
"288 325 CURVE SMOOTH",
"288 316 LINE",
"220 313 LINE SMOOTH",
"81 306 OFFCURVE",
"10 292 OFFCURVE",
"10 157 CURVE SMOOTH",
"10 38 OFFCURVE",
"80 -13 OFFCURVE",
"189 -13 CURVE SMOOTH"
);
},
{
closed = 1;
nodes = (
"514 346 OFFCURVE",
"522 362 OFFCURVE",
"552 362 CURVE SMOOTH",
"579 362 OFFCURVE",
"591 349 OFFCURVE",
"591 309 CURVE",
"513 309 LINE"
);
}
);
width = 827;
}
);
leftKerningGroup = a;
rightKerningGroup = e;
unicode = 01FD;
},
{
glyphname = b;
layers = (
{
layerId = "F1BADE0A-D307-4A55-B1D9-DEBA981FCD10";
paths = (
{
closed = 1;
nodes = (
"413 -9 OFFCURVE",
"455 71 OFFCURVE",
"455 258 CURVE SMOOTH",
"455 430 OFFCURVE",
"421 509 OFFCURVE",
"285 509 CURVE SMOOTH {name = hr00;}",
"220 509 OFFCURVE",
"149 486 OFFCURVE",
"113 469 CURVE",
"113 730 LINE",
"78 730 LINE",
"78 0 LINE",
"113 -4 OFFCURVE",
"177 -9 OFFCURVE",
"227 -9 CURVE SMOOTH"
);
},
{
closed = 1;
nodes = (
"200 23 OFFCURVE",
"147 26 OFFCURVE",
"113 29 CURVE",
"113 437 LINE",
"149 454 OFFCURVE",
"220 477 OFFCURVE",
"285 477 CURVE SMOOTH",
"396 477 OFFCURVE",
"418 406 OFFCURVE",
"418 258 CURVE SMOOTH",
"418 97 OFFCURVE",
"393 23 OFFCURVE",
"226 23 CURVE SMOOTH"
);
}
);
width = 514;
},
{
layerId = "D02A7F20-5372-446E-84B7-8F4B885083B2";
paths = (
{
closed = 1;
nodes = (
"433 -12 OFFCURVE",
"506 42 OFFCURVE",
"506 257 CURVE SMOOTH",
"506 449 OFFCURVE",
"440 512 OFFCURVE",
"304 512 CURVE SMOOTH {name = hr00;}",
"272 512 OFFCURVE",
"224 497 OFFCURVE",
"196 485 CURVE",
"196 700 LINE",
"62 700 LINE",
"62 2 LINE",
"125 -4 OFFCURVE",
"222 -12 OFFCURVE",
"257 -12 CURVE SMOOTH"
);
},
{
closed = 1;
nodes = (
"246 108 OFFCURVE",
"216 110 OFFCURVE",
"196 112 CURVE",
"196 379 LINE",
"218 385 OFFCURVE",
"257 392 OFFCURVE",
"286 392 CURVE SMOOTH",
"338 392 OFFCURVE",
"370 358 OFFCURVE",
"370 257 CURVE SMOOTH",
"370 149 OFFCURVE",
"349 108 OFFCURVE",
"257 108 CURVE SMOOTH"
);
}
);
width = 544;
},
{
layerId = "2D07D9D6-DD7A-4EF1-82E8-8B18836F0AAC";
paths = (
{
closed = 1;
nodes = (
"489 -13 OFFCURVE",
"553 58 OFFCURVE",
"553 261 CURVE SMOOTH",
"553 412 OFFCURVE",
"503 518 OFFCURVE",
"355 518 CURVE SMOOTH {name = hr00;}",
"327 518 OFFCURVE",
"279 509 OFFCURVE",
"251 502 CURVE",
"251 690 LINE",
"27 690 LINE",
"27 10 LINE",
"101 0 OFFCURVE",
"220 -13 OFFCURVE",
"279 -13 CURVE SMOOTH"
);
},
{
closed = 1;
nodes = (
"269 168 OFFCURVE",
"257 170 OFFCURVE",
"251 171 CURVE",
"251 330 LINE",
"261 333 OFFCURVE",
"276 337 OFFCURVE",
"283 337 CURVE",
"313 337 OFFCURVE",
"327 321 OFFCURVE",
"327 256 CURVE SMOOTH",
"327 209 OFFCURVE",
"320 168 OFFCURVE",
"283 168 CURVE SMOOTH"
);
}
);
width = 569;
}
);
leftKerningGroup = b;
rightKerningGroup = b;
unicode = 0062;
},
{
glyphname = c;
layers = (
{
layerId = "F1BADE0A-D307-4A55-B1D9-DEBA981FCD10";
paths = (
{
closed = 1;
nodes = (
"293 -9 OFFCURVE",
"351 -4 OFFCURVE",
"387 0 CURVE",
"385 32 LINE",
"350 28 OFFCURVE",
"293 23 OFFCURVE",
"265 23 CURVE SMOOTH",
"123 23 OFFCURVE",
"97 89 OFFCURVE",
"97 261 CURVE SMOOTH",
"97 419 OFFCURVE",
"137 477 OFFCURVE",
"265 477 CURVE SMOOTH",
"293 477 OFFCURVE",
"349 471 OFFCURVE",
"383 467 CURVE",
"385 499 LINE",
"350 503 OFFCURVE",
"293 509 OFFCURVE",
"265 509 CURVE SMOOTH {name = hr00;}",
"116 509 OFFCURVE",
"60 446 OFFCURVE",
"60 261 CURVE SMOOTH",
"60 60 OFFCURVE",
"98 -9 OFFCURVE",
"265 -9 CURVE SMOOTH"
);
}
);
width = 429;
},
{
layerId = "D02A7F20-5372-446E-84B7-8F4B885083B2";
paths = (
{
closed = 1;
nodes = (
"287 -12 OFFCURVE",
"363 0 OFFCURVE",
"409 9 CURVE",
"405 116 LINE",
"371 113 OFFCURVE",
"317 108 OFFCURVE",
"289 108 CURVE SMOOTH",
"193 108 OFFCURVE",
"174 143 OFFCURVE",
"174 255 CURVE SMOOTH",
"174 355 OFFCURVE",
"192 392 OFFCURVE",
"288 392 CURVE SMOOTH",
"316 392 OFFCURVE",
"371 387 OFFCURVE",
"405 384 CURVE",
"409 490 LINE",
"365 499 OFFCURVE",
"291 512 OFFCURVE",
"249 512 CURVE SMOOTH {name = hr00;}",
"100 512 OFFCURVE",
"38 432 OFFCURVE",
"38 255 CURVE SMOOTH",
"38 67 OFFCURVE",
"97 -12 OFFCURVE",
"246 -12 CURVE SMOOTH"
);
}
);
width = 446;
},
{
layerId = "2D07D9D6-DD7A-4EF1-82E8-8B18836F0AAC";
paths = (
{
closed = 1;
nodes = (
"330 -13 OFFCURVE",
"408 3 OFFCURVE",
"449 15 CURVE",
"442 190 LINE",
"397 187 OFFCURVE",
"327 183 OFFCURVE",
"299 183 CURVE SMOOTH",
"256 183 OFFCURVE",
"242 200 OFFCURVE",
"242 253 CURVE",
"242 305 OFFCURVE",
"257 323 OFFCURVE",
"299 323 CURVE SMOOTH",
"327 323 OFFCURVE",
"396 318 OFFCURVE",
"440 315 CURVE",
"447 492 LINE",
"402 503 OFFCURVE",
"322 518 OFFCURVE",
"266 518 CURVE {name = hr00;}",
"88 518 OFFCURVE",
"16 457 OFFCURVE",
"16 253 CURVE",
"16 62 OFFCURVE",
"70 -13 OFFCURVE",
"266 -13 CURVE"
);
}
);
width = 465;
}
);
leftKerningGroup = o;
rightKerningGroup = c;
unicode = 0063;
},
{
glyphname = d;
layers = (
{
layerId = "F1BADE0A-D307-4A55-B1D9-DEBA981FCD10";
paths = (
{
closed = 1;
nodes = (
"294 -9 OFFCURVE",
"366 20 OFFCURVE",
"401 42 CURVE",
"401 0 LINE {name = hr01;}",
"436 0 LINE",
"436 730 LINE {name = hr00;}",
"401 730 LINE",
"401 497 LINE",
"376 501 OFFCURVE",
"316 509 OFFCURVE",
"269 509 CURVE SMOOTH",
"105 509 OFFCURVE",
"58 414 OFFCURVE",
"58 242 CURVE SMOOTH",
"58 -1 OFFCURVE",
"166 -9 OFFCURVE",
"228 -9 CURVE SMOOTH"
);
},
{
closed = 1;
nodes = (
"172 23 OFFCURVE",
"95 40 OFFCURVE",
"95 242 CURVE SMOOTH",
"95 391 OFFCURVE",
"127 477 OFFCURVE",
"269 477 CURVE SMOOTH",
"308 477 OFFCURVE",
"375 469 OFFCURVE",
"401 465 CURVE",
"401 75 LINE",
"364 53 OFFCURVE",
"291 23 OFFCURVE",
"228 23 CURVE SMOOTH {name = hr02;}"
);
}
);
width = 515;
},
{
layerId = "D02A7F20-5372-446E-84B7-8F4B885083B2";
paths = (
{
closed = 1;
nodes = (
"270 -12 OFFCURVE",
"324 7 OFFCURVE",
"354 21 CURVE",
"354 0 LINE {name = hr01;}",
"487 0 LINE",
"487 700 LINE {name = hr00;}",
"353 700 LINE",
"353 498 LINE",
"322 504 OFFCURVE",
"272 512 OFFCURVE",
"245 512 CURVE SMOOTH",
"109 512 OFFCURVE",
"38 435 OFFCURVE",
"38 252 CURVE SMOOTH",
"38 76 OFFCURVE",
"82 -12 OFFCURVE",
"233 -12 CURVE SMOOTH"
);
},
{
closed = 1;
nodes = (
"193 108 OFFCURVE",
"174 150 OFFCURVE",
"174 252 CURVE SMOOTH",
"174 353 OFFCURVE",
"205 396 OFFCURVE",
"255 396 CURVE SMOOTH",
"286 396 OFFCURVE",
"329 390 OFFCURVE",
"353 386 CURVE",
"353 123 LINE",
"332 117 OFFCURVE",
"290 108 OFFCURVE",
"256 108 CURVE SMOOTH {name = hr02;}"
);
}
);
width = 549;
},
{
layerId = "2D07D9D6-DD7A-4EF1-82E8-8B18836F0AAC";
paths = (
{
closed = 1;
nodes = (
"251 -13 OFFCURVE",
"295 7 OFFCURVE",
"319 22 CURVE",
"321 0 LINE {name = hr01;}",
"542 0 LINE",
"542 690 LINE {name = hr00;}",
"318 690 LINE",
"318 512 LINE",
"295 515 OFFCURVE",
"257 518 OFFCURVE",
"237 518 CURVE SMOOTH",
"76 518 OFFCURVE",
"16 413 OFFCURVE",
"16 252 CURVE SMOOTH",
"16 91 OFFCURVE",
"59 -13 OFFCURVE",
"214 -13 CURVE SMOOTH"
);
},
{
closed = 1;
nodes = (
"247 168 OFFCURVE",
"242 207 OFFCURVE",
"242 252 CURVE SMOOTH",
"242 297 OFFCURVE",
"247 337 OFFCURVE",
"286 337 CURVE SMOOTH",
"293 337 OFFCURVE",
"309 335 OFFCURVE",
"318 334 CURVE",
"318 171 LINE",
"308 170 OFFCURVE",
"292 168 OFFCURVE",
"287 168 CURVE SMOOTH {name = hr02;}"
);
}
);
width = 570;
}
);
leftKerningGroup = d;
rightKerningGroup = d;
unicode = 0064;
},
{
glyphname = eth;
layers = (
{
layerId = "F1BADE0A-D307-4A55-B1D9-DEBA981FCD10";
paths = (
{
closed = 1;
nodes = (
"412 -9 OFFCURVE",
"475 84 OFFCURVE",
"475 355 CURVE",
"475 541 OFFCURVE",
"352 669 OFFCURVE",
"118 739 CURVE {name = hr00;}",
"105 708 LINE",
"341 638 OFFCURVE",
"434 510 OFFCURVE",
"438 381 CURVE",
"390 400 OFFCURVE",
"306 425 OFFCURVE",
"249 425 CURVE SMOOTH",
"123 425 OFFCURVE",
"45 340 OFFCURVE",
"45 214 CURVE SMOOTH",
"45 71 OFFCURVE",
"127 -9 OFFCURVE",
"260 -9 CURVE SMOOTH"
);
},
{
closed = 1;
nodes = (
"145 25 OFFCURVE",
"81 92 OFFCURVE",
"81 214 CURVE SMOOTH",
"81 318 OFFCURVE",
"144 391 OFFCURVE",
"251 391 CURVE SMOOTH",
"304 391 OFFCURVE",
"389 365 OFFCURVE",
"439 346 CURVE",
"437 99 OFFCURVE",
"390 25 OFFCURVE",
"260 25 CURVE SMOOTH"
);
},
{
closed = 1;
nodes = (
"392 718 LINE",
"372 745 LINE",
"132 583 LINE",
"152 556 LINE"
);
}
);
width = 535;
},
{
layerId = "D02A7F20-5372-446E-84B7-8F4B885083B2";
paths = (
{
closed = 1;
nodes = (
"455 -9 OFFCURVE",
"528 106 OFFCURVE",
"528 347 CURVE",
"528 598 OFFCURVE",
"376 691 OFFCURVE",
"100 712 CURVE {name = hr00;}",
"82 618 LINE",
"318 575 OFFCURVE",
"376 518 OFFCURVE",
"386 414 CURVE",
"360 424 OFFCURVE",
"306 438 OFFCURVE",
"256 438 CURVE SMOOTH",
"107 438 OFFCURVE",
"38 350 OFFCURVE",
"38 216 CURVE SMOOTH",
"38 64 OFFCURVE",
"120 -9 OFFCURVE",
"273 -9 CURVE SMOOTH"
);
},
{
closed = 1;
nodes = (
"206 111 OFFCURVE",
"180 152 OFFCURVE",
"180 216 CURVE SMOOTH",
"180 268 OFFCURVE",
"205 320 OFFCURVE",
"264 320 CURVE SMOOTH",
"317 320 OFFCURVE",
"365 307 OFFCURVE",
"386 298 CURVE",
"386 162 OFFCURVE",
"345 111 OFFCURVE",
"273 111 CURVE SMOOTH"
);
},
{
closed = 1;
nodes = (
"459 661 LINE",
"405 737 LINE",
"114 543 LINE",
"168 467 LINE"
);
}
);
width = 567;
},
{
layerId = "2D07D9D6-DD7A-4EF1-82E8-8B18836F0AAC";
paths = (
{
closed = 1;
nodes = (
"434 -9 OFFCURVE",
"512 112 OFFCURVE",
"512 345 CURVE SMOOTH",
"512 615 OFFCURVE",
"352 697 OFFCURVE",
"65 705 CURVE",
"46 595 LINE",
"284 559 OFFCURVE",
"329 518 OFFCURVE",
"343 423 CURVE",
"319 442 OFFCURVE",
"260 441 OFFCURVE",
"228 441 CURVE SMOOTH",
"73 441 OFFCURVE",
"6 351 OFFCURVE",
"6 217 CURVE SMOOTH",
"6 60 OFFCURVE",
"88 -9 OFFCURVE",
"246 -9 CURVE SMOOTH"
);
},
{
closed = 1;
nodes = (
"190 133 OFFCURVE",
"176 168 OFFCURVE",
"176 217 CURVE SMOOTH",
"176 255 OFFCURVE",
"191 302 OFFCURVE",
"237 302 CURVE SMOOTH",
"282 302 OFFCURVE",
"297 302 OFFCURVE",
"342 286 CURVE",
"342 178 OFFCURVE",
"304 133 OFFCURVE",
"246 133 CURVE SMOOTH"
);
},
{
closed = 1;
nodes = (
"446 646 LINE",
"384 735 LINE",
"79 533 LINE",
"142 444 LINE"
);
}
);
width = 529;
}
);
unicode = 00F0;
userData = {
"- fatto thin\012- fatto bold\012- aggiunti hint  com.typemytype.robofont.guides" = (
{
angle = 90;
isGlobal = 0;
magnetic = 5;
x = 513;
y = 0;
},
{
angle = 90;
isGlobal = 0;
magnetic = 5;
x = 481;
y = 0;
}
);
};
},
{
glyphname = dcaron;
layers = (
{
components = (
{
name = d;
}
);
layerId = "F1BADE0A-D307-4A55-B1D9-DEBA981FCD10";
paths = (
{
closed = 1;
nodes = (
"528 498 LINE",
"574 687 LINE",
"537 687 LINE {name = hr01;}",
"500 498 LINE"
);
}
);
width = 515;
},
{
components = (
{
name = d;
}
);
layerId = "D02A7F20-5372-446E-84B7-8F4B885083B2";
paths = (
{
closed = 1;
nodes = (
"665 444 LINE",
"720 678 LINE",
"590 678 LINE {name = hr01;}",
"544 444 LINE"
);
}
);
width = 664;
},
{
components = (
{
name = d;
}
);
layerId = "2D07D9D6-DD7A-4EF1-82E8-8B18836F0AAC";
paths = (
{
closed = 1;
nodes = (
"743 454 LINE",
"805 669 LINE",
"601 669 LINE",
"581 454 LINE"
);
}
);
width = 748;
}
);
leftKerningGroup = d;
rightKerningGroup = lcaron;
unicode = 010F;
},
{
glyphname = dcroat;
layers = (
{
components = (
{
name = d;
}
);
layerId = "F1BADE0A-D307-4A55-B1D9-DEBA981FCD10";
paths = (
{
closed = 1;
nodes = (
"495 622 LINE",
"495 654 LINE",
"228 654 LINE",
"228 622 LINE {name = hr00;}"
);
}
);
width = 515;
},
{
components = (
{
name = d;
}
);
layerId = "D02A7F20-5372-446E-84B7-8F4B885083B2";
paths = (
{
closed = 1;
nodes = (
"456 622 LINE",
"456 738 LINE",
"129 738 LINE",
"129 622 LINE {name = hr00;}"
);
}
);
width = 549;
},
{
components = (
{
name = d;
}
);
layerId = "2D07D9D6-DD7A-4EF1-82E8-8B18836F0AAC";
paths = (
{
closed = 1;
nodes = (
"582 545 LINE",
"582 652 LINE",
"257 652 LINE",
"257 545 LINE"
);
}
);
width = 570;
}
);
leftKerningGroup = d;
rightKerningGroup = d;
unicode = 0111;
},
{
glyphname = e;
layers = (
{
layerId = "F1BADE0A-D307-4A55-B1D9-DEBA981FCD10";
paths = (
{
closed = 1;
nodes = (
"299 -9 OFFCURVE",
"383 -4 OFFCURVE",
"431 0 CURVE",
"429 32 LINE",
"381 28 OFFCURVE",
"298 23 OFFCURVE",
"247 23 CURVE SMOOTH {name = hr00;}",
"131 23 OFFCURVE",
"95 98 OFFCURVE",
"95 236 CURVE",
"450 236 LINE",
"450 269 LINE",
"450 442 OFFCURVE",
"383 509 OFFCURVE",
"260 509 CURVE SMOOTH",
"146 509 OFFCURVE",
"58 448 OFFCURVE",
"58 250 CURVE SMOOTH",
"58 87 OFFCURVE",
"97 -8 OFFCURVE",
"246 -9 CURVE"
);
},
{
closed = 1;
nodes = (
"95 420 OFFCURVE",
"160 477 OFFCURVE",
"260 477 CURVE SMOOTH",
"364 477 OFFCURVE",
"413 421 OFFCURVE",
"413 268 CURVE",
"95 268 LINE"
);
}
);
width = 502;
},
{
layerId = "D02A7F20-5372-446E-84B7-8F4B885083B2";
paths = (
{
closed = 1;
nodes = (
"320 -12 OFFCURVE",
"411 4 OFFCURVE",
"460 16 CURVE",
"458 115 LINE",
"414 111 OFFCURVE",
"333 106 OFFCURVE",
"273 106 CURVE SMOOTH {name = hr00;}",
"201 106 OFFCURVE",
"173 133 OFFCURVE",
"172 193 CURVE",
"466 193 LINE",
"476 286 LINE",
"476 437 OFFCURVE",
"405 512 OFFCURVE",
"258 512 CURVE SMOOTH",
"112 512 OFFCURVE",
"37 421 OFFCURVE",
"37 243 CURVE SMOOTH",
"37 63 OFFCURVE",
"101 -12 OFFCURVE",
"252 -12 CURVE SMOOTH"
);
},
{
closed = 1;
nodes = (
"172 371 OFFCURVE",
"194 402 OFFCURVE",
"258 402 CURVE SMOOTH",
"321 402 OFFCURVE",
"344 376 OFFCURVE",
"344 295 CURVE",
"171 295 LINE"
);
}
);
width = 510;
},
{
layerId = "2D07D9D6-DD7A-4EF1-82E8-8B18836F0AAC";
paths = (
{
closed = 1;
nodes = (
"362 -13 OFFCURVE",
"471 4 OFFCURVE",
"528 16 CURVE",
"523 161 LINE",
"462 157 OFFCURVE",
"355 152 OFFCURVE",
"288 152 CURVE SMOOTH {name = hr00;}",
"254 152 OFFCURVE",
"240 162 OFFCURVE",
"239 187 CURVE",
"528 187 LINE",
"538 286 LINE",
"538 445 OFFCURVE",
"450 518 OFFCURVE",
"277 518 CURVE SMOOTH",
"91 518 OFFCURVE",
"15 419 OFFCURVE",
"15 243 CURVE SMOOTH",
"15 66 OFFCURVE",
"82 -13 OFFCURVE",
"272 -13 CURVE SMOOTH"
);
},
{
closed = 1;
nodes = (
"239 346 OFFCURVE",
"247 362 OFFCURVE",
"277 362 CURVE SMOOTH",
"304 362 OFFCURVE",
"314 347 OFFCURVE",
"314 309 CURVE",
"238 309 LINE"
);
}
);
width = 552;
}
);
leftKerningGroup = o;
rightKerningGroup = e;
unicode = 0065;
},
{
glyphname = f;
layers = (
{
layerId = "F1BADE0A-D307-4A55-B1D9-DEBA981FCD10";
paths = (
{
closed = 1;
nodes = (
"133 0 LINE",
"133 468 LINE {name = hr00;}",
"295 468 LINE",
"295 500 LINE",
"133 500 LINE",
"133 560 LINE",
"133 680 OFFCURVE",
"157 707 OFFCURVE",
"225 707 CURVE SMOOTH",
"245 707 OFFCURVE",
"289 706 OFFCURVE",
"317 705 CURVE",
"317 736 LINE",
"292 737 OFFCURVE",
"251 739 OFFCURVE",
"225 739 CURVE SMOOTH",
"134 739 OFFCURVE",
"98 705 OFFCURVE",
"98 561 CURVE SMOOTH",
"98 500 LINE",
"29 500 LINE",
"29 468 LINE",
"98 468 LINE",
"98 0 LINE"
);
}
);
width = 313;
},
{
layerId = "D02A7F20-5372-446E-84B7-8F4B885083B2";
paths = (
{
closed = 1;
nodes = (
"220 0 LINE",
"220 386 LINE {name = hr00;}",
"341 386 LINE",
"341 500 LINE",
"220 500 LINE",
"220 521 LINE",
"220 572 OFFCURVE",
"230 592 OFFCURVE",
"268 592 CURVE SMOOTH",
"291 592 OFFCURVE",
"325 591 OFFCURVE",
"344 590 CURVE",
"346 699 LINE",
"311 705 OFFCURVE",
"256 712 OFFCURVE",
"232 712 CURVE SMOOTH",
"123 712 OFFCURVE",
"86 666 OFFCURVE",
"86 522 CURVE SMOOTH",
"86 500 LINE",
"32 500 LINE",
"32 386 LINE",
"86 386 LINE",
"86 0 LINE"
);
}
);
width = 357;
},
{
layerId = "2D07D9D6-DD7A-4EF1-82E8-8B18836F0AAC";
paths = (
{
closed = 1;
nodes = (
"269 0 LINE",
"269 324 LINE {name = hr00;}",
"349 324 LINE",
"349 505 LINE",
"269 505 LINE",
"269 515 LINE SMOOTH",
"269 522 OFFCURVE",
"279 528 OFFCURVE",
"308 528 CURVE SMOOTH",
"319 528 OFFCURVE",
"333 528 OFFCURVE",
"351 528 CURVE",
"351 690 LINE",
"321 696 OFFCURVE",
"264 703 OFFCURVE",
"217 703 CURVE SMOOTH",
"81 703 OFFCURVE",
"45 649 OFFCURVE",
"45 509 CURVE SMOOTH",
"45 505 LINE",
"18 505 LINE",
"18 324 LINE",
"45 324 LINE",
"45 0 LINE"
);
}
);
width = 358;
}
);
unicode = 0066;
},
{
glyphname = g;
layers = (
{
layerId = "F1BADE0A-D307-4A55-B1D9-DEBA981FCD10";
paths = (
{
closed = 1;
nodes = (
"405 -239 OFFCURVE",
"469 -193 OFFCURVE",
"469 -85 CURVE SMOOTH",
"469 39 OFFCURVE",
"416 59 OFFCURVE",
"292 59 CURVE SMOOTH",
"161 59 OFFCURVE",
"155 64 OFFCURVE",
"155 113 CURVE SMOOTH",
"155 122 OFFCURVE",
"168 158 OFFCURVE",
"178 183 CURVE",
"190 181 OFFCURVE",
"224 179 OFFCURVE",
"232 179 CURVE SMOOTH",
"355 179 OFFCURVE",
"414 220 OFFCURVE",
"414 343 CURVE SMOOTH",
"414 412 OFFCURVE",
"399 442 OFFCURVE",
"374 465 CURVE",
"482 465 LINE",
"482 500 LINE",
"342 497 LINE",
"320 503 OFFCURVE",
"275 510 OFFCURVE",
"236 510 CURVE SMOOTH",
"129 510 OFFCURVE",
"65 462 OFFCURVE",
"65 343 CURVE SMOOTH",
"65 247 OFFCURVE",
"105 206 OFFCURVE",
"151 191 CURVE",
"138 164 OFFCURVE",
"121 124 OFFCURVE",
"121 113 CURVE SMOOTH",
"121 82 OFFCURVE",
"127 58 OFFCURVE",
"143 48 CURVE",
"89 9 OFFCURVE",
"58 -14 OFFCURVE",
"58 -80 CURVE SMOOTH",
"58 -198 OFFCURVE",
"90 -239 OFFCURVE",
"256 -239 CURVE SMOOTH {name = hr00;}"
);
},
{
closed = 1;
nodes = (
"119 -207 OFFCURVE",
"94 -174 OFFCURVE",
"94 -79 CURVE SMOOTH",
"94 -31 OFFCURVE",
"111 -10 OFFCURVE",
"169 30 CURVE",
"203 29 OFFCURVE",
"260 27 OFFCURVE",
"290 27 CURVE",
"391 27 OFFCURVE",
"432 16 OFFCURVE",
"432 -85 CURVE SMOOTH",
"432 -171 OFFCURVE",
"381 -207 OFFCURVE",
"257 -207 CURVE SMOOTH"
);
},
{
closed = 1;
nodes = (
"141 211 OFFCURVE",
"101 243 OFFCURVE",
"101 343 CURVE SMOOTH",
"101 443 OFFCURVE",
"141 478 OFFCURVE",
"235 478 CURVE SMOOTH",
"340 478 OFFCURVE",
"377 443 OFFCURVE",
"377 343 CURVE SMOOTH",
"377 243 OFFCURVE",
"340 211 OFFCURVE",
"235 211 CURVE SMOOTH"
);
}
);
width = 501;
},
{
layerId = "D02A7F20-5372-446E-84B7-8F4B885083B2";
paths = (
{
closed = 1;
nodes = (
"407 -230 OFFCURVE",
"515 -184 OFFCURVE",
"515 -62 CURVE SMOOTH",
"515 50 OFFCURVE",
"466.998 87.667 OFFCURVE",
"297 89 CURVE SMOOTH",
"211.997 89.667 OFFCURVE",
"200 96 OFFCURVE",
"200 122 CURVE SMOOTH",
"200 131 OFFCURVE",
"206 150 OFFCURVE",
"210 161 CURVE",
"219 159 OFFCURVE",
"240 157 OFFCURVE",
"251 157 CURVE SMOOTH",
"388 157 OFFCURVE",
"462 193 OFFCURVE",
"462 333 CURVE SMOOTH",
"462 362 OFFCURVE",
"449 387 OFFCURVE",
"440 401 CURVE",
"515 395 LINE",
"515 502 LINE",
"354 497 LINE",
"329 503 OFFCURVE",
"285 510 OFFCURVE",
"253 510 CURVE SMOOTH",
"136 510 OFFCURVE",
"43 462 OFFCURVE",
"43 333 CURVE SMOOTH",
"43 246 OFFCURVE",
"76 209 OFFCURVE",
"111 184 CURVE",
"94 160 OFFCURVE",
"72 122 OFFCURVE",
"72 104 CURVE SMOOTH",
"72 73 OFFCURVE",
"87 43 OFFCURVE",
"109 28 CURVE",
"59 -11 OFFCURVE",
"37 -45 OFFCURVE",
"37 -91 CURVE SMOOTH",
"37 -203 OFFCURVE",
"132 -230 OFFCURVE",
"278 -230 CURVE SMOOTH {name = hr00;}"
);
},
{
closed = 1;
nodes = (
"204 -120 OFFCURVE",
"169 -106 OFFCURVE",
"169 -77 CURVE SMOOTH",
"169 -52 OFFCURVE",
"179 -37 OFFCURVE",
"196 -20 CURVE",
"223 -23 OFFCURVE",
"266 -27 OFFCURVE",
"286 -27 CURVE",
"360 -28 OFFCURVE",
"380 -32 OFFCURVE",
"380 -70 CURVE SMOOTH",
"380 -106 OFFCURVE",
"344 -120 OFFCURVE",
"279 -120 CURVE SMOOTH"
);
},
{
closed = 1;
nodes = (
"200 259 OFFCURVE",
"177 286 OFFCURVE",
"177 333 CURVE SMOOTH",
"177 380 OFFCURVE",
"200 406 OFFCURVE",
"254 406 CURVE SMOOTH",
"308 406 OFFCURVE",
"330 380 OFFCURVE",
"330 333 CURVE SMOOTH",
"330 286 OFFCURVE",
"308 259 OFFCURVE",
"254 259 CURVE SMOOTH"
);
}
);
width = 534;
},
{
layerId = "2D07D9D6-DD7A-4EF1-82E8-8B18836F0AAC";
paths = (
{
closed = 1;
nodes = (
"452 -220 OFFCURVE",
"550 -150 OFFCURVE",
"550 -22 CURVE SMOOTH",
"550 99 OFFCURVE",
"502 138 OFFCURVE",
"362 138 CURVE SMOOTH",
"257 138 OFFCURVE",
"231 140 OFFCURVE",
"231 148 CURVE SMOOTH",
"231 152 OFFCURVE",
"233 157 OFFCURVE",
"235 160 CURVE",
"247 158 OFFCURVE",
"262 157 OFFCURVE",
"273 157 CURVE SMOOTH",
"440 157 OFFCURVE",
"515 188 OFFCURVE",
"515 338 CURVE SMOOTH",
"515 350 OFFCURVE",
"510 368 OFFCURVE",
"506 379 CURVE",
"553 379 LINE",
"553 510 LINE",
"368 507 LINE",
"342 512 OFFCURVE",
"296 518 OFFCURVE",
"265 518 CURVE SMOOTH",
"89 518 OFFCURVE",
"17 471 OFFCURVE",
"17 338 CURVE SMOOTH",
"17 244 OFFCURVE",
"60 205 OFFCURVE",
"98 187 CURVE",
"73 166 OFFCURVE",
"40 132 OFFCURVE",
"40 114 CURVE SMOOTH",
"40 83 OFFCURVE",
"54 54 OFFCURVE",
"76 39 CURVE",
"26 0 OFFCURVE",
"12 -35 OFFCURVE",
"12 -81 CURVE SMOOTH",
"12 -203 OFFCURVE",
"127 -220 OFFCURVE",
"293 -220 CURVE SMOOTH {name = hr00;}"
);
},
{
closed = 1;
nodes = (
"222 -66 OFFCURVE",
"195 -63 OFFCURVE",
"195 -53 CURVE SMOOTH",
"195 -42 OFFCURVE",
"195 -36 OFFCURVE",
"204 -31 CURVE",
"218 -33 OFFCURVE",
"249 -35 OFFCURVE",
"281 -35 CURVE SMOOTH",
"331 -35 OFFCURVE",
"347 -36 OFFCURVE",
"347 -50 CURVE SMOOTH",
"347 -62 OFFCURVE",
"330 -66 OFFCURVE",
"274 -66 CURVE SMOOTH"
);
},
{
closed = 1;
nodes = (
"239 303 OFFCURVE",
"227 312 OFFCURVE",
"227 339 CURVE SMOOTH",
"227 366 OFFCURVE",
"239 375 OFFCURVE",
"266 375 CURVE SMOOTH",
"293 375 OFFCURVE",
"305 366 OFFCURVE",
"305 339 CURVE SMOOTH",
"305 312 OFFCURVE",
"293 303 OFFCURVE",
"266 303 CURVE SMOOTH"
);
}
);
width = 562;
}
);
leftKerningGroup = g;
rightKerningGroup = g;
unicode = 0067;
},
{
glyphname = gcommaaccent;
layers = (
{
components = (
{
name = g;
}
);
layerId = "F1BADE0A-D307-4A55-B1D9-DEBA981FCD10";
paths = (
{
closed = 1;
nodes = (
"244 593 LINE",
"281 782 LINE",
"253 782 LINE",
"207 593 LINE"
);
}
);
width = 501;
},
{
components = (
{
name = g;
}
);
layerId = "D02A7F20-5372-446E-84B7-8F4B885083B2";
paths = (
{
closed = 1;
nodes = (
"300 583 LINE",
"346 817 LINE",
"225 817 LINE",
"170 583 LINE"
);
}
);
width = 534;
},
{
components = (
{
name = g;
}
);
layerId = "2D07D9D6-DD7A-4EF1-82E8-8B18836F0AAC";
paths = (
{
closed = 1;
nodes = (
"370 563 LINE",
"390 778 LINE",
"228 778 LINE",
"166 563 LINE"
);
}
);
width = 562;
}
);
leftKerningGroup = g;
rightKerningGroup = g;
unicode = 0123;
},
{
glyphname = h;
layers = (
{
layerId = "F1BADE0A-D307-4A55-B1D9-DEBA981FCD10";
paths = (
{
closed = 1;
nodes = (
"114 0 LINE {name = hr00;}",
"114 437 LINE",
"151 454 OFFCURVE",
"223 477 OFFCURVE",
"288 477 CURVE SMOOTH",
"399 477 OFFCURVE",
"417 428 OFFCURVE",
"417 258 CURVE SMOOTH",
"417 0 LINE",
"452 0 LINE",
"452 260 LINE",
"452 454 OFFCURVE",
"424 509 OFFCURVE",
"288 509 CURVE SMOOTH",
"225 509 OFFCURVE",
"152 487 OFFCURVE",
"114 470 CURVE",
"114 730 LINE",
"79 730 LINE",
"79 0 LINE"
);
}
);
width = 526;
},
{
layerId = "D02A7F20-5372-446E-84B7-8F4B885083B2";
paths = (
{
closed = 1;
nodes = (
"196 0 LINE {name = hr00;}",
"196 376 LINE",
"216 383 OFFCURVE",
"255 392 OFFCURVE",
"287 392 CURVE SMOOTH",
"352 392 OFFCURVE",
"362 343 OFFCURVE",
"362 268 CURVE SMOOTH",
"362 0 LINE",
"496 0 LINE",
"496 271 LINE",
"496 424 OFFCURVE",
"460 512 OFFCURVE",
"320 512 CURVE SMOOTH",
"280 512 OFFCURVE",
"226 491 OFFCURVE",
"196 476 CURVE",
"196 700 LINE",
"62 700 LINE",
"62 0 LINE"
);
}
);
width = 553;
},
{
layerId = "2D07D9D6-DD7A-4EF1-82E8-8B18836F0AAC";
paths = (
{
closed = 1;
nodes = (
"252 0 LINE",
"252 319 LINE",
"262 322 OFFCURVE",
"281 325 OFFCURVE",
"293 325 CURVE SMOOTH",
"320 325 OFFCURVE",
"331 299 OFFCURVE",
"331 238 CURVE SMOOTH",
"331 0 LINE",
"555 0 LINE",
"555 261 LINE SMOOTH",
"555 451 OFFCURVE",
"504 518 OFFCURVE",
"359 518 CURVE SMOOTH",
"332 518 OFFCURVE",
"282 508 OFFCURVE",
"252 501 CURVE",
"252 690 LINE",
"28 690 LINE",
"28 0 LINE {name = hr00;}"
);
}
);
width = 578;
}
);
leftKerningGroup = h;
rightKerningGroup = n;
unicode = 0068;
},
{
glyphname = hbar;
layers = (
{
components = (
{
name = h;
}
);
layerId = "F1BADE0A-D307-4A55-B1D9-DEBA981FCD10";
paths = (
{
closed = 1;
nodes = (
"275 612 LINE",
"275 644 LINE",
"8 644 LINE",
"8 612 LINE {name = hr00;}"
);
}
);
width = 526;
},
{
components = (
{
name = h;
}
);
layerId = "D02A7F20-5372-446E-84B7-8F4B885083B2";
paths = (
{
closed = 1;
nodes = (
"339 532 LINE",
"339 648 LINE",
"12 648 LINE",
"12 532 LINE {name = hr00;}"
);
}
);
width = 553;
},
{
components = (
{
name = h;
}
);
layerId = "2D07D9D6-DD7A-4EF1-82E8-8B18836F0AAC";
paths = (
{
closed = 1;
nodes = (
"313 545 LINE",
"313 652 LINE",
"-12 652 LINE",
"-12 545 LINE"
);
}
);
width = 578;
}
);
leftKerningGroup = h;
rightKerningGroup = n;
unicode = 0127;
},
{
glyphname = i;
layers = (
{
layerId = "F1BADE0A-D307-4A55-B1D9-DEBA981FCD10";
paths = (
{
closed = 1;
nodes = (
"114 0 LINE",
"114 500 LINE",
"79 500 LINE",
"79 0 LINE {name = hr00;}"
);
},
{
closed = 1;
nodes = (
"114 645 LINE",
"114 700 LINE",
"79 700 LINE",
"79 645 LINE"
);
}
);
width = 193;
},
{
layerId = "D02A7F20-5372-446E-84B7-8F4B885083B2";
paths = (
{
closed = 1;
nodes = (
"196 0 LINE",
"196 500 LINE",
"62 500 LINE",
"62 0 LINE {name = hr00;}"
);
},
{
closed = 1;
nodes = (
"196 564 LINE",
"196 700 LINE",
"62 700 LINE",
"62 564 LINE"
);
}
);
width = 258;
},
{
layerId = "2D07D9D6-DD7A-4EF1-82E8-8B18836F0AAC";
paths = (
{
closed = 1;
nodes = (
"252 0 LINE",
"252 505 LINE",
"28 505 LINE",
"28 0 LINE {name = hr00;}"
);
},
{
closed = 1;
nodes = (
"253 537 LINE",
"253 690 LINE",
"27 690 LINE",
"27 537 LINE"
);
}
);
width = 280;
}
);
leftKerningGroup = i;
rightKerningGroup = i;
unicode = 0069;
},
{
glyphname = dotlessi;
layers = (
{
layerId = "F1BADE0A-D307-4A55-B1D9-DEBA981FCD10";
paths = (
{
closed = 1;
nodes = (
"114 0 LINE",
"114 500 LINE",
"79 500 LINE {name = hr00;}",
"79 0 LINE"
);
}
);
width = 193;
},
{
layerId = "D02A7F20-5372-446E-84B7-8F4B885083B2";
paths = (
{
closed = 1;
nodes = (
"196 0 LINE",
"196 500 LINE",
"62 500 LINE {name = hr00;}",
"62 0 LINE"
);
}
);
width = 258;
},
{
layerId = "2D07D9D6-DD7A-4EF1-82E8-8B18836F0AAC";
paths = (
{
closed = 1;
nodes = (
"252 0 LINE",
"252 505 LINE",
"28 505 LINE",
"28 0 LINE"
);
}
);
width = 280;
}
);
leftKerningGroup = i;
rightKerningGroup = i;
unicode = 0131;
},
{
glyphname = j;
layers = (
{
layerId = "F1BADE0A-D307-4A55-B1D9-DEBA981FCD10";
paths = (
{
closed = 1;
nodes = (
"84 -152 OFFCURVE",
"114 -107 OFFCURVE",
"114 5 CURVE SMOOTH",
"114 500 LINE",
"79 500 LINE",
"79 6 LINE {name = hr00;}",
"79 -98 OFFCURVE",
"55 -125 OFFCURVE",
"-59 -187 CURVE",
"-45 -218 LINE"
);
},
{
closed = 1;
nodes = (
"114 645 LINE",
"114 700 LINE",
"79 700 LINE",
"79 645 LINE"
);
}
);
width = 192;
},
{
layerId = "D02A7F20-5372-446E-84B7-8F4B885083B2";
paths = (
{
closed = 1;
nodes = (
"158 -160 OFFCURVE",
"197 -116 OFFCURVE",
"197 23 CURVE SMOOTH",
"197 500 LINE",
"63 500 LINE",
"63 24 LINE {name = hr00;}",
"63 -61 OFFCURVE",
"48 -77 OFFCURVE",
"-34 -131 CURVE",
"19 -230 LINE"
);
},
{
closed = 1;
nodes = (
"197 564 LINE",
"197 700 LINE",
"63 700 LINE",
"63 564 LINE"
);
}
);
width = 259;
},
{
layerId = "2D07D9D6-DD7A-4EF1-82E8-8B18836F0AAC";
paths = (
{
closed = 1;
nodes = (
"209 -158 OFFCURVE",
"252 -128 OFFCURVE",
"252 73 CURVE SMOOTH",
"252 505 LINE",
"28 505 LINE",
"28 66 LINE",
"28 -6 OFFCURVE",
"20 -12 OFFCURVE",
"-61 -50 CURVE",
"11 -220 LINE"
);
},
{
closed = 1;
nodes = (
"253 538 LINE",
"253 690 LINE",
"27 690 LINE",
"27 538 LINE"
);
}
);
width = 280;
}
);
leftKerningGroup = i;
rightKerningGroup = i;
unicode = 006A;
},
{
glyphname = dotlessj;
layers = (
{
layerId = "F1BADE0A-D307-4A55-B1D9-DEBA981FCD10";
paths = (
{
closed = 1;
nodes = (
"84 -152 OFFCURVE",
"114 -107 OFFCURVE",
"114 5 CURVE SMOOTH",
"114 500 LINE",
"79 500 LINE",
"79 6 LINE SMOOTH",
"79 -92 OFFCURVE",
"55 -125 OFFCURVE",
"-59 -187 CURVE",
"-45 -218 LINE"
);
}
);
width = 192;
},
{
layerId = "D02A7F20-5372-446E-84B7-8F4B885083B2";
paths = (
{
closed = 1;
nodes = (
"158 -160 OFFCURVE",
"197 -116 OFFCURVE",
"197 23 CURVE SMOOTH",
"197 500 LINE",
"63 500 LINE",
"63 24 LINE SMOOTH",
"63 -61 OFFCURVE",
"48 -77 OFFCURVE",
"-34 -131 CURVE",
"19 -230 LINE"
);
}
);
width = 259;
},
{
layerId = "2D07D9D6-DD7A-4EF1-82E8-8B18836F0AAC";
paths = (
{
closed = 1;
nodes = (
"209 -158 OFFCURVE",
"252 -128 OFFCURVE",
"252 73 CURVE SMOOTH",
"252 505 LINE",
"28 505 LINE",
"28 66 LINE",
"28 -6 OFFCURVE",
"20 -12 OFFCURVE",
"-61 -50 CURVE",
"11 -220 LINE"
);
}
);
width = 280;
}
);
unicode = 0237;
},
{
glyphname = k;
layers = (
{
layerId = "F1BADE0A-D307-4A55-B1D9-DEBA981FCD10";
paths = (
{
closed = 1;
nodes = (
"114 0 LINE",
"114 257 LINE",
"210 257 LINE",
"390 0 LINE",
"432 0 LINE",
"240 274 LINE",
"424 500 LINE",
"382 500 LINE",
"210 289 LINE",
"114 289 LINE",
"114 730 LINE",
"79 730 LINE",
"79 0 LINE {name = hr00;}"
);
}
);
width = 455;
},
{
layerId = "D02A7F20-5372-446E-84B7-8F4B885083B2";
paths = (
{
closed = 1;
nodes = (
"196 0 LINE",
"196 186 LINE",
"251 195 LINE",
"352 0 LINE",
"503 0 LINE",
"366 263 LINE",
"496 500 LINE",
"346 500 LINE",
"247 311 LINE",
"196 302 LINE",
"196 700 LINE",
"62 700 LINE",
"62 0 LINE {name = hr00;}"
);
}
);
width = 515;
},
{
layerId = "2D07D9D6-DD7A-4EF1-82E8-8B18836F0AAC";
paths = (
{
closed = 1;
nodes = (
"252 0 LINE",
"252 148 LINE",
"282 148 LINE",
"329 0 LINE",
"553 0 LINE",
"475 261 LINE",
"547 505 LINE",
"326 505 LINE",
"281 343 LINE",
"252 343 LINE",
"252 690 LINE",
"28 690 LINE",
"28 0 LINE {name = hr00;}"
);
}
);
width = 553;
}
);
leftKerningGroup = h;
rightKerningGroup = k;
unicode = 006B;
},
{
glyphname = kcommaaccent;
layers = (
{
components = (
{
name = k;
}
);
layerId = "F1BADE0A-D307-4A55-B1D9-DEBA981FCD10";
paths = (
{
closed = 1;
nodes = (
"201 -267 LINE",
"247 -78 LINE",
"210 -78 LINE {name = hr00;}",
"173 -267 LINE"
);
}
);
width = 455;
},
{
components = (
{
name = k;
}
);
layerId = "D02A7F20-5372-446E-84B7-8F4B885083B2";
paths = (
{
closed = 1;
nodes = (
"111 -311 LINE",
"166 -77 LINE",
"36 -77 LINE {name = hr00;}",
"-10 -311 LINE"
);
}
);
width = 515;
},
{
components = (
{
name = k;
}
);
layerId = "2D07D9D6-DD7A-4EF1-82E8-8B18836F0AAC";
paths = (
{
closed = 1;
nodes = (
"340 -260 LINE",
"402 -45 LINE",
"198 -45 LINE",
"178 -260 LINE"
);
}
);
width = 553;
}
);
leftKerningGroup = h;
rightKerningGroup = k;
unicode = 0137;
},
{
glyphname = l;
layers = (
{
layerId = "F1BADE0A-D307-4A55-B1D9-DEBA981FCD10";
paths = (
{
closed = 1;
nodes = (
"120 0 LINE",
"120 730 LINE",
"85 730 LINE",
"85 0 LINE {name = hr00;}"
);
}
);
width = 205;
},
{
layerId = "D02A7F20-5372-446E-84B7-8F4B885083B2";
paths = (
{
closed = 1;
nodes = (
"202 0 LINE",
"202 700 LINE",
"68 700 LINE",
"68 0 LINE {name = hr00;}"
);
}
);
width = 270;
},
{
layerId = "2D07D9D6-DD7A-4EF1-82E8-8B18836F0AAC";
paths = (
{
closed = 1;
nodes = (
"252 0 LINE",
"252 690 LINE",
"28 690 LINE",
"28 0 LINE {name = hr00;}"
);
}
);
width = 280;
}
);
leftKerningGroup = l;
rightKerningGroup = l;
unicode = 006C;
},
{
glyphname = lcaron;
layers = (
{
components = (
{
name = l;
}
);
layerId = "F1BADE0A-D307-4A55-B1D9-DEBA981FCD10";
paths = (
{
closed = 1;
nodes = (
"214 498 LINE",
"260 687 LINE",
"223 687 LINE {name = hr01;}",
"186 498 LINE"
);
}
);
width = 199;
},
{
components = (
{
name = l;
}
);
layerId = "D02A7F20-5372-446E-84B7-8F4B885083B2";
paths = (
{
closed = 1;
nodes = (
"378 444 LINE",
"433 678 LINE",
"303 678 LINE {name = hr01;}",
"257 444 LINE"
);
}
);
width = 377;
},
{
components = (
{
name = l;
}
);
layerId = "2D07D9D6-DD7A-4EF1-82E8-8B18836F0AAC";
paths = (
{
closed = 1;
nodes = (
"454 454 LINE",
"516 669 LINE",
"312 669 LINE",
"292 454 LINE"
);
}
);
width = 459;
}
);
leftKerningGroup = l;
rightKerningGroup = lcaron;
unicode = 013E;
},
{
glyphname = lslash;
layers = (
{
components = (
{
name = l;
transform = "{1, 0, 0, 1, 26, 0}";
}
);
layerId = "F1BADE0A-D307-4A55-B1D9-DEBA981FCD10";
paths = (
{
closed = 1;
nodes = (
"246 414 LINE {name = hr00;}",
"227 441 LINE",
"14 292 LINE",
"33 265 LINE"
);
}
);
width = 263;
},
{
components = (
{
name = l;
transform = "{1, 0, 0, 1, 51, 0}";
}
);
layerId = "D02A7F20-5372-446E-84B7-8F4B885083B2";
paths = (
{
closed = 1;
nodes = (
"381 402 LINE {name = hr00;}",
"316 492 LINE",
"3 273 LINE",
"68 183 LINE"
);
}
);
width = 381;
},
{
components = (
{
name = l;
transform = "{1, 0, 0, 1, 13, 0}";
}
);
layerId = "2D07D9D6-DD7A-4EF1-82E8-8B18836F0AAC";
paths = (
{
closed = 1;
nodes = (
"304 281 LINE",
"304 468 LINE",
"4 318 LINE",
"4 131 LINE"
);
}
);
width = 308;
}
);
leftKerningGroup = l;
rightKerningGroup = l;
unicode = 0142;
},
{
glyphname = m;
layers = (
{
layerId = "F1BADE0A-D307-4A55-B1D9-DEBA981FCD10";
paths = (
{
closed = 1;
nodes = (
"114 0 LINE",
"114 427 LINE",
"146 449 OFFCURVE",
"213 477 OFFCURVE",
"278 477 CURVE SMOOTH",
"389 477 OFFCURVE",
"407 428 OFFCURVE",
"407 258 CURVE",
"407 0 LINE",
"442 0 LINE",
"442 260 LINE SMOOTH",
"442 335 OFFCURVE",
"438 390 OFFCURVE",
"424 428 CURVE",
"456 449 OFFCURVE",
"525 477 OFFCURVE",
"596 477 CURVE SMOOTH",
"707 477 OFFCURVE",
"725 428 OFFCURVE",
"725 258 CURVE",
"725 0 LINE",
"760 0 LINE",
"760 260 LINE SMOOTH",
"760 454 OFFCURVE",
"732 509 OFFCURVE",
"596 509 CURVE SMOOTH",
"524 509 OFFCURVE",
"449 478 OFFCURVE",
"412 455 CURVE",
"388 493 OFFCURVE",
"352 509 OFFCURVE",
"278 509 CURVE SMOOTH",
"215 509 OFFCURVE",
"148 481 OFFCURVE",
"114 460 CURVE",
"114 500 LINE",
"79 500 LINE",
"79 0 LINE {name = hr00;}"
);
}
);
width = 834;
},
{
layerId = "D02A7F20-5372-446E-84B7-8F4B885083B2";
paths = (
{
closed = 1;
nodes = (
"196 0 LINE",
"196 374 LINE",
"215 382 OFFCURVE",
"253 392 OFFCURVE",
"285 392 CURVE SMOOTH",
"347 392 OFFCURVE",
"355 347 OFFCURVE",
"355 257 CURVE",
"355 0 LINE",
"489 0 LINE",
"489 259 LINE SMOOTH",
"489 287 OFFCURVE",
"487 341 OFFCURVE",
"485 373 CURVE",
"508 381 OFFCURVE",
"549 392 OFFCURVE",
"578 392 CURVE SMOOTH",
"638 392 OFFCURVE",
"648 343 OFFCURVE",
"648 267 CURVE",
"648 0 LINE",
"782 0 LINE",
"782 271 LINE SMOOTH",
"782 432 OFFCURVE",
"742 512 OFFCURVE",
"606 512 CURVE SMOOTH",
"551 512 OFFCURVE",
"478 485 OFFCURVE",
"438 465 CURVE",
"408 497 OFFCURVE",
"369 512 OFFCURVE",
"313 512 CURVE SMOOTH",
"277 512 OFFCURVE",
"225 489 OFFCURVE",
"195 472 CURVE",
"195 500 LINE",
"62 500 LINE",
"62 0 LINE {name = hr00;}"
);
}
);
width = 839;
},
{
layerId = "2D07D9D6-DD7A-4EF1-82E8-8B18836F0AAC";
paths = (
{
closed = 1;
nodes = (
"252 0 LINE",
"252 320 LINE",
"259 322 OFFCURVE",
"274 325 OFFCURVE",
"289 325 CURVE SMOOTH",
"313 325 OFFCURVE",
"321 289 OFFCURVE",
"321 228 CURVE SMOOTH",
"321 0 LINE",
"545 0 LINE",
"545 232 LINE SMOOTH",
"545 267 OFFCURVE",
"543 304 OFFCURVE",
"538 319 CURVE",
"548 322 OFFCURVE",
"566 325 OFFCURVE",
"581 325 CURVE SMOOTH",
"605 325 OFFCURVE",
"614 289 OFFCURVE",
"614 228 CURVE SMOOTH",
"614 0 LINE",
"838 0 LINE",
"838 255 LINE SMOOTH",
"838 429 OFFCURVE",
"798 518 OFFCURVE",
"635 518 CURVE SMOOTH",
"577 518 OFFCURVE",
"516 492 OFFCURVE",
"485 473 CURVE",
"462 498 OFFCURVE",
"429 518 OFFCURVE",
"374 518 CURVE SMOOTH {name = hr01;}",
"332 518 OFFCURVE",
"279 496 OFFCURVE",
"251 479 CURVE",
"251 505 LINE",
"28 505 LINE",
"28 0 LINE {name = hr00;}"
);
}
);
width = 861;
}
);
leftKerningGroup = n;
rightKerningGroup = n;
unicode = 006D;
},
{
glyphname = n;
layers = (
{
layerId = "F1BADE0A-D307-4A55-B1D9-DEBA981FCD10";
paths = (
{
closed = 1;
nodes = (
"114 0 LINE",
"114 427 LINE",
"151 449 OFFCURVE",
"224 477 OFFCURVE",
"289 477 CURVE SMOOTH",
"400 477 OFFCURVE",
"418 428 OFFCURVE",
"418 258 CURVE",
"418 0 LINE",
"453 0 LINE",
"453 260 LINE SMOOTH",
"453 454 OFFCURVE",
"425 509 OFFCURVE",
"289 509 CURVE SMOOTH",
"226 509 OFFCURVE",
"152 481 OFFCURVE",
"114 460 CURVE",
"114 500 LINE",
"79 500 LINE",
"79 0 LINE {name = hr00;}"
);
}
);
width = 527;
},
{
layerId = "D02A7F20-5372-446E-84B7-8F4B885083B2";
paths = (
{
closed = 1;
nodes = (
"196 0 LINE",
"196 374 LINE",
"215 382 OFFCURVE",
"253 392 OFFCURVE",
"287 392 CURVE SMOOTH",
"352 392 OFFCURVE",
"362 343 OFFCURVE",
"362 267 CURVE",
"362 0 LINE",
"496 0 LINE",
"496 271 LINE SMOOTH",
"496 424 OFFCURVE",
"460 512 OFFCURVE",
"320 512 CURVE SMOOTH",
"278 512 OFFCURVE",
"224 489 OFFCURVE",
"195 472 CURVE",
"195 500 LINE",
"62 500 LINE",
"62 0 LINE {name = hr00;}"
);
}
);
width = 553;
},
{
layerId = "2D07D9D6-DD7A-4EF1-82E8-8B18836F0AAC";
paths = (
{
closed = 1;
nodes = (
"252 0 LINE",
"252 318 LINE",
"262 321 OFFCURVE",
"281 325 OFFCURVE",
"295 325 CURVE SMOOTH",
"319 325 OFFCURVE",
"331 299 OFFCURVE",
"331 238 CURVE SMOOTH",
"331 0 LINE",
"555 0 LINE",
"555 253 LINE SMOOTH",
"555 451 OFFCURVE",
"504 518 OFFCURVE",
"361 518 CURVE SMOOTH",
"327 518 OFFCURVE",
"278 496 OFFCURVE",
"251 479 CURVE",
"251 505 LINE",
"28 505 LINE",
"28 0 LINE {name = hr00;}"
);
}
);
width = 578;
}
);
leftKerningGroup = n;
rightKerningGroup = n;
unicode = 006E;
},
{
glyphname = ncommaaccent;
layers = (
{
components = (
{
name = n;
}
);
layerId = "F1BADE0A-D307-4A55-B1D9-DEBA981FCD10";
paths = (
{
closed = 1;
nodes = (
"247 -267 LINE",
"293 -78 LINE",
"256 -78 LINE {name = hr00;}",
"219 -267 LINE"
);
}
);
width = 527;
},
{
components = (
{
name = n;
}
);
layerId = "D02A7F20-5372-446E-84B7-8F4B885083B2";
paths = (
{
closed = 1;
nodes = (
"111 -311 LINE",
"166 -77 LINE",
"36 -77 LINE {name = hr00;}",
"-10 -311 LINE"
);
}
);
width = 553;
},
{
components = (
{
name = n;
}
);
layerId = "2D07D9D6-DD7A-4EF1-82E8-8B18836F0AAC";
paths = (
{
closed = 1;
nodes = (
"341 -260 LINE",
"403 -45 LINE",
"199 -45 LINE",
"179 -260 LINE"
);
}
);
width = 578;
}
);
leftKerningGroup = n;
rightKerningGroup = n;
unicode = 0146;
},
{
glyphname = eng;
layers = (
{
layerId = "F1BADE0A-D307-4A55-B1D9-DEBA981FCD10";
paths = (
{
closed = 1;
nodes = (
"424 -161 OFFCURVE",
"454 -122 OFFCURVE",
"454 -7 CURVE",
"454 260 LINE SMOOTH",
"454 444 OFFCURVE",
"426 509 OFFCURVE",
"290 509 CURVE SMOOTH",
"227 509 OFFCURVE",
"153 481 OFFCURVE",
"114 460 CURVE",
"114 500 LINE",
"79 500 LINE",
"79 0 LINE {name = hr00;}",
"114 0 LINE",
"114 427 LINE",
"151 449 OFFCURVE",
"225 477 OFFCURVE",
"290 477 CURVE SMOOTH",
"401 477 OFFCURVE",
"419 418 OFFCURVE",
"419 258 CURVE",
"419 -6 LINE SMOOTH",
"419 -104 OFFCURVE",
"395 -137 OFFCURVE",
"291 -199 CURVE",
"305 -230 LINE"
);
}
);
width = 528;
},
{
layerId = "D02A7F20-5372-446E-84B7-8F4B885083B2";
paths = (
{
closed = 1;
nodes = (
"467 -178 OFFCURVE",
"496 -134 OFFCURVE",
"496 5 CURVE",
"496 261 LINE SMOOTH",
"496 413 OFFCURVE",
"454 512 OFFCURVE",
"324 512 CURVE SMOOTH",
"290 512 OFFCURVE",
"230 492 OFFCURVE",
"195 477 CURVE",
"195 499 LINE",
"61 499 LINE",
"61 0 LINE {name = hr00;}",
"195 0 LINE",
"195 371 LINE",
"224 379 OFFCURVE",
"272 389 OFFCURVE",
"296 389 CURVE SMOOTH",
"351 389 OFFCURVE",
"362 327 OFFCURVE",
"362 261 CURVE",
"362 0 LINE SMOOTH",
"362 -72 OFFCURVE",
"349 -87 OFFCURVE",
"258 -137 CURVE",
"318 -248 LINE"
);
}
);
width = 552;
},
{
layerId = "2D07D9D6-DD7A-4EF1-82E8-8B18836F0AAC";
paths = (
{
closed = 1;
nodes = (
"512 -158 OFFCURVE",
"555 -128 OFFCURVE",
"555 73 CURVE SMOOTH",
"555 253 LINE SMOOTH",
"555 451 OFFCURVE",
"504 518 OFFCURVE",
"361 518 CURVE SMOOTH",
"327 518 OFFCURVE",
"278 496 OFFCURVE",
"251 479 CURVE",
"251 505 LINE",
"28 505 LINE",
"28 0 LINE {name = hr00;}",
"252 0 LINE",
"252 318 LINE",
"262 321 OFFCURVE",
"281 325 OFFCURVE",
"295 325 CURVE SMOOTH",
"319 325 OFFCURVE",
"331 299 OFFCURVE",
"331 238 CURVE SMOOTH",
"331 66 LINE",
"331 -6 OFFCURVE",
"323 -12 OFFCURVE",
"242 -50 CURVE",
"314 -220 LINE"
);
}
);
width = 578;
}
);
leftKerningGroup = n;
rightKerningGroup = n;
unicode = 014B;
},
{
glyphname = o;
layers = (
{
layerId = "F1BADE0A-D307-4A55-B1D9-DEBA981FCD10";
paths = (
{
closed = 1;
nodes = (
"428 -9 OFFCURVE",
"466 58 OFFCURVE",
"466 259 CURVE SMOOTH",
"466 444 OFFCURVE",
"411 509 OFFCURVE",
"263 509 CURVE SMOOTH {name = hr00;}",
"115 509 OFFCURVE",
"60 444 OFFCURVE",
"60 259 CURVE SMOOTH",
"60 58 OFFCURVE",
"98 -9 OFFCURVE",
"263 -9 CURVE SMOOTH"
);
},
{
closed = 1;
nodes = (
"115 23 OFFCURVE",
"97 87 OFFCURVE",
"97 259 CURVE SMOOTH",
"97 427 OFFCURVE",
"135 477 OFFCURVE",
"263 477 CURVE SMOOTH",
"391 477 OFFCURVE",
"429 427 OFFCURVE",
"429 259 CURVE SMOOTH",
"429 87 OFFCURVE",
"411 23 OFFCURVE",
"263 23 CURVE SMOOTH"
);
}
);
width = 526;
},
{
layerId = "D02A7F20-5372-446E-84B7-8F4B885083B2";
paths = (
{
closed = 1;
nodes = (
"440 -12 OFFCURVE",
"496 97 OFFCURVE",
"496 251 CURVE SMOOTH",
"496 405 OFFCURVE",
"440 512 OFFCURVE",
"266 512 CURVE SMOOTH {name = hr00;}",
"92 512 OFFCURVE",
"36 405 OFFCURVE",
"36 251 CURVE SMOOTH",
"36 97 OFFCURVE",
"92 -12 OFFCURVE",
"266 -12 CURVE SMOOTH"
);
},
{
closed = 1;
nodes = (
"192 102 OFFCURVE",
"172 154 OFFCURVE",
"172 251 CURVE SMOOTH",
"172 348 OFFCURVE",
"192 398 OFFCURVE",
"266 398 CURVE SMOOTH",
"340 398 OFFCURVE",
"360 348 OFFCURVE",
"360 251 CURVE SMOOTH",
"360 154 OFFCURVE",
"340 102 OFFCURVE",
"266 102 CURVE SMOOTH"
);
}
);
width = 532;
},
{
layerId = "2D07D9D6-DD7A-4EF1-82E8-8B18836F0AAC";
paths = (
{
closed = 1;
nodes = (
"455 -13 OFFCURVE",
"549 58 OFFCURVE",
"549 253 CURVE SMOOTH",
"549 445 OFFCURVE",
"455 518 OFFCURVE",
"282 518 CURVE SMOOTH {name = hr00;}",
"109 518 OFFCURVE",
"15 445 OFFCURVE",
"15 253 CURVE SMOOTH",
"15 58 OFFCURVE",
"109 -13 OFFCURVE",
"282 -13 CURVE SMOOTH"
);
},
{
closed = 1;
nodes = (
"251 168 OFFCURVE",
"241 188 OFFCURVE",
"241 253 CURVE SMOOTH",
"241 317 OFFCURVE",
"251 337 OFFCURVE",
"282 337 CURVE SMOOTH",
"313 337 OFFCURVE",
"323 318 OFFCURVE",
"323 253 CURVE SMOOTH",
"323 188 OFFCURVE",
"313 168 OFFCURVE",
"282 168 CURVE"
);
}
);
width = 564;
}
);
leftKerningGroup = o;
rightKerningGroup = o;
unicode = 006F;
},
{
glyphname = oslash;
layers = (
{
components = (
{
name = o;
}
);
layerId = "F1BADE0A-D307-4A55-B1D9-DEBA981FCD10";
paths = (
{
closed = 1;
nodes = (
"423 594 LINE",
"393 605 LINE",
"212 164 LINE",
"238 142 LINE"
);
},
{
closed = 1;
nodes = (
"299 292 LINE",
"274 314 LINE",
"103 -103 LINE",
"133 -114 LINE"
);
}
);
width = 526;
},
{
components = (
{
name = o;
}
);
layerId = "D02A7F20-5372-446E-84B7-8F4B885083B2";
paths = (
{
closed = 1;
nodes = (
"443 577 LINE",
"362 607 LINE",
"204 222 LINE",
"270 154 LINE"
);
},
{
closed = 1;
nodes = (
"321 278 LINE",
"247 327 LINE",
"81 -78 LINE",
"162 -108 LINE"
);
}
);
width = 532;
},
{
components = (
{
name = o;
}
);
layerId = "2D07D9D6-DD7A-4EF1-82E8-8B18836F0AAC";
paths = (
{
closed = 1;
nodes = (
"566 546 LINE",
"349 589 LINE",
"271 454 LINE",
"482 398 LINE"
);
},
{
closed = 1;
nodes = (
"259 8 LINE",
"63 89 LINE",
"-5 -30 LINE",
"212 -74 LINE"
);
}
);
width = 564;
},
{
associatedMasterId = "F1BADE0A-D307-4A55-B1D9-DEBA981FCD10";
components = (
{
name = o;
}
);
layerId = "3DB36CBC-54E4-45A4-92B1-426799CC1F9C";
name = "Apr 14 18, 13:59";
paths = (
{
closed = 1;
nodes = (
"184 12 LINE",
"189 25 LINE",
"369 463 LINE",
"374 476 LINE",
"423 594 LINE",
"393 605 LINE",
"345 488 LINE",
"340 474 LINE",
"161 34 LINE",
"154 21 LINE",
"103 -104 LINE",
"133 -114 LINE"
);
}
);
width = 526;
},
{
associatedMasterId = "D02A7F20-5372-446E-84B7-8F4B885083B2";
components = (
{
name = o;
}
);
layerId = "28BBFF43-01C1-471B-8366-9DE4DB220376";
name = "Apr 14 18, 14:00";
paths = (
{
closed = 1;
nodes = (
"212 14 LINE",
"215 27 LINE",
"388 455 LINE",
"398 468 LINE",
"443 577 LINE",
"362 607 LINE",
"318 497 LINE",
"314 484 LINE",
"143 53 LINE",
"131 40 LINE",
"82 -78 LINE",
"162 -108 LINE"
);
}
);
width = 532;
}
);
leftKerningGroup = o;
rightKerningGroup = o;
unicode = 00F8;
},
{
glyphname = oslashacute;
layers = (
{
components = (
{
name = acute;
transform = "{1, 0, 0, 1, 119, 0}";
},
{
name = oslash;
}
);
layerId = "F1BADE0A-D307-4A55-B1D9-DEBA981FCD10";
width = 526;
},
{
components = (
{
name = acute;
transform = "{1, 0, 0, 1, 116, 0}";
},
{
name = oslash;
}
);
layerId = "D02A7F20-5372-446E-84B7-8F4B885083B2";
width = 532;
},
{
components = (
{
name = acute;
transform = "{1, 0, 0, 1, -32, 0}";
},
{
name = oslash;
}
);
layerId = "2D07D9D6-DD7A-4EF1-82E8-8B18836F0AAC";
width = 564;
},
{
associatedMasterId = "F1BADE0A-D307-4A55-B1D9-DEBA981FCD10";
components = (
{
name = acute;
transform = "{1, 0, 0, 1, 119, 0}";
},
{
name = o;
}
);
layerId = "85301149-5C04-4343-BB2C-C97DC8EC5FEF";
name = "Apr 14 18, 14:03";
paths = (
{
closed = 1;
nodes = (
"184 12 LINE",
"189 25 LINE",
"369 463 LINE",
"374 476 LINE",
"423 594 LINE",
"393 605 LINE",
"345 488 LINE",
"340 474 LINE",
"161 34 LINE",
"154 21 LINE",
"103 -104 LINE",
"133 -114 LINE"
);
}
);
width = 526;
},
{
associatedMasterId = "D02A7F20-5372-446E-84B7-8F4B885083B2";
components = (
{
name = acute;
transform = "{1, 0, 0, 1, 116, 0}";
},
{
name = o;
}
);
layerId = "AC76A02C-2754-42C4-82AA-A5D90B4B8094";
name = "Apr 14 18, 14:03";
paths = (
{
closed = 1;
nodes = (
"212 14 LINE",
"215 27 LINE",
"388 455 LINE",
"398 468 LINE",
"443 577 LINE",
"362 607 LINE",
"318 497 LINE",
"314 484 LINE",
"143 53 LINE",
"131 40 LINE",
"82 -78 LINE",
"162 -108 LINE"
);
}
);
width = 532;
},
{
associatedMasterId = "2D07D9D6-DD7A-4EF1-82E8-8B18836F0AAC";
components = (
{
name = o;
},
{
name = acute;
transform = "{1, 0, 0, 1, -32, 0}";
}
);
layerId = "AAB50A25-7ADC-4101-A01F-6804BF9FA0FF";
name = "Apr 14 18, 14:03";
paths = (
{
closed = 1;
nodes = (
"566 546 LINE",
"473 565 OFFCURVE",
"349 590 OFFCURVE",
"349 589 CURVE",
"349 588 OFFCURVE",
"305 512 OFFCURVE",
"271 454 CURVE",
"482 398 LINE"
);
},
{
closed = 1;
nodes = (
"212 -74 OFFCURVE",
"259 8 OFFCURVE",
"259 8 CURVE",
"259 8 OFFCURVE",
"63 89 OFFCURVE",
"63 89 CURVE",
"63 89 OFFCURVE",
"-5 -30 OFFCURVE",
"-5 -30 CURVE",
"212 -74 LINE"
);
}
);
width = 564;
}
);
leftKerningGroup = o;
rightKerningGroup = o;
unicode = 01FF;
},
{
glyphname = oe;
layers = (
{
layerId = "F1BADE0A-D307-4A55-B1D9-DEBA981FCD10";
paths = (
{
closed = 1;
nodes = (
"371 -9 OFFCURVE",
"424 24 OFFCURVE",
"448 98 CURVE",
"473 30 OFFCURVE",
"523 -9 OFFCURVE",
"617 -9 CURVE SMOOTH",
"670 -9 OFFCURVE",
"754 -4 OFFCURVE",
"802 0 CURVE",
"800 32 LINE",
"752 28 OFFCURVE",
"669 23 OFFCURVE",
"618 23 CURVE SMOOTH {name = hr00;}",
"502 23 OFFCURVE",
"466 98 OFFCURVE",
"466 236 CURVE",
"821 236 LINE",
"821 269 LINE",
"821 442 OFFCURVE",
"754 509 OFFCURVE",
"631 509 CURVE SMOOTH",
"550 509 OFFCURVE",
"482 478 OFFCURVE",
"449 389 CURVE",
"422 474 OFFCURVE",
"361 509 OFFCURVE",
"265 509 CURVE SMOOTH",
"117 509 OFFCURVE",
"60 446 OFFCURVE",
"60 261 CURVE SMOOTH",
"60 60 OFFCURVE",
"99 -9 OFFCURVE",
"265 -9 CURVE SMOOTH"
);
},
{
closed = 1;
nodes = (
"118 23 OFFCURVE",
"97 89 OFFCURVE",
"97 261 CURVE SMOOTH",
"97 429 OFFCURVE",
"137 477 OFFCURVE",
"265 477 CURVE SMOOTH",
"376 477 OFFCURVE",
"429 419 OFFCURVE",
"429 259 CURVE SMOOTH",
"429 100 OFFCURVE",
"412 23 OFFCURVE",
"265 23 CURVE SMOOTH"
);
},
{
closed = 1;
nodes = (
"466 419 OFFCURVE",
"531 477 OFFCURVE",
"631 477 CURVE SMOOTH",
"735 477 OFFCURVE",
"784 421 OFFCURVE",
"784 268 CURVE",
"466 268 LINE"
);
}
);
width = 873;
},
{
layerId = "D02A7F20-5372-446E-84B7-8F4B885083B2";
paths = (
{
closed = 1;
nodes = (
"336 -12 OFFCURVE",
"386 5 OFFCURVE",
"422 56 CURVE",
"457 3 OFFCURVE",
"507 -12 OFFCURVE",
"575 -12 CURVE SMOOTH",
"643 -12 OFFCURVE",
"734 4 OFFCURVE",
"783 16 CURVE",
"781 120 LINE",
"737 116 OFFCURVE",
"656 111 OFFCURVE",
"596 111 CURVE SMOOTH {name = hr00;}",
"524 111 OFFCURVE",
"496 135 OFFCURVE",
"495 192 CURVE",
"789 192 LINE",
"799 286 LINE",
"799 437 OFFCURVE",
"728 511 OFFCURVE",
"581 511 CURVE SMOOTH",
"516 511 OFFCURVE",
"465 493 OFFCURVE",
"428 430 CURVE",
"392 491 OFFCURVE",
"340 511 OFFCURVE",
"266 511 CURVE SMOOTH",
"92 511 OFFCURVE",
"36 404 OFFCURVE",
"36 250 CURVE SMOOTH",
"36 96 OFFCURVE",
"92 -12 OFFCURVE",
"266 -12 CURVE SMOOTH"
);
},
{
closed = 1;
nodes = (
"192 109 OFFCURVE",
"172 158 OFFCURVE",
"172 250 CURVE SMOOTH",
"172 342 OFFCURVE",
"192 390 OFFCURVE",
"266 390 CURVE SMOOTH",
"340 390 OFFCURVE",
"360 342 OFFCURVE",
"360 250 CURVE SMOOTH",
"360 158 OFFCURVE",
"340 109 OFFCURVE",
"266 109 CURVE SMOOTH"
);
},
{
closed = 1;
nodes = (
"494 360 OFFCURVE",
"517 392 OFFCURVE",
"581 392 CURVE SMOOTH",
"644 392 OFFCURVE",
"667 366 OFFCURVE",
"667 295 CURVE",
"494 295 LINE"
);
}
);
width = 834;
},
{
layerId = "2D07D9D6-DD7A-4EF1-82E8-8B18836F0AAC";
paths = (
{
closed = 1;
nodes = (
"354 -13 OFFCURVE",
"402 1 OFFCURVE",
"434 31 CURVE",
"461 2 OFFCURVE",
"506 -13 OFFCURVE",
"580 -13 CURVE SMOOTH",
"670 -13 OFFCURVE",
"779 4 OFFCURVE",
"836 16 CURVE",
"831 161 LINE",
"770 157 OFFCURVE",
"663 152 OFFCURVE",
"596 152 CURVE SMOOTH",
"562 152 OFFCURVE",
"548 162 OFFCURVE",
"547 187 CURVE",
"836 187 LINE",
"846 286 LINE",
"846 445 OFFCURVE",
"758 518 OFFCURVE",
"585 518 CURVE SMOOTH",
"515 518 OFFCURVE",
"470 501 OFFCURVE",
"442 470 CURVE",
"411 502 OFFCURVE",
"361 518 OFFCURVE",
"282 518 CURVE SMOOTH",
"109 518 OFFCURVE",
"15 445 OFFCURVE",
"15 253 CURVE SMOOTH",
"15 58 OFFCURVE",
"109 -13 OFFCURVE",
"282 -13 CURVE SMOOTH"
);
},
{
closed = 1;
nodes = (
"251 168 OFFCURVE",
"241 188 OFFCURVE",
"241 253 CURVE SMOOTH",
"241 317 OFFCURVE",
"251 337 OFFCURVE",
"282 337 CURVE SMOOTH",
"313 337 OFFCURVE",
"323 318 OFFCURVE",
"323 253 CURVE SMOOTH",
"323 188 OFFCURVE",
"313 168 OFFCURVE",
"282 168 CURVE SMOOTH"
);
},
{
closed = 1;
nodes = (
"547 346 OFFCURVE",
"555 362 OFFCURVE",
"585 362 CURVE SMOOTH",
"612 362 OFFCURVE",
"624 349 OFFCURVE",
"624 309 CURVE",
"546 309 LINE"
);
}
);
width = 860;
}
);
leftKerningGroup = o;
rightKerningGroup = e;
unicode = 0153;
},
{
glyphname = p;
layers = (
{
layerId = "F1BADE0A-D307-4A55-B1D9-DEBA981FCD10";
paths = (
{
closed = 1;
nodes = (
"114 -230 LINE",
"114 5 LINE",
"137 0 OFFCURVE",
"192 -9 OFFCURVE",
"246 -9 CURVE SMOOTH",
"401 -9 OFFCURVE",
"458 72 OFFCURVE",
"458 258 CURVE SMOOTH",
"458 428 OFFCURVE",
"409 509 OFFCURVE",
"287 509 CURVE SMOOTH",
"221 509 OFFCURVE",
"149 480 OFFCURVE",
"114 458 CURVE",
"114 500 LINE",
"79 500 LINE",
"79 -230 LINE {name = hr00;}"
);
},
{
closed = 1;
nodes = (
"192 23 OFFCURVE",
"136 33 OFFCURVE",
"114 37 CURVE",
"114 424 LINE",
"151 447 OFFCURVE",
"224 477 OFFCURVE",
"287 477 CURVE SMOOTH",
"373 477 OFFCURVE",
"421 419 OFFCURVE",
"421 258 CURVE SMOOTH",
"421 88 OFFCURVE",
"375 23 OFFCURVE",
"246 23 CURVE SMOOTH"
);
}
);
width = 516;
},
{
layerId = "D02A7F20-5372-446E-84B7-8F4B885083B2";
paths = (
{
closed = 1;
nodes = (
"196 -210 LINE",
"196 -4 LINE",
"216 -7 OFFCURVE",
"252 -12 OFFCURVE",
"279 -12 CURVE SMOOTH",
"432 -12 OFFCURVE",
"506 41 OFFCURVE",
"506 254 CURVE SMOOTH",
"506 440 OFFCURVE",
"441 512 OFFCURVE",
"309 512 CURVE SMOOTH",
"273 512 OFFCURVE",
"223 490 OFFCURVE",
"195 473 CURVE",
"195 500 LINE",
"62 500 LINE",
"62 -210 LINE {name = hr00;}"
);
},
{
closed = 1;
nodes = (
"249 104 OFFCURVE",
"215 107 OFFCURVE",
"196 110 CURVE",
"196 372 LINE",
"216 381 OFFCURVE",
"253 392 OFFCURVE",
"283 392 CURVE SMOOTH",
"336 392 OFFCURVE",
"370 355 OFFCURVE",
"370 254 CURVE SMOOTH",
"370 148 OFFCURVE",
"349 104 OFFCURVE",
"269 104 CURVE SMOOTH"
);
}
);
width = 544;
},
{
layerId = "2D07D9D6-DD7A-4EF1-82E8-8B18836F0AAC";
paths = (
{
closed = 1;
nodes = (
"252 -195 LINE",
"252 0 LINE",
"274 -6 OFFCURVE",
"311 -13 OFFCURVE",
"334 -13 CURVE SMOOTH",
"497 -13 OFFCURVE",
"554 73 OFFCURVE",
"554 248 CURVE SMOOTH",
"554 419 OFFCURVE",
"502 518 OFFCURVE",
"356 518 CURVE SMOOTH {name = hr01;}",
"315 518 OFFCURVE",
"272 496 OFFCURVE",
"251 479 CURVE",
"249 505 LINE {name = hr00;}",
"28 505 LINE",
"28 -195 LINE"
);
},
{
closed = 1;
nodes = (
"270 168 OFFCURVE",
"258 170 OFFCURVE",
"252 171 CURVE",
"252 330 LINE",
"262 333 OFFCURVE",
"277 337 OFFCURVE",
"284 337 CURVE SMOOTH {name = hr03;}",
"314 337 OFFCURVE",
"328 322 OFFCURVE",
"328 256 CURVE SMOOTH",
"328 210 OFFCURVE",
"321 168 OFFCURVE",
"284 168 CURVE SMOOTH"
);
}
);
width = 570;
}
);
leftKerningGroup = n;
rightKerningGroup = b;
unicode = 0070;
},
{
glyphname = thorn;
layers = (
{
layerId = "F1BADE0A-D307-4A55-B1D9-DEBA981FCD10";
paths = (
{
closed = 1;
nodes = (
"114 -230 LINE",
"114 -3 LINE",
"145 -6 OFFCURVE",
"198 -9 OFFCURVE",
"228 -9 CURVE SMOOTH",
"414 -9 OFFCURVE",
"456 74 OFFCURVE",
"456 261 CURVE SMOOTH",
"456 433 OFFCURVE",
"422 509 OFFCURVE",
"286 509 CURVE SMOOTH",
"221 509 OFFCURVE",
"150 486 OFFCURVE",
"114 469 CURVE",
"114 730 LINE",
"79 730 LINE",
"79 -230 LINE"
);
},
{
closed = 1;
nodes = (
"201 23 OFFCURVE",
"148 26 OFFCURVE",
"114 29 CURVE",
"114 437 LINE",
"150 454 OFFCURVE",
"221 477 OFFCURVE",
"286 477 CURVE SMOOTH",
"397 477 OFFCURVE",
"419 409 OFFCURVE",
"419 259 CURVE SMOOTH",
"419 100 OFFCURVE",
"394 23 OFFCURVE",
"227 23 CURVE SMOOTH {name = hr00;}"
);
}
);
width = 515;
},
{
layerId = "D02A7F20-5372-446E-84B7-8F4B885083B2";
paths = (
{
closed = 1;
nodes = (
"196 -210 LINE",
"196 -4 LINE",
"216 -7 OFFCURVE",
"252 -12 OFFCURVE",
"279 -12 CURVE SMOOTH",
"432 -12 OFFCURVE",
"506 41 OFFCURVE",
"506 255 CURVE SMOOTH",
"506 449 OFFCURVE",
"440 512 OFFCURVE",
"304 512 CURVE SMOOTH",
"272 512 OFFCURVE",
"224 497 OFFCURVE",
"196 485 CURVE",
"196 700 LINE",
"62 700 LINE",
"62 -210 LINE"
);
},
{
closed = 1;
nodes = (
"249 104 OFFCURVE",
"215 107 OFFCURVE",
"196 110 CURVE",
"196 379 LINE",
"218 385 OFFCURVE",
"257 392 OFFCURVE",
"286 392 CURVE SMOOTH",
"338 392 OFFCURVE",
"370 355 OFFCURVE",
"370 255 CURVE SMOOTH",
"370 148 OFFCURVE",
"349 104 OFFCURVE",
"269 104 CURVE SMOOTH {name = hr00;}"
);
}
);
width = 544;
},
{
layerId = "2D07D9D6-DD7A-4EF1-82E8-8B18836F0AAC";
paths = (
{
closed = 1;
nodes = (
"251 -195 LINE",
"251 0 LINE",
"273 -6 OFFCURVE",
"310 -13 OFFCURVE",
"333 -13 CURVE SMOOTH",
"496 -13 OFFCURVE",
"553 73 OFFCURVE",
"553 248 CURVE SMOOTH",
"553 419 OFFCURVE",
"501 518 OFFCURVE",
"355 518 CURVE SMOOTH",
"328 518 OFFCURVE",
"280 509 OFFCURVE",
"251 502 CURVE",
"251 703 LINE",
"27 703 LINE",
"27 -195 LINE"
);
},
{
closed = 1;
nodes = (
"269 168 OFFCURVE",
"257 170 OFFCURVE",
"251 171 CURVE",
"251 330 LINE",
"261 333 OFFCURVE",
"276 337 OFFCURVE",
"283 337 CURVE SMOOTH",
"313 337 OFFCURVE",
"327 322 OFFCURVE",
"327 256 CURVE SMOOTH",
"327 210 OFFCURVE",
"320 168 OFFCURVE",
"283 168 CURVE SMOOTH"
);
}
);
width = 569;
}
);
leftKerningGroup = b;
rightKerningGroup = b;
unicode = 00FE;
},
{
glyphname = q;
layers = (
{
layerId = "F1BADE0A-D307-4A55-B1D9-DEBA981FCD10";
paths = (
{
closed = 1;
nodes = (
"435 -230 LINE",
"435 500 LINE",
"392 504 OFFCURVE",
"321 509 OFFCURVE",
"286 509 CURVE SMOOTH",
"110 509 OFFCURVE",
"58 426 OFFCURVE",
"58 242 CURVE SMOOTH",
"58 75 OFFCURVE",
"102 -9 OFFCURVE",
"238 -9 CURVE SMOOTH {name = hr00;}",
"303 -9 OFFCURVE",
"369 13 OFFCURVE",
"400 29 CURVE",
"400 -230 LINE"
);
},
{
closed = 1;
nodes = (
"127 23 OFFCURVE",
"95 101 OFFCURVE",
"95 242 CURVE SMOOTH",
"95 400 OFFCURVE",
"130 477 OFFCURVE",
"287 477 CURVE SMOOTH",
"313 477 OFFCURVE",
"366 474 OFFCURVE",
"400 471 CURVE",
"400 63 LINE",
"369 46 OFFCURVE",
"303 23 OFFCURVE",
"238 23 CURVE SMOOTH"
);
}
);
width = 514;
},
{
layerId = "D02A7F20-5372-446E-84B7-8F4B885083B2";
paths = (
{
closed = 1;
nodes = (
"481 -210 LINE",
"481 499 LINE",
"422 505 OFFCURVE",
"328 512 OFFCURVE",
"286 512 CURVE SMOOTH",
"110 512 OFFCURVE",
"38 458 OFFCURVE",
"38 243 CURVE SMOOTH",
"38 51 OFFCURVE",
"103 -12 OFFCURVE",
"239 -12 CURVE SMOOTH {name = hr00;}",
"271 -12 OFFCURVE",
"319 3 OFFCURVE",
"347 15 CURVE",
"347 -210 LINE"
);
},
{
closed = 1;
nodes = (
"205 108 OFFCURVE",
"172 142 OFFCURVE",
"172 243 CURVE SMOOTH",
"172 351 OFFCURVE",
"194 396 OFFCURVE",
"286 396 CURVE SMOOTH",
"304 396 OFFCURVE",
"331 394 OFFCURVE",
"347 392 CURVE",
"347 121 LINE",
"326 115 OFFCURVE",
"286 108 OFFCURVE",
"257 108 CURVE SMOOTH"
);
}
);
width = 543;
},
{
layerId = "2D07D9D6-DD7A-4EF1-82E8-8B18836F0AAC";
paths = (
{
closed = 1;
nodes = (
"542 -194 LINE",
"542 502 LINE",
"468 509 OFFCURVE",
"349 519 OFFCURVE",
"290 519 CURVE SMOOTH",
"101 519 OFFCURVE",
"16 448 OFFCURVE",
"16 245 CURVE SMOOTH",
"16 94 OFFCURVE",
"66 -13 OFFCURVE",
"214 -13 CURVE SMOOTH {name = hr00;}",
"242 -13 OFFCURVE",
"290 -3 OFFCURVE",
"318 4 CURVE",
"318 -194 LINE"
);
},
{
closed = 1;
nodes = (
"256 169 OFFCURVE",
"242 185 OFFCURVE",
"242 250 CURVE SMOOTH",
"242 297 OFFCURVE",
"249 338 OFFCURVE",
"286 338 CURVE SMOOTH",
"300 338 OFFCURVE",
"312 336 OFFCURVE",
"318 335 CURVE",
"318 175 LINE",
"309 172 OFFCURVE",
"294 169 OFFCURVE",
"286 169 CURVE SMOOTH"
);
}
);
width = 570;
}
);
leftKerningGroup = d;
rightKerningGroup = u;
unicode = 0071;
},
{
glyphname = r;
layers = (
{
layerId = "F1BADE0A-D307-4A55-B1D9-DEBA981FCD10";
paths = (
{
closed = 1;
nodes = (
"114 0 LINE",
"114 389 LINE",
"157 417 OFFCURVE",
"240 459 OFFCURVE",
"312 474 CURVE",
"312 510 LINE",
"232 495 OFFCURVE",
"152 451 OFFCURVE",
"114 422 CURVE",
"114 500 LINE",
"79 500 LINE",
"79 0 LINE {name = hr00;}"
);
}
);
width = 328;
},
{
layerId = "D02A7F20-5372-446E-84B7-8F4B885083B2";
paths = (
{
closed = 1;
nodes = (
"196 0 LINE",
"196 335 LINE",
"227 346 OFFCURVE",
"291 365 OFFCURVE",
"355 377 CURVE",
"355 512 LINE",
"300 501 OFFCURVE",
"231 469 OFFCURVE",
"195 447 CURVE",
"195 500 LINE",
"62 500 LINE",
"62 0 LINE {name = hr00;}"
);
}
);
width = 372;
},
{
layerId = "2D07D9D6-DD7A-4EF1-82E8-8B18836F0AAC";
paths = (
{
closed = 1;
nodes = (
"252 0 LINE",
"252 274 LINE {name = hr00;}",
"281 289 OFFCURVE",
"330 310 OFFCURVE",
"358 310 CURVE",
"358 518 LINE",
"327 518 OFFCURVE",
"279 484 OFFCURVE",
"252 458 CURVE",
"252 505 LINE",
"28 505 LINE",
"28 0 LINE"
);
}
);
width = 368;
}
);
leftKerningGroup = n;
rightKerningGroup = r;
unicode = 0072;
},
{
glyphname = rcommaaccent;
layers = (
{
components = (
{
name = r;
}
);
layerId = "F1BADE0A-D307-4A55-B1D9-DEBA981FCD10";
paths = (
{
closed = 1;
nodes = (
"70 -267 LINE",
"116 -78 LINE",
"79 -78 LINE {name = hr00;}",
"42 -267 LINE"
);
}
);
width = 328;
},
{
components = (
{
name = r;
}
);
layerId = "D02A7F20-5372-446E-84B7-8F4B885083B2";
paths = (
{
closed = 1;
nodes = (
"137 -311 LINE",
"192 -77 LINE",
"62 -77 LINE {name = hr00;}",
"16 -311 LINE"
);
}
);
width = 372;
},
{
components = (
{
name = r;
}
);
layerId = "2D07D9D6-DD7A-4EF1-82E8-8B18836F0AAC";
paths = (
{
closed = 1;
nodes = (
"190 -260 LINE",
"252 -45 LINE",
"48 -45 LINE",
"28 -260 LINE"
);
}
);
width = 368;
}
);
leftKerningGroup = n;
rightKerningGroup = r;
unicode = 0157;
},
{
glyphname = s;
layers = (
{
layerId = "F1BADE0A-D307-4A55-B1D9-DEBA981FCD10";
paths = (
{
closed = 1;
nodes = (
"340 -9 OFFCURVE",
"412 27 OFFCURVE",
"412 144 CURVE SMOOTH",
"412 238 OFFCURVE",
"361 257 OFFCURVE",
"230 278 CURVE SMOOTH",
"115 296 OFFCURVE",
"88 315 OFFCURVE",
"88 377 CURVE SMOOTH",
"88 458 OFFCURVE",
"158 477 OFFCURVE",
"222 477 CURVE SMOOTH",
"272 477 OFFCURVE",
"348 468 OFFCURVE",
"392 461 CURVE",
"394 494 LINE {name = hr00;}",
"353 500 OFFCURVE",
"278 509 OFFCURVE",
"222 509 CURVE SMOOTH",
"141 509 OFFCURVE",
"51 481 OFFCURVE",
"51 375 CURVE SMOOTH",
"51 282 OFFCURVE",
"103 263 OFFCURVE",
"220 245 CURVE SMOOTH",
"339 227 OFFCURVE",
"375 213 OFFCURVE",
"375 141 CURVE SMOOTH",
"375 45 OFFCURVE",
"314 23 OFFCURVE",
"220 23 CURVE SMOOTH",
"183 23 OFFCURVE",
"107 33 OFFCURVE",
"61 40 CURVE",
"57 7 LINE",
"103 0 OFFCURVE",
"180 -9 OFFCURVE",
"222 -9 CURVE SMOOTH"
);
}
);
width = 461;
},
{
layerId = "D02A7F20-5372-446E-84B7-8F4B885083B2";
paths = (
{
closed = 1;
nodes = (
"361 -12 OFFCURVE",
"437 33 OFFCURVE",
"437 150 CURVE SMOOTH",
"437 251 OFFCURVE",
"396 285 OFFCURVE",
"280 306 CURVE SMOOTH",
"188 323 OFFCURVE",
"169 328 OFFCURVE",
"169 351 CURVE SMOOTH",
"169 378 OFFCURVE",
"181 391 OFFCURVE",
"239 391 CURVE SMOOTH",
"281 391 OFFCURVE",
"368 382 OFFCURVE",
"421 375 CURVE",
"423 486 LINE {name = hr00;}",
"371 497 OFFCURVE",
"282 511 OFFCURVE",
"229 511 CURVE SMOOTH",
"124 511 OFFCURVE",
"36 464 OFFCURVE",
"36 348 CURVE SMOOTH",
"36 238 OFFCURVE",
"93 212 OFFCURVE",
"201 194 CURVE SMOOTH",
"293 179 OFFCURVE",
"304 169 OFFCURVE",
"304 147 CURVE SMOOTH",
"304 121 OFFCURVE",
"287 108 OFFCURVE",
"223 108 CURVE SMOOTH",
"186 108 OFFCURVE",
"101 117 OFFCURVE",
"48 124 CURVE",
"44 12 LINE",
"95 2 OFFCURVE",
"182 -12 OFFCURVE",
"236 -12 CURVE SMOOTH"
);
}
);
width = 472;
},
{
layerId = "2D07D9D6-DD7A-4EF1-82E8-8B18836F0AAC";
paths = (
{
closed = 1;
nodes = (
"396 -13 OFFCURVE",
"472 35 OFFCURVE",
"472 163 CURVE SMOOTH",
"472 273 OFFCURVE",
"430 315 OFFCURVE",
"308 328 CURVE SMOOTH",
"251 334 OFFCURVE",
"243 336 OFFCURVE",
"243 341 CURVE SMOOTH",
"243 347 OFFCURVE",
"252 349 OFFCURVE",
"275 349 CURVE SMOOTH",
"317 349 OFFCURVE",
"404 341 OFFCURVE",
"457 335 CURVE",
"465 492 LINE {name = hr00;}",
"425 503 OFFCURVE",
"336 518 OFFCURVE",
"243 518 CURVE SMOOTH",
"113 518 OFFCURVE",
"19 479 OFFCURVE",
"19 334 CURVE SMOOTH",
"19 229 OFFCURVE",
"63 187 OFFCURVE",
"175 172 CURVE SMOOTH",
"235 164 OFFCURVE",
"248 162 OFFCURVE",
"248 157 CURVE SMOOTH",
"248 150 OFFCURVE",
"238 148 OFFCURVE",
"214 148 CURVE SMOOTH",
"168 148 OFFCURVE",
"80 158 OFFCURVE",
"27 165 CURVE",
"22 14 LINE",
"59 2 OFFCURVE",
"147 -13 OFFCURVE",
"250 -13 CURVE SMOOTH"
);
}
);
width = 489;
}
);
leftKerningGroup = s;
rightKerningGroup = s;
unicode = 0073;
},
{
glyphname = scommaaccent;
layers = (
{
components = (
{
name = s;
}
);
layerId = "F1BADE0A-D307-4A55-B1D9-DEBA981FCD10";
paths = (
{
closed = 1;
nodes = (
"224 -267 LINE",
"270 -78 LINE",
"233 -78 LINE {name = hr00;}",
"196 -267 LINE"
);
}
);
width = 461;
},
{
components = (
{
name = s;
}
);
layerId = "D02A7F20-5372-446E-84B7-8F4B885083B2";
paths = (
{
closed = 1;
nodes = (
"104 -311 LINE",
"159 -77 LINE",
"29 -77 LINE {name = hr00;}",
"-17 -311 LINE"
);
}
);
width = 472;
},
{
components = (
{
name = s;
}
);
layerId = "2D07D9D6-DD7A-4EF1-82E8-8B18836F0AAC";
paths = (
{
closed = 1;
nodes = (
"295 -260 LINE",
"357 -45 LINE",
"153 -45 LINE",
"133 -260 LINE"
);
}
);
width = 489;
}
);
leftKerningGroup = s;
rightKerningGroup = s;
unicode = 0219;
},
{
glyphname = germandbls;
layers = (
{
layerId = "F1BADE0A-D307-4A55-B1D9-DEBA981FCD10";
paths = (
{
closed = 1;
nodes = (
"452 -9 OFFCURVE",
"506 51 OFFCURVE",
"506 186 CURVE SMOOTH",
"506 269 OFFCURVE",
"471 302 OFFCURVE",
"372 353 CURVE SMOOTH",
"308 386 OFFCURVE",
"288 400 OFFCURVE",
"288 422 CURVE SMOOTH",
"288 444 OFFCURVE",
"302 452 OFFCURVE",
"348 473 CURVE SMOOTH",
"401 497 OFFCURVE",
"421 534 OFFCURVE",
"421 603 CURVE SMOOTH",
"421 697 OFFCURVE",
"380 739 OFFCURVE",
"251 739 CURVE SMOOTH",
"130 739 OFFCURVE",
"79 698 OFFCURVE",
"79 561 CURVE SMOOTH",
"79 0 LINE",
"114 0 LINE {name = hr00;}",
"114 548 LINE",
"114 679 OFFCURVE",
"156 705 OFFCURVE",
"251 705 CURVE SMOOTH",
"351 705 OFFCURVE",
"383 678 OFFCURVE",
"383 603 CURVE SMOOTH",
"383 548 OFFCURVE",
"371 519 OFFCURVE",
"328 499 CURVE SMOOTH",
"280 477 OFFCURVE",
"251 462 OFFCURVE",
"251 422 CURVE SMOOTH",
"251 382 OFFCURVE",
"271 366 OFFCURVE",
"347 327 CURVE SMOOTH",
"439 280 OFFCURVE",
"468 254 OFFCURVE",
"468 181 CURVE SMOOTH",
"468 77 OFFCURVE",
"430 25 OFFCURVE",
"306 25 CURVE SMOOTH",
"280 25 OFFCURVE",
"226 30 OFFCURVE",
"193 34 CURVE",
"191 1 LINE",
"223 -3 OFFCURVE",
"277 -9 OFFCURVE",
"306 -9 CURVE SMOOTH"
);
}
);
width = 549;
},
{
layerId = "D02A7F20-5372-446E-84B7-8F4B885083B2";
paths = (
{
closed = 1;
nodes = (
"531 -12 OFFCURVE",
"588 27 OFFCURVE",
"588 164 CURVE SMOOTH",
"588 245 OFFCURVE",
"552 273 OFFCURVE",
"464 314 CURVE SMOOTH",
"379 353 OFFCURVE",
"370 362 OFFCURVE",
"370 381 CURVE SMOOTH",
"370 398 OFFCURVE",
"379 406 OFFCURVE",
"429 428 CURVE SMOOTH",
"490 455 OFFCURVE",
"523 478 OFFCURVE",
"523 555 CURVE SMOOTH",
"523 669 OFFCURVE",
"443 712 OFFCURVE",
"293 712 CURVE SMOOTH",
"129 712 OFFCURVE",
"62 659 OFFCURVE",
"62 522 CURVE SMOOTH",
"62 0 LINE",
"196 0 LINE {name = hr00;}",
"196 519 LINE",
"196 571 OFFCURVE",
"217 594 OFFCURVE",
"293 594 CURVE SMOOTH",
"363 594 OFFCURVE",
"385 580 OFFCURVE",
"385 545 CURVE SMOOTH",
"385 525 OFFCURVE",
"373 515 OFFCURVE",
"309 489 CURVE SMOOTH",
"255 467 OFFCURVE",
"232 433 OFFCURVE",
"232 368 CURVE SMOOTH",
"232 296 OFFCURVE",
"265 257 OFFCURVE",
"359 217 CURVE SMOOTH",
"441 182 OFFCURVE",
"450 174 OFFCURVE",
"450 144 CURVE SMOOTH",
"450 123 OFFCURVE",
"435 106 OFFCURVE",
"370 106 CURVE SMOOTH",
"343 106 OFFCURVE",
"278 113 OFFCURVE",
"236 118 CURVE",
"232 11 LINE",
"270 1 OFFCURVE",
"338 -12 OFFCURVE",
"386 -12 CURVE SMOOTH"
);
}
);
width = 611;
},
{
layerId = "2D07D9D6-DD7A-4EF1-82E8-8B18836F0AAC";
paths = (
{
closed = 1;
nodes = (
"645 -13 OFFCURVE",
"692 43 OFFCURVE",
"692 175 CURVE SMOOTH",
"692 268 OFFCURVE",
"668 298 OFFCURVE",
"573 332 CURVE SMOOTH",
"507 355 OFFCURVE",
"494 362 OFFCURVE",
"494 382 CURVE SMOOTH",
"494 395 OFFCURVE",
"503 402 OFFCURVE",
"553 429 CURVE SMOOTH",
"606 458 OFFCURVE",
"615 472 OFFCURVE",
"615 538 CURVE SMOOTH",
"615 650 OFFCURVE",
"543 703 OFFCURVE",
"340 703 CURVE SMOOTH",
"110 703 OFFCURVE",
"28 647 OFFCURVE",
"28 453 CURVE SMOOTH",
"28 0 LINE",
"252 0 LINE {name = hr00;}",
"252 460 LINE SMOOTH",
"252 502 OFFCURVE",
"283 515 OFFCURVE",
"339 515 CURVE SMOOTH",
"379 515 OFFCURVE",
"389 501 OFFCURVE",
"389 484 CURVE SMOOTH",
"389 472 OFFCURVE",
"386 463 OFFCURVE",
"345 430 CURVE SMOOTH",
"304 397 OFFCURVE",
"288 374 OFFCURVE",
"288 324 CURVE SMOOTH",
"288 275 OFFCURVE",
"307 243 OFFCURVE",
"380 215 CURVE SMOOTH",
"461 184 OFFCURVE",
"476 177 OFFCURVE",
"476 167 CURVE SMOOTH",
"476 154 OFFCURVE",
"461 148 OFFCURVE",
"438 148 CURVE SMOOTH",
"393 148 OFFCURVE",
"333 154 OFFCURVE",
"299 158 CURVE",
"292 11 LINE",
"332 1 OFFCURVE",
"415 -13 OFFCURVE",
"500 -13 CURVE SMOOTH"
);
}
);
width = 697;
}
);
leftKerningGroup = h;
unicode = 00DF;
},
{
glyphname = t;
layers = (
{
layerId = "F1BADE0A-D307-4A55-B1D9-DEBA981FCD10";
paths = (
{
closed = 1;
nodes = (
"261 -10 OFFCURVE",
"308 -5 OFFCURVE",
"336 -2 CURVE",
"333 30 LINE",
"303 27 OFFCURVE",
"255 22 OFFCURVE",
"235 22 CURVE SMOOTH",
"154 22 OFFCURVE",
"143 57 OFFCURVE",
"143 206 CURVE SMOOTH",
"143 468 LINE",
"325 468 LINE {name = hr00;}",
"325 500 LINE",
"143 500 LINE",
"143 663 LINE",
"108 663 LINE",
"108 500 LINE",
"29 500 LINE",
"29 468 LINE",
"108 468 LINE",
"108 168 LINE",
"108 24 OFFCURVE",
"144 -10 OFFCURVE",
"235 -10 CURVE SMOOTH"
);
}
);
width = 342;
},
{
layerId = "D02A7F20-5372-446E-84B7-8F4B885083B2";
paths = (
{
closed = 1;
nodes = (
"264 -12 OFFCURVE",
"311 -3 OFFCURVE",
"340 3 CURVE",
"334 110 LINE",
"313 109 OFFCURVE",
"278 108 OFFCURVE",
"258 108 CURVE SMOOTH",
"216 108 OFFCURVE",
"216 131 OFFCURVE",
"216 181 CURVE SMOOTH",
"216 386 LINE",
"339 386 LINE {name = hr00;}",
"339 500 LINE",
"216 500 LINE",
"216 639 LINE",
"82 639 LINE",
"82 500 LINE",
"23 500 LINE",
"23 386 LINE",
"82 386 LINE",
"82 178 LINE",
"82 34 OFFCURVE",
"117 -12 OFFCURVE",
"238 -12 CURVE SMOOTH"
);
}
);
width = 364;
},
{
layerId = "2D07D9D6-DD7A-4EF1-82E8-8B18836F0AAC";
paths = (
{
closed = 1;
nodes = (
"256 -13 OFFCURVE",
"317 -3 OFFCURVE",
"354 5 CURVE",
"351 179 LINE",
"340 179 OFFCURVE",
"321 178 OFFCURVE",
"306 178 CURVE",
"278 178 OFFCURVE",
"273 188 OFFCURVE",
"273 220 CURVE SMOOTH",
"273 324 LINE {name = hr00;}",
"354 324 LINE",
"354 505 LINE",
"273 505 LINE",
"273 605 LINE",
"49 605 LINE",
"49 505 LINE",
"10 505 LINE",
"10 324 LINE",
"49 324 LINE",
"49 168 LINE SMOOTH",
"49 25 OFFCURVE",
"102 -13 OFFCURVE",
"222 -13 CURVE"
);
}
);
width = 371;
}
);
leftKerningGroup = t;
rightKerningGroup = t;
unicode = 0074;
},
{
glyphname = tbar;
layers = (
{
layerId = "F1BADE0A-D307-4A55-B1D9-DEBA981FCD10";
paths = (
{
closed = 1;
nodes = (
"265 -10 OFFCURVE",
"312 -5 OFFCURVE",
"340 -2 CURVE",
"337 30 LINE",
"307 27 OFFCURVE",
"259 22 OFFCURVE",
"239 22 CURVE SMOOTH",
"158 22 OFFCURVE",
"147 57 OFFCURVE",
"147 206 CURVE SMOOTH",
"147 468 LINE",
"329 468 LINE {name = hr01;}",
"329 500 LINE",
"147 500 LINE",
"147 663 LINE",
"112 663 LINE",
"112 500 LINE",
"33 500 LINE",
"33 468 LINE",
"112 468 LINE",
"112 168 LINE",
"112 24 OFFCURVE",
"148 -10 OFFCURVE",
"239 -10 CURVE SMOOTH"
);
},
{
closed = 1;
nodes = (
"308 282 LINE",
"308 314 LINE",
"41 314 LINE",
"41 282 LINE {name = hr00;}"
);
}
);
width = 347;
},
{
layerId = "D02A7F20-5372-446E-84B7-8F4B885083B2";
paths = (
{
closed = 1;
nodes = (
"264 -12 OFFCURVE",
"311 -3 OFFCURVE",
"340 3 CURVE",
"334 118 LINE",
"313 117 OFFCURVE",
"278 116 OFFCURVE",
"258 116 CURVE SMOOTH",
"216 116 OFFCURVE",
"216 139 OFFCURVE",
"216 189 CURVE SMOOTH",
"216 378 LINE",
"339 378 LINE {name = hr01;}",
"339 499 LINE",
"216 499 LINE",
"216 639 LINE",
"82 639 LINE",
"82 499 LINE",
"23 499 LINE",
"23 378 LINE",
"82 378 LINE",
"82 178 LINE",
"82 34 OFFCURVE",
"117 -12 OFFCURVE",
"238 -12 CURVE SMOOTH"
);
},
{
closed = 1;
nodes = (
"311 209 LINE",
"311 309 LINE",
"52 309 LINE",
"52 209 LINE"
);
}
);
width = 365;
},
{
layerId = "2D07D9D6-DD7A-4EF1-82E8-8B18836F0AAC";
paths = (
{
closed = 1;
nodes = (
"256 -13 OFFCURVE",
"317 -3 OFFCURVE",
"354 5 CURVE",
"351 169 LINE",
"340 169 OFFCURVE",
"321 168 OFFCURVE",
"306 168 CURVE SMOOTH",
"278 168 OFFCURVE",
"273 178 OFFCURVE",
"273 210 CURVE SMOOTH",
"273 345 LINE",
"354 345 LINE",
"354 505 LINE",
"273 505 LINE",
"273 605 LINE",
"49 605 LINE",
"49 505 LINE",
"10 505 LINE",
"10 345 LINE",
"49 345 LINE",
"49 168 LINE SMOOTH",
"49 25 OFFCURVE",
"102 -13 OFFCURVE",
"222 -13 CURVE SMOOTH"
);
},
{
closed = 1;
nodes = (
"337 206 LINE",
"337 311 LINE",
"12 311 LINE",
"12 206 LINE {name = hr00;}"
);
}
);
width = 370;
}
);
leftKerningGroup = t;
rightKerningGroup = t;
unicode = 0167;
},
{
glyphname = tcaron;
layers = (
{
components = (
{
name = t;
}
);
layerId = "F1BADE0A-D307-4A55-B1D9-DEBA981FCD10";
paths = (
{
closed = 1;
nodes = (
"400 483 LINE",
"400 700 LINE {name = hr01;}",
"366 700 LINE",
"366 483 LINE"
);
}
);
width = 395;
},
{
components = (
{
name = t;
}
);
layerId = "D02A7F20-5372-446E-84B7-8F4B885083B2";
paths = (
{
closed = 1;
nodes = (
"506 430 LINE",
"506 690 LINE {name = hr01;}",
"376 690 LINE",
"376 430 LINE"
);
}
);
width = 487;
},
{
components = (
{
name = t;
}
);
layerId = "2D07D9D6-DD7A-4EF1-82E8-8B18836F0AAC";
paths = (
{
closed = 1;
nodes = (
"465 539 LINE",
"524 744 LINE",
"330 744 LINE",
"311 539 LINE"
);
}
);
width = 371;
}
);
leftKerningGroup = t;
unicode = 0165;
},
{
glyphname = tcommaaccent;
layers = (
{
components = (
{
name = t;
}
);
layerId = "F1BADE0A-D307-4A55-B1D9-DEBA981FCD10";
paths = (
{
closed = 1;
nodes = (
"194 -267 LINE",
"240 -78 LINE",
"203 -78 LINE {name = hr00;}",
"166 -267 LINE"
);
}
);
width = 342;
},
{
components = (
{
name = t;
}
);
layerId = "D02A7F20-5372-446E-84B7-8F4B885083B2";
paths = (
{
closed = 1;
nodes = (
"124 -311 LINE",
"179 -77 LINE",
"49 -77 LINE {name = hr00;}",
"3 -311 LINE"
);
}
);
width = 364;
},
{
components = (
{
name = t;
}
);
layerId = "2D07D9D6-DD7A-4EF1-82E8-8B18836F0AAC";
paths = (
{
closed = 1;
nodes = (
"232 -260 LINE",
"294 -45 LINE",
"90 -45 LINE",
"70 -260 LINE"
);
}
);
width = 371;
}
);
leftKerningGroup = t;
rightKerningGroup = t;
unicode = 021B;
},
{
glyphname = u;
layers = (
{
layerId = "F1BADE0A-D307-4A55-B1D9-DEBA981FCD10";
paths = (
{
closed = 1;
nodes = (
"312 -9 OFFCURVE",
"367 20 OFFCURVE",
"402 40 CURVE",
"402 0 LINE",
"437 0 LINE",
"437 500 LINE {name = hr00;}",
"402 500 LINE",
"402 73 LINE",
"367 51 OFFCURVE",
"307 23 OFFCURVE",
"232 23 CURVE SMOOTH",
"127 23 OFFCURVE",
"109 77 OFFCURVE",
"109 242 CURVE",
"109 500 LINE",
"74 500 LINE",
"74 240 LINE SMOOTH",
"74 54 OFFCURVE",
"102 -9 OFFCURVE",
"227 -9 CURVE SMOOTH"
);
}
);
width = 516;
},
{
layerId = "D02A7F20-5372-446E-84B7-8F4B885083B2";
paths = (
{
closed = 1;
nodes = (
"269 -12 OFFCURVE",
"304 0 OFFCURVE",
"358 28 CURVE",
"358 0 LINE",
"491 0 LINE",
"491 500 LINE {name = hr00;}",
"357 500 LINE",
"357 126 LINE",
"337 118 OFFCURVE",
"297 108 OFFCURVE",
"262 108 CURVE SMOOTH",
"195 108 OFFCURVE",
"191 146 OFFCURVE",
"191 236 CURVE",
"191 500 LINE",
"57 500 LINE",
"57 238 LINE SMOOTH",
"57 80 OFFCURVE",
"87 -12 OFFCURVE",
"221 -12 CURVE SMOOTH"
);
}
);
width = 553;
},
{
layerId = "2D07D9D6-DD7A-4EF1-82E8-8B18836F0AAC";
paths = (
{
closed = 1;
nodes = (
"247 -13 OFFCURVE",
"279 -2 OFFCURVE",
"327 24 CURVE",
"327 0 LINE",
"549 0 LINE",
"549 505 LINE",
"325 505 LINE {name = hr00;}",
"325 186 LINE",
"316 183 OFFCURVE",
"296 180 OFFCURVE",
"284 180 CURVE SMOOTH",
"257 180 OFFCURVE",
"247 196 OFFCURVE",
"247 259 CURVE SMOOTH",
"247 505 LINE",
"23 505 LINE",
"23 244 LINE SMOOTH",
"23 80 OFFCURVE",
"68 -13 OFFCURVE",
"201 -13 CURVE SMOOTH"
);
}
);
width = 577;
}
);
leftKerningGroup = u;
rightKerningGroup = u;
unicode = 0075;
},
{
glyphname = v;
layers = (
{
layerId = "F1BADE0A-D307-4A55-B1D9-DEBA981FCD10";
paths = (
{
closed = 1;
nodes = (
"284 0 LINE",
"439 500 LINE",
"402 500 LINE",
"257 32 LINE",
"213 32 LINE",
"72 500 LINE",
"31 500 LINE {name = hr00;}",
"186 0 LINE"
);
}
);
width = 470;
},
{
layerId = "D02A7F20-5372-446E-84B7-8F4B885083B2";
paths = (
{
closed = 1;
nodes = (
"363 0 LINE",
"483 500 LINE",
"347 500 LINE",
"263 114 LINE",
"235 114 LINE",
"155 500 LINE",
"15 500 LINE {name = hr00;}",
"135 0 LINE"
);
}
);
width = 498;
},
{
layerId = "2D07D9D6-DD7A-4EF1-82E8-8B18836F0AAC";
paths = (
{
closed = 1;
nodes = (
"461 0 LINE",
"546 505 LINE",
"322 505 LINE",
"288 187 LINE",
"275 187 LINE",
"239 505 LINE",
"1 505 LINE {name = hr00;}",
"86 0 LINE"
);
}
);
width = 547;
}
);
unicode = 0076;
},
{
glyphname = w;
layers = (
{
layerId = "F1BADE0A-D307-4A55-B1D9-DEBA981FCD10";
paths = (
{
closed = 1;
nodes = (
"239 0 LINE",
"378 448 LINE",
"517 0 LINE",
"585 0 LINE",
"720 500 LINE",
"683 500 LINE",
"556 32 LINE",
"545 32 LINE",
"397 490 LINE",
"359 490 LINE",
"211 32 LINE",
"200 32 LINE",
"73 500 LINE",
"36 500 LINE {name = hr00;}",
"171 0 LINE"
);
}
);
width = 756;
},
{
layerId = "D02A7F20-5372-446E-84B7-8F4B885083B2";
paths = (
{
closed = 1;
nodes = (
"329 0 LINE",
"386 306 LINE",
"443 0 LINE",
"653 0 LINE",
"748 500 LINE",
"616 500 LINE",
"555 114 LINE",
"531 114 LINE",
"455 490 LINE",
"317 490 LINE",
"241 114 LINE",
"217 114 LINE",
"156 500 LINE",
"24 500 LINE {name = hr00;}",
"119 0 LINE"
);
}
);
width = 772;
},
{
layerId = "2D07D9D6-DD7A-4EF1-82E8-8B18836F0AAC";
paths = (
{
closed = 1;
nodes = (
"375 0 LINE",
"394 218 LINE",
"411 0 LINE",
"730 0 LINE",
"781 505 LINE",
"560 505 LINE",
"549 187 LINE",
"537 187 LINE",
"505 492 LINE",
"302 492 LINE",
"279 187 LINE",
"267 187 LINE",
"257 505 LINE",
"10 505 LINE {name = hr00;}",
"70 0 LINE"
);
}
);
width = 792;
}
);
leftKerningGroup = w;
rightKerningGroup = w;
unicode = 0077;
},
{
glyphname = x;
layers = (
{
layerId = "F1BADE0A-D307-4A55-B1D9-DEBA981FCD10";
paths = (
{
closed = 1;
nodes = (
"69 0 LINE",
"218 223 LINE",
"367 0 LINE",
"408 0 LINE",
"239 250 LINE",
"409 500 LINE",
"368 500 LINE",
"218 277 LINE",
"69 500 LINE",
"28 500 LINE {name = hr00;}",
"197 250 LINE",
"28 0 LINE"
);
}
);
width = 437;
},
{
layerId = "D02A7F20-5372-446E-84B7-8F4B885083B2";
paths = (
{
closed = 1;
nodes = (
"157 0 LINE",
"237 153 LINE",
"318 0 LINE",
"461 0 LINE",
"319 255 LINE",
"461 500 LINE",
"318 500 LINE",
"237 345 LINE",
"157 500 LINE",
"14 500 LINE {name = hr00;}",
"151 251 LINE",
"14 0 LINE"
);
}
);
width = 474;
},
{
layerId = "2D07D9D6-DD7A-4EF1-82E8-8B18836F0AAC";
paths = (
{
closed = 1;
nodes = (
"221 0 LINE",
"254 127 LINE",
"294 0 LINE",
"536 0 LINE",
"450 254 LINE",
"539 505 LINE",
"319 505 LINE",
"279 363 LINE",
"239 505 LINE",
"-1 505 LINE {name = hr00;}",
"98 250 LINE",
"-1 0 LINE"
);
}
);
width = 538;
}
);
unicode = 0078;
},
{
glyphname = y;
layers = (
{
layerId = "F1BADE0A-D307-4A55-B1D9-DEBA981FCD10";
paths = (
{
closed = 1;
nodes = (
"212 -230 LINE",
"441 500 LINE",
"404 500 LINE",
"256 32 LINE",
"215 32 LINE",
"68 500 LINE",
"31 500 LINE {name = hr00;}",
"186 0 LINE",
"247 0 LINE",
"175 -230 LINE"
);
}
);
width = 471;
},
{
layerId = "D02A7F20-5372-446E-84B7-8F4B885083B2";
paths = (
{
closed = 1;
nodes = (
"309 -210 LINE",
"485 500 LINE",
"353 500 LINE",
"262 114 LINE",
"239 114 LINE",
"148 500 LINE",
"16 500 LINE {name = hr00;}",
"139 0 LINE",
"233 0 LINE",
"178 -210 LINE"
);
}
);
width = 500;
},
{
layerId = "2D07D9D6-DD7A-4EF1-82E8-8B18836F0AAC";
paths = (
{
closed = 1;
nodes = (
"427 -195 LINE {name = hr01;}",
"546 505 LINE",
"321 505 LINE",
"289 187 LINE",
"275 187 LINE",
"239 505 LINE",
"1 505 LINE {name = hr00;}",
"86 0 LINE",
"244 0 LINE",
"181 -195 LINE"
);
}
);
width = 546;
}
);
leftKerningGroup = y;
rightKerningGroup = y;
unicode = 0079;
},
{
glyphname = z;
layers = (
{
layerId = "F1BADE0A-D307-4A55-B1D9-DEBA981FCD10";
paths = (
{
closed = 1;
nodes = (
"413 0 LINE",
"413 32 LINE",
"87 32 LINE",
"413 468 LINE",
"413 500 LINE",
"42 500 LINE {name = hr00;}",
"42 468 LINE",
"369 468 LINE",
"42 32 LINE",
"42 0 LINE"
);
}
);
width = 455;
},
{
layerId = "D02A7F20-5372-446E-84B7-8F4B885083B2";
paths = (
{
closed = 1;
nodes = (
"412 0 LINE",
"412 120 LINE",
"202 120 LINE",
"412 380 LINE",
"412 500 LINE",
"41 500 LINE {name = hr00;}",
"41 380 LINE",
"251 380 LINE",
"41 120 LINE",
"41 0 LINE"
);
}
);
width = 454;
},
{
layerId = "2D07D9D6-DD7A-4EF1-82E8-8B18836F0AAC";
paths = (
{
closed = 1;
nodes = (
"478 0 LINE",
"478 195 LINE",
"322 195 LINE",
"475 332 LINE",
"475 505 LINE",
"24 505 LINE {name = hr00;}",
"24 310 LINE",
"172 310 LINE",
"24 183 LINE",
"24 0 LINE"
);
}
);
width = 500;
}
);
leftKerningGroup = z;
rightKerningGroup = z;
unicode = 007A;
},
{
glyphname = ordfeminine;
layers = (
{
layerId = "F1BADE0A-D307-4A55-B1D9-DEBA981FCD10";
paths = (
{
closed = 1;
nodes = (
"307 414 LINE",
"293 417 OFFCURVE",
"278 424 OFFCURVE",
"270 437 CURVE {name = hr00;}",
"270 571 LINE SMOOTH",
"270 634 OFFCURVE",
"244 659 OFFCURVE",
"187 659 CURVE SMOOTH",
"160 659 OFFCURVE",
"111 654 OFFCURVE",
"81 651 CURVE",
"85 621 LINE",
"114 624 OFFCURVE",
"161 629 OFFCURVE",
"187 629 CURVE SMOOTH",
"227 629 OFFCURVE",
"239 616 OFFCURVE",
"239 571 CURVE SMOOTH",
"239 431 LINE",
"254 405 OFFCURVE",
"268 392 OFFCURVE",
"301 385 CURVE"
);
},
{
closed = 1;
nodes = (
"176 386 OFFCURVE",
"231 400 OFFCURVE",
"260 410 CURVE",
"250 438 LINE",
"223 429 OFFCURVE",
"172 416 OFFCURVE",
"132 416 CURVE SMOOTH",
"108 416 OFFCURVE",
"93 434 OFFCURVE",
"93 466 CURVE SMOOTH",
"93 498 OFFCURVE",
"104 510 OFFCURVE",
"139 512 CURVE SMOOTH",
"241 519 LINE",
"239 549 LINE",
"137 542 LINE SMOOTH",
"86 538 OFFCURVE",
"62 514 OFFCURVE",
"62 466 CURVE SMOOTH",
"62 417 OFFCURVE",
"91 386 OFFCURVE",
"132 386 CURVE SMOOTH"
);
}
);
width = 366;
},
{
layerId = "D02A7F20-5372-446E-84B7-8F4B885083B2";
paths = (
{
closed = 1;
nodes = (
"369 395 LINE",
"362 396 OFFCURVE",
"356 399 OFFCURVE",
"351 403 CURVE",
"351 544 LINE SMOOTH",
"351 631 OFFCURVE",
"301 659 OFFCURVE",
"205 659 CURVE SMOOTH",
"151 659 OFFCURVE",
"105 650 OFFCURVE",
"58 633 CURVE",
"61 558 LINE",
"103 561 OFFCURVE",
"168 564 OFFCURVE",
"192 565 CURVE SMOOTH",
"221 566 OFFCURVE",
"236 560 OFFCURVE",
"236 550 CURVE SMOOTH",
"236 369 LINE SMOOTH",
"236 319 OFFCURVE",
"288 313 OFFCURVE",
"367 313 CURVE"
);
},
{
closed = 1;
nodes = (
"191 314 OFFCURVE",
"231 333 OFFCURVE",
"265 368 CURVE",
"275 427 LINE",
"247 413 OFFCURVE",
"212 402 OFFCURVE",
"188 402 CURVE SMOOTH",
"167 402 OFFCURVE",
"157 411 OFFCURVE",
"157 427 CURVE SMOOTH",
"157 444 OFFCURVE",
"168 453 OFFCURVE",
"189 455 CURVE SMOOTH",
"281 461 LINE",
"281 530 LINE",
"169 525 LINE SMOOTH",
"84 521 OFFCURVE",
"42 488 OFFCURVE",
"42 422 CURVE SMOOTH",
"42 358 OFFCURVE",
"81 314 OFFCURVE",
"147 314 CURVE SMOOTH"
);
}
);
width = 416;
},
{
layerId = "2D07D9D6-DD7A-4EF1-82E8-8B18836F0AAC";
paths = (
{
closed = 1;
nodes = (
"336 466 LINE",
"329 467 OFFCURVE",
"323 470 OFFCURVE",
"318 474 CURVE",
"318 551 LINE SMOOTH",
"318 638 OFFCURVE",
"268 666 OFFCURVE",
"172 666 CURVE SMOOTH",
"118 666 OFFCURVE",
"72 657 OFFCURVE",
"25 640 CURVE",
"31 565 LINE",
"73 568 OFFCURVE",
"120 571 OFFCURVE",
"144 572 CURVE SMOOTH",
"173 573 OFFCURVE",
"188 567 OFFCURVE",
"188 557 CURVE SMOOTH",
"188 440 LINE",
"188 390 OFFCURVE",
"255 384 OFFCURVE",
"334 384 CURVE"
);
},
{
closed = 1;
nodes = (
"140 379 OFFCURVE",
"173 395 OFFCURVE",
"201 423 CURVE",
"210 474 LINE",
"196 466 OFFCURVE",
"177 461 OFFCURVE",
"164 461 CURVE SMOOTH",
"152 461 OFFCURVE",
"147 465 OFFCURVE",
"147 474 CURVE SMOOTH",
"147 483 OFFCURVE",
"153 489 OFFCURVE",
"165 490 CURVE SMOOTH",
"214 492 LINE",
"214 558 LINE",
"121 554 LINE SMOOTH",
"50 551 OFFCURVE",
"16 524 OFFCURVE",
"16 470 CURVE SMOOTH",
"16 415 OFFCURVE",
"47 379 OFFCURVE",
"102 379 CURVE SMOOTH"
);
}
);
width = 351;
},
{
associatedMasterId = "F1BADE0A-D307-4A55-B1D9-DEBA981FCD10";
layerId = "BC5C9DA2-249A-49D2-87FD-050E17E26E51";
name = "Nov 30 17, 15:36";
paths = (
{
closed = 1;
nodes = (
"173 386 OFFCURVE",
"224 399 OFFCURVE",
"251 408 CURVE",
"267 393 OFFCURVE",
"280 387 OFFCURVE",
"305 386 CURVE",
"307 414 LINE",
"293 417 OFFCURVE",
"278 424 OFFCURVE",
"270 437 CURVE {name = hr00;}",
"270 571 LINE SMOOTH",
"270 634 OFFCURVE",
"244 659 OFFCURVE",
"187 659 CURVE SMOOTH",
"160 659 OFFCURVE",
"111 654 OFFCURVE",
"81 651 CURVE",
"83 622 LINE",
"113 625 OFFCURVE",
"162 629 OFFCURVE",
"187 629 CURVE SMOOTH",
"222 629 OFFCURVE",
"239 615 OFFCURVE",
"239 572 CURVE",
"239 549 LINE",
"137 542 LINE SMOOTH",
"86 538 OFFCURVE",
"62 514 OFFCURVE",
"62 466 CURVE SMOOTH",
"62 417 OFFCURVE",
"91 386 OFFCURVE",
"132 386 CURVE SMOOTH"
);
},
{
closed = 1;
nodes = (
"110 417 OFFCURVE",
"95 432 OFFCURVE",
"95 464 CURVE SMOOTH",
"95 497 OFFCURVE",
"108 512 OFFCURVE",
"142 514 CURVE SMOOTH",
"239 520 LINE",
"239 435 LINE",
"214 427 OFFCURVE",
"168 417 OFFCURVE",
"135 417 CURVE SMOOTH"
);
}
);
width = 366;
},
{
associatedMasterId = "D02A7F20-5372-446E-84B7-8F4B885083B2";
layerId = "DA8178E5-2CC8-4851-BB5B-B16342BB7AB9";
name = "Nov 30 17, 15:36";
paths = (
{
closed = 1;
nodes = (
"369 395 LINE",
"364 396 OFFCURVE",
"355 400 OFFCURVE",
"351 403 CURVE {name = hr00;}",
"351 544 LINE SMOOTH",
"351 638 OFFCURVE",
"293 659 OFFCURVE",
"199 659 CURVE SMOOTH",
"147 659 OFFCURVE",
"88 644 OFFCURVE",
"58 633 CURVE",
"61 558 LINE",
"98 561 OFFCURVE",
"160 565 OFFCURVE",
"192 565 CURVE SMOOTH",
"221 565 OFFCURVE",
"236 560 OFFCURVE",
"236 550 CURVE",
"236 528 LINE",
"169 525 LINE SMOOTH",
"84 521 OFFCURVE",
"42 490 OFFCURVE",
"42 424 CURVE SMOOTH",
"42 357 OFFCURVE",
"79 314 OFFCURVE",
"151 314 CURVE SMOOTH",
"185 314 OFFCURVE",
"222 332 OFFCURVE",
"240 346 CURVE",
"254 325 OFFCURVE",
"268 313 OFFCURVE",
"367 313 CURVE"
);
},
{
closed = 1;
nodes = (
"167 402 OFFCURVE",
"157 409 OFFCURVE",
"157 428 CURVE SMOOTH",
"157 446 OFFCURVE",
"168 453 OFFCURVE",
"189 455 CURVE SMOOTH",
"236 458 LINE",
"236 418 LINE",
"224 411 OFFCURVE",
"203 402 OFFCURVE",
"188 402 CURVE SMOOTH"
);
}
);
width = 416;
},
{
associatedMasterId = "2D07D9D6-DD7A-4EF1-82E8-8B18836F0AAC";
layerId = "49964366-8E90-4640-9E4C-BD607597C41C";
name = "Nov 30 17, 15:36";
paths = (
{
closed = 1;
nodes = (
"159 379 OFFCURVE",
"192 390 OFFCURVE",
"207 398 CURVE",
"219 390 OFFCURVE",
"246 379 OFFCURVE",
"274 379 CURVE SMOOTH",
"284 379 OFFCURVE",
"313 382 OFFCURVE",
"332 385 CURVE",
"334 463 LINE",
"329 464 OFFCURVE",
"321 466 OFFCURVE",
"318 468 CURVE",
"318 571 LINE {name = hr00;}",
"318 640 OFFCURVE",
"273 666 OFFCURVE",
"168 666 CURVE SMOOTH",
"118 666 OFFCURVE",
"60 655 OFFCURVE",
"29 647 CURVE",
"31 565 LINE",
"64 568 OFFCURVE",
"122 572 OFFCURVE",
"164 572 CURVE SMOOTH",
"179 572 OFFCURVE",
"188 569 OFFCURVE",
"188 562 CURVE SMOOTH",
"188 557 LINE",
"141 555 LINE SMOOTH",
"71.035 552.023 OFFCURVE",
"16 542 OFFCURVE",
"16 471 CURVE SMOOTH",
"16 407 OFFCURVE",
"58 379 OFFCURVE",
"126 379 CURVE SMOOTH"
);
},
{
closed = 1;
nodes = (
"150 463 OFFCURVE",
"147 466 OFFCURVE",
"147 474 CURVE SMOOTH",
"147 482 OFFCURVE",
"152.997 489.055 OFFCURVE",
"170 490 CURVE SMOOTH",
"188 491 LINE",
"188 471 LINE",
"185 468 OFFCURVE",
"177 463 OFFCURVE",
"168 463 CURVE SMOOTH"
);
}
);
width = 351;
},
{
associatedMasterId = "D02A7F20-5372-446E-84B7-8F4B885083B2";
layerId = "53522895-3C62-4DEC-87F3-412379142D87";
name = "Dec 15 17, 21:44";
paths = (
{
closed = 1;
nodes = (
"369 395 LINE",
"364 396 OFFCURVE",
"355 400 OFFCURVE",
"351 403 CURVE {name = hr00;}",
"351 544 LINE SMOOTH",
"351 638 OFFCURVE",
"293 659 OFFCURVE",
"199 659 CURVE SMOOTH",
"147 659 OFFCURVE",
"88 644 OFFCURVE",
"58 633 CURVE",
"61 558 LINE",
"98 561 OFFCURVE",
"160 565 OFFCURVE",
"192 565 CURVE SMOOTH",
"221 565 OFFCURVE",
"236 560 OFFCURVE",
"236 550 CURVE",
"236 528 LINE",
"169 525 LINE SMOOTH",
"84 521 OFFCURVE",
"42 490 OFFCURVE",
"42 424 CURVE SMOOTH",
"42 357 OFFCURVE",
"79 314 OFFCURVE",
"151 314 CURVE SMOOTH",
"185 314 OFFCURVE",
"222 332 OFFCURVE",
"240 346 CURVE",
"254 325 OFFCURVE",
"268 313 OFFCURVE",
"367 313 CURVE"
);
},
{
closed = 1;
nodes = (
"167 402 OFFCURVE",
"157 409 OFFCURVE",
"157 428 CURVE SMOOTH",
"157 446 OFFCURVE",
"168 453 OFFCURVE",
"189 455 CURVE SMOOTH",
"236 458 LINE",
"236 418 LINE",
"224 411 OFFCURVE",
"203 402 OFFCURVE",
"188 402 CURVE SMOOTH"
);
}
);
width = 416;
},
{
associatedMasterId = "F1BADE0A-D307-4A55-B1D9-DEBA981FCD10";
layerId = "7E169FF5-6066-4C86-AEC1-C604AF461BDB";
name = "Dec 15 17, 21:44";
paths = (
{
closed = 1;
nodes = (
"173 386 OFFCURVE",
"224 399 OFFCURVE",
"251 408 CURVE",
"267 393 OFFCURVE",
"280 387 OFFCURVE",
"305 386 CURVE",
"307 414 LINE",
"293 417 OFFCURVE",
"278 424 OFFCURVE",
"270 437 CURVE {name = hr00;}",
"270 571 LINE SMOOTH",
"270 634 OFFCURVE",
"244 659 OFFCURVE",
"187 659 CURVE SMOOTH",
"160 659 OFFCURVE",
"111 654 OFFCURVE",
"81 651 CURVE",
"83 622 LINE",
"113 625 OFFCURVE",
"162 629 OFFCURVE",
"187 629 CURVE SMOOTH",
"222 629 OFFCURVE",
"239 615 OFFCURVE",
"239 572 CURVE",
"239 549 LINE",
"137 542 LINE SMOOTH",
"86 538 OFFCURVE",
"62 514 OFFCURVE",
"62 466 CURVE SMOOTH",
"62 417 OFFCURVE",
"91 386 OFFCURVE",
"132 386 CURVE SMOOTH"
);
},
{
closed = 1;
nodes = (
"110 417 OFFCURVE",
"95 432 OFFCURVE",
"95 464 CURVE SMOOTH",
"95 497 OFFCURVE",
"108 512 OFFCURVE",
"142 514 CURVE SMOOTH",
"239 520 LINE",
"239 435 LINE",
"214 427 OFFCURVE",
"168 417 OFFCURVE",
"135 417 CURVE SMOOTH"
);
}
);
width = 366;
},
{
associatedMasterId = "2D07D9D6-DD7A-4EF1-82E8-8B18836F0AAC";
layerId = "987ACE81-4FE3-48BD-B171-0B85A07D65CD";
name = "Dec 15 17, 21:45";
paths = (
{
closed = 1;
nodes = (
"159 379 OFFCURVE",
"192 390 OFFCURVE",
"207 398 CURVE",
"219 390 OFFCURVE",
"246 379 OFFCURVE",
"274 379 CURVE SMOOTH",
"284 379 OFFCURVE",
"313 382 OFFCURVE",
"332 385 CURVE",
"334 463 LINE",
"329 464 OFFCURVE",
"321 466 OFFCURVE",
"318 468 CURVE",
"318 571 LINE {name = hr00;}",
"318 640 OFFCURVE",
"273 666 OFFCURVE",
"168 666 CURVE SMOOTH",
"118 666 OFFCURVE",
"60 655 OFFCURVE",
"29 647 CURVE",
"31 565 LINE",
"64 568 OFFCURVE",
"122 572 OFFCURVE",
"164 572 CURVE SMOOTH",
"179 572 OFFCURVE",
"188 569 OFFCURVE",
"188 562 CURVE SMOOTH",
"188 557 LINE",
"141 555 LINE SMOOTH",
"71.035 552.023 OFFCURVE",
"16 542 OFFCURVE",
"16 471 CURVE SMOOTH",
"16 407 OFFCURVE",
"58 379 OFFCURVE",
"126 379 CURVE SMOOTH"
);
},
{
closed = 1;
nodes = (
"150 463 OFFCURVE",
"147 466 OFFCURVE",
"147 474 CURVE SMOOTH",
"147 482 OFFCURVE",
"152.997 489.055 OFFCURVE",
"170 490 CURVE SMOOTH",
"188 491 LINE",
"188 471 LINE",
"185 468 OFFCURVE",
"177 463 OFFCURVE",
"168 463 CURVE SMOOTH"
);
}
);
width = 351;
},
{
associatedMasterId = "2D07D9D6-DD7A-4EF1-82E8-8B18836F0AAC";
layerId = "534A626C-7BAE-4BDB-A242-2E85665D89D3";
name = "Apr 14 18, 14:53";
paths = (
{
closed = 1;
nodes = (
"159 379 OFFCURVE",
"192 390 OFFCURVE",
"207 398 CURVE",
"219 390 OFFCURVE",
"246 379 OFFCURVE",
"274 379 CURVE SMOOTH",
"284 379 OFFCURVE",
"313 382 OFFCURVE",
"332 385 CURVE",
"334 463 LINE",
"329 464 OFFCURVE",
"321 466 OFFCURVE",
"318 468 CURVE",
"318 571 LINE {name = hr00;}",
"318 640 OFFCURVE",
"273 666 OFFCURVE",
"168 666 CURVE SMOOTH",
"118 666 OFFCURVE",
"60 655 OFFCURVE",
"29 647 CURVE",
"31 565 LINE",
"64 568 OFFCURVE",
"122 572 OFFCURVE",
"164 572 CURVE SMOOTH",
"179 572 OFFCURVE",
"188 569 OFFCURVE",
"188 562 CURVE SMOOTH",
"188 557 LINE",
"141 555 LINE SMOOTH",
"71.035 552.023 OFFCURVE",
"16 542 OFFCURVE",
"16 471 CURVE SMOOTH",
"16 407 OFFCURVE",
"58 379 OFFCURVE",
"126 379 CURVE SMOOTH"
);
},
{
closed = 1;
nodes = (
"150 463 OFFCURVE",
"147 466 OFFCURVE",
"147 474 CURVE SMOOTH",
"147 482 OFFCURVE",
"152.997 489.055 OFFCURVE",
"170 490 CURVE SMOOTH",
"188 491 LINE",
"188 471 LINE",
"185 468 OFFCURVE",
"177 463 OFFCURVE",
"168 463 CURVE SMOOTH"
);
}
);
width = 351;
},
{
associatedMasterId = "2D07D9D6-DD7A-4EF1-82E8-8B18836F0AAC";
layerId = "796E4946-6B50-4290-93A7-689ADEA7D449";
name = "Apr 14 18, 14:56";
paths = (
{
closed = 1;
nodes = (
"291 379 OFFCURVE",
"313 382 OFFCURVE",
"332 385 CURVE",
"334 463 LINE",
"329 464 OFFCURVE",
"321 466 OFFCURVE",
"318 468 CURVE",
"318 571 LINE {name = hr00;}",
"318 640 OFFCURVE",
"273 666 OFFCURVE",
"168 666 CURVE SMOOTH",
"118 666 OFFCURVE",
"60 655 OFFCURVE",
"29 647 CURVE",
"31 565 LINE",
"64 568 OFFCURVE",
"122 572 OFFCURVE",
"164 572 CURVE SMOOTH",
"179 572 OFFCURVE",
"188 569 OFFCURVE",
"188 562 CURVE SMOOTH",
"188 403 LINE",
"203 393 OFFCURVE",
"236 379 OFFCURVE",
"274 379 CURVE SMOOTH"
);
},
{
closed = 1;
nodes = (
"159 379 OFFCURVE",
"192 390 OFFCURVE",
"207 398 CURVE",
"188 471 LINE",
"185 468 OFFCURVE",
"177 463 OFFCURVE",
"168 463 CURVE SMOOTH",
"150 463 OFFCURVE",
"147 466 OFFCURVE",
"147 474 CURVE SMOOTH",
"147 482 OFFCURVE",
"153 489 OFFCURVE",
"170 490 CURVE SMOOTH",
"198 491 LINE",
"198 557 LINE",
"141 555 LINE SMOOTH",
"71 553 OFFCURVE",
"16 542 OFFCURVE",
"16 471 CURVE SMOOTH",
"16 407 OFFCURVE",
"58 379 OFFCURVE",
"126 379 CURVE SMOOTH"
);
}
);
width = 351;
},
{
associatedMasterId = "F1BADE0A-D307-4A55-B1D9-DEBA981FCD10";
layerId = "29DAD3F3-CCCA-4E53-9300-97554D35FDA5";
name = "Apr 14 18, 14:58";
paths = (
{
closed = 1;
nodes = (
"307 414 LINE",
"293 417 OFFCURVE",
"278 424 OFFCURVE",
"270 437 CURVE {name = hr00;}",
"270 571 LINE SMOOTH",
"270 634 OFFCURVE",
"244 659 OFFCURVE",
"187 659 CURVE SMOOTH",
"160 659 OFFCURVE",
"111 654 OFFCURVE",
"81 651 CURVE",
"85 621 LINE",
"114 624 OFFCURVE",
"161 629 OFFCURVE",
"187 629 CURVE SMOOTH",
"227 629 OFFCURVE",
"239 616 OFFCURVE",
"239 571 CURVE SMOOTH",
"239 431 LINE",
"254 405 OFFCURVE",
"268 392 OFFCURVE",
"301 385 CURVE"
);
},
{
closed = 1;
nodes = (
"176 386 OFFCURVE",
"231 400 OFFCURVE",
"260 410 CURVE",
"250 438 LINE",
"223 429 OFFCURVE",
"172 416 OFFCURVE",
"132 416 CURVE SMOOTH",
"108 416 OFFCURVE",
"93 434 OFFCURVE",
"93 466 CURVE SMOOTH",
"93 498 OFFCURVE",
"104 510 OFFCURVE",
"139 512 CURVE SMOOTH",
"241 519 LINE",
"239 549 LINE",
"137 542 LINE SMOOTH",
"86 538 OFFCURVE",
"62 514 OFFCURVE",
"62 466 CURVE SMOOTH",
"62 417 OFFCURVE",
"91 386 OFFCURVE",
"132 386 CURVE SMOOTH"
);
}
);
width = 366;
},
{
associatedMasterId = "D02A7F20-5372-446E-84B7-8F4B885083B2";
layerId = "3E8CB5E8-6D19-4901-9FD5-39C81871C2DF";
name = "Apr 14 18, 14:58";
paths = (
{
closed = 1;
nodes = (
"369 395 LINE",
"362 396 OFFCURVE",
"356 399 OFFCURVE",
"351 403 CURVE",
"351 544 LINE SMOOTH",
"351 631 OFFCURVE",
"301 659 OFFCURVE",
"205 659 CURVE SMOOTH",
"151 659 OFFCURVE",
"105 650 OFFCURVE",
"58 633 CURVE",
"61 558 LINE",
"103 561 OFFCURVE",
"168 564 OFFCURVE",
"192 565 CURVE SMOOTH",
"221 566 OFFCURVE",
"236 560 OFFCURVE",
"236 550 CURVE SMOOTH",
"236 369 LINE SMOOTH",
"236 319 OFFCURVE",
"288 313 OFFCURVE",
"367 313 CURVE"
);
},
{
closed = 1;
nodes = (
"191 314 OFFCURVE",
"231 333 OFFCURVE",
"265 368 CURVE",
"313 448 LINE",
"213 413 OFFCURVE",
"212 402 OFFCURVE",
"188 402 CURVE SMOOTH",
"167 402 OFFCURVE",
"157 411 OFFCURVE",
"157 427 CURVE SMOOTH",
"157 444 OFFCURVE",
"168 453 OFFCURVE",
"189 455 CURVE SMOOTH",
"281 461 LINE",
"281 530 LINE",
"169 525 LINE SMOOTH",
"84 521 OFFCURVE",
"42 488 OFFCURVE",
"42 422 CURVE SMOOTH",
"42 358 OFFCURVE",
"81 314 OFFCURVE",
"147 314 CURVE SMOOTH"
);
}
);
width = 416;
},
{
associatedMasterId = "2D07D9D6-DD7A-4EF1-82E8-8B18836F0AAC";
layerId = "70B1421B-788A-4C81-BDF1-3EBBFDB9AEFA";
name = "Apr 14 18, 14:58";
paths = (
{
closed = 1;
nodes = (
"291 379 OFFCURVE",
"313 382 OFFCURVE",
"332 385 CURVE",
"334 463 LINE",
"329 464 OFFCURVE",
"321 466 OFFCURVE",
"318 468 CURVE",
"318 571 LINE SMOOTH {name = hr00;}",
"318 640 OFFCURVE",
"273 666 OFFCURVE",
"168 666 CURVE SMOOTH",
"118 666 OFFCURVE",
"60 655 OFFCURVE",
"29 647 CURVE",
"31 565 LINE",
"64 568 OFFCURVE",
"122 572 OFFCURVE",
"164 572 CURVE SMOOTH",
"179 572 OFFCURVE",
"188 569 OFFCURVE",
"188 562 CURVE SMOOTH",
"188 403 LINE",
"203 393 OFFCURVE",
"236 379 OFFCURVE",
"274 379 CURVE SMOOTH"
);
},
{
closed = 1;
nodes = (
"159 379 OFFCURVE",
"192 390 OFFCURVE",
"207 398 CURVE",
"188 471 LINE",
"185 468 OFFCURVE",
"177 463 OFFCURVE",
"168 463 CURVE SMOOTH",
"150 463 OFFCURVE",
"147 466 OFFCURVE",
"147 474 CURVE SMOOTH",
"147 482 OFFCURVE",
"153 489 OFFCURVE",
"170 490 CURVE SMOOTH",
"198 491 LINE",
"198 557 LINE",
"141 555 LINE SMOOTH",
"71 553 OFFCURVE",
"16 542 OFFCURVE",
"16 471 CURVE SMOOTH",
"16 407 OFFCURVE",
"58 379 OFFCURVE",
"126 379 CURVE SMOOTH"
);
}
);
width = 351;
},
{
associatedMasterId = "2D07D9D6-DD7A-4EF1-82E8-8B18836F0AAC";
layerId = "A90C56AB-CBFD-43FF-9DEC-CFD5A644B599";
name = "Apr 14 18, 15:29";
paths = (
{
closed = 1;
nodes = (
"336 466 LINE",
"329 467 OFFCURVE",
"323 470 OFFCURVE",
"318 474 CURVE",
"318 551 LINE SMOOTH",
"318 638 OFFCURVE",
"268 666 OFFCURVE",
"172 666 CURVE SMOOTH",
"118 666 OFFCURVE",
"72 657 OFFCURVE",
"25 640 CURVE",
"31 565 LINE",
"73 568 OFFCURVE",
"120 571 OFFCURVE",
"144 572 CURVE SMOOTH",
"173 573 OFFCURVE",
"188 567 OFFCURVE",
"188 557 CURVE SMOOTH",
"188 440 LINE",
"188 390 OFFCURVE",
"255 384 OFFCURVE",
"334 384 CURVE"
);
},
{
closed = 1;
nodes = (
"140 379 OFFCURVE",
"173 395 OFFCURVE",
"201 423 CURVE",
"210 474 LINE",
"196 466 OFFCURVE",
"177 461 OFFCURVE",
"164 461 CURVE SMOOTH",
"152 461 OFFCURVE",
"147 465 OFFCURVE",
"147 474 CURVE SMOOTH",
"147 483 OFFCURVE",
"153 489 OFFCURVE",
"165 490 CURVE SMOOTH",
"214 492 LINE",
"214 558 LINE",
"121 554 LINE SMOOTH",
"50 551 OFFCURVE",
"16 524 OFFCURVE",
"16 470 CURVE SMOOTH",
"16 415 OFFCURVE",
"47 379 OFFCURVE",
"102 379 CURVE SMOOTH"
);
}
);
width = 351;
},
{
associatedMasterId = "2D07D9D6-DD7A-4EF1-82E8-8B18836F0AAC";
layerId = "F05097B7-0998-4964-9AF8-B404FE2B5EE0";
name = "Apr 14 18, 15:33";
paths = (
{
closed = 1;
nodes = (
"291 379 OFFCURVE",
"313 382 OFFCURVE",
"332 385 CURVE",
"334 463 LINE",
"329 464 OFFCURVE",
"321 466 OFFCURVE",
"318 468 CURVE",
"318 571 LINE SMOOTH {name = hr00;}",
"318 640 OFFCURVE",
"273 666 OFFCURVE",
"168 666 CURVE SMOOTH",
"118 666 OFFCURVE",
"60 655 OFFCURVE",
"29 647 CURVE",
"31 565 LINE",
"64 568 OFFCURVE",
"122 572 OFFCURVE",
"164 572 CURVE SMOOTH",
"179 572 OFFCURVE",
"188 569 OFFCURVE",
"188 562 CURVE SMOOTH",
"188 403 LINE",
"203 393 OFFCURVE",
"236 379 OFFCURVE",
"274 379 CURVE SMOOTH"
);
},
{
closed = 1;
nodes = (
"159 379 OFFCURVE",
"192 390 OFFCURVE",
"207 398 CURVE",
"188 471 LINE",
"185 468 OFFCURVE",
"177 463 OFFCURVE",
"168 463 CURVE SMOOTH",
"150 463 OFFCURVE",
"147 466 OFFCURVE",
"147 474 CURVE SMOOTH",
"147 482 OFFCURVE",
"153 489 OFFCURVE",
"170 490 CURVE SMOOTH",
"198 491 LINE",
"198 557 LINE",
"141 555 LINE SMOOTH",
"71 553 OFFCURVE",
"16 542 OFFCURVE",
"16 471 CURVE SMOOTH",
"16 407 OFFCURVE",
"58 379 OFFCURVE",
"126 379 CURVE SMOOTH"
);
}
);
width = 351;
}
);
unicode = 00AA;
},
{
glyphname = ordmasculine;
layers = (
{
layerId = "F1BADE0A-D307-4A55-B1D9-DEBA981FCD10";
paths = (
{
closed = 1;
nodes = (
"253 386 OFFCURVE",
"290 430 OFFCURVE",
"290 524 CURVE SMOOTH",
"290 618 OFFCURVE",
"253 659 OFFCURVE",
"177 659 CURVE SMOOTH {name = hr00;}",
"101 659 OFFCURVE",
"62 618 OFFCURVE",
"62 524 CURVE SMOOTH",
"62 430 OFFCURVE",
"101 386 OFFCURVE",
"177 386 CURVE SMOOTH"
);
},
{
closed = 1;
nodes = (
"120 418 OFFCURVE",
"96 448 OFFCURVE",
"96 524 CURVE SMOOTH",
"96 600 OFFCURVE",
"120 627 OFFCURVE",
"177 627 CURVE SMOOTH",
"234 627 OFFCURVE",
"256 600 OFFCURVE",
"256 524 CURVE SMOOTH",
"256 448 OFFCURVE",
"234 418 OFFCURVE",
"177 418 CURVE SMOOTH"
);
}
);
width = 353;
},
{
layerId = "D02A7F20-5372-446E-84B7-8F4B885083B2";
paths = (
{
closed = 1;
nodes = (
"322 314 OFFCURVE",
"380 370 OFFCURVE",
"380 489 CURVE SMOOTH",
"380 607 OFFCURVE",
"322 659 OFFCURVE",
"211 659 CURVE SMOOTH {name = hr00;}",
"99 659 OFFCURVE",
"40 607 OFFCURVE",
"40 489 CURVE SMOOTH",
"40 370 OFFCURVE",
"99 314 OFFCURVE",
"211 314 CURVE SMOOTH"
);
},
{
closed = 1;
nodes = (
"171 419 OFFCURVE",
"160 442 OFFCURVE",
"160 488 CURVE SMOOTH",
"160 534 OFFCURVE",
"171 555 OFFCURVE",
"211 555 CURVE SMOOTH",
"251 555 OFFCURVE",
"259 534 OFFCURVE",
"259 488 CURVE SMOOTH",
"259 442 OFFCURVE",
"251 419 OFFCURVE",
"211 419 CURVE SMOOTH"
);
}
);
width = 420;
},
{
layerId = "2D07D9D6-DD7A-4EF1-82E8-8B18836F0AAC";
paths = (
{
closed = 1;
nodes = (
"291 379 OFFCURVE",
"338 418 OFFCURVE",
"338 523 CURVE SMOOTH",
"338 626 OFFCURVE",
"291 666 OFFCURVE",
"177 666 CURVE SMOOTH {name = hr00;}",
"63 666 OFFCURVE",
"15 626 OFFCURVE",
"15 523 CURVE SMOOTH",
"15 418 OFFCURVE",
"63 379 OFFCURVE",
"177 379 CURVE SMOOTH"
);
},
{
closed = 1;
nodes = (
"156 479 OFFCURVE",
"146 490 OFFCURVE",
"146 523 CURVE SMOOTH",
"146 555 OFFCURVE",
"155 566 OFFCURVE",
"177 566 CURVE SMOOTH",
"198 566 OFFCURVE",
"207 556 OFFCURVE",
"207 523 CURVE SMOOTH",
"207 490 OFFCURVE",
"198 479 OFFCURVE",
"177 479 CURVE SMOOTH"
);
}
);
width = 353;
}
);
unicode = 00BA;
},
{
glyphname = pi;
layers = (
{
layerId = "F1BADE0A-D307-4A55-B1D9-DEBA981FCD10";
paths = (
{
closed = 1;
nodes = (
"519 32 LINE",
"442 32 OFFCURVE",
"420 51 OFFCURVE",
"420 154 CURVE SMOOTH",
"420 475 LINE",
"385 476 LINE",
"385 154 LINE SMOOTH {name = hr00;}",
"385 30 OFFCURVE",
"418 0 OFFCURVE",
"519 0 CURVE"
);
},
{
closed = 1;
nodes = (
"152 0 LINE",
"181 475 LINE",
"147 475 LINE",
"116 0 LINE"
);
},
{
closed = 1;
nodes = (
"42 461 OFFCURVE",
"93 468 OFFCURVE",
"170 467 CURVE",
"176 468 LINE",
"389 468 LINE",
"396 469 LINE",
"468 468 OFFCURVE",
"515 477 OFFCURVE",
"531 484 CURVE",
"531 516 LINE",
"504 509 OFFCURVE",
"447 500 OFFCURVE",
"386 500 CURVE SMOOTH",
"162 500 LINE",
"103 500 OFFCURVE",
"49 493 OFFCURVE",
"25 487 CURVE",
"25 455 LINE"
);
}
);
width = 560;
},
{
layerId = "D02A7F20-5372-446E-84B7-8F4B885083B2";
paths = (
{
closed = 1;
nodes = (
"523 104 LINE",
"465 104 OFFCURVE",
"454 121 OFFCURVE",
"454 154 CURVE SMOOTH",
"454 420 LINE",
"320 415 LINE",
"320 154 LINE SMOOTH {name = hr00;}",
"320 20 OFFCURVE",
"342 -10 OFFCURVE",
"523 -10 CURVE"
);
},
{
closed = 1;
nodes = (
"209 0 LINE",
"237 411 LINE",
"108 410 LINE",
"74 0 LINE"
);
},
{
closed = 1;
nodes = (
"70 385 OFFCURVE",
"135 394 OFFCURVE",
"124 375 CURVE",
"170 386 LINE",
"329 386 LINE",
"350 393 LINE",
"438 381 OFFCURVE",
"503 391 OFFCURVE",
"528 402 CURVE",
"528 512 LINE",
"506 507 OFFCURVE",
"461 500 OFFCURVE",
"419 500 CURVE SMOOTH",
"168 500 LINE",
"105 500 OFFCURVE",
"46 490 OFFCURVE",
"18 482 CURVE",
"18 373 LINE"
);
}
);
width = 560;
},
{
layerId = "2D07D9D6-DD7A-4EF1-82E8-8B18836F0AAC";
paths = (
{
closed = 1;
nodes = (
"513 164 LINE",
"436 164 OFFCURVE",
"424 161 OFFCURVE",
"424 264 CURVE SMOOTH",
"424 477 LINE",
"269 477 LINE",
"269 154 LINE",
"275 30 OFFCURVE",
"342 0 OFFCURVE",
"513 0 CURVE"
);
},
{
closed = 1;
nodes = (
"236 0 LINE",
"266 476 LINE",
"91 476 LINE",
"61 0 LINE {name = hr00;}"
);
},
{
closed = 1;
nodes = (
"36 288 OFFCURVE",
"89 295 OFFCURVE",
"169 295 CURVE",
"197 295 LINE",
"355.994 295 LINE",
"384 295 LINE",
"456 295 OFFCURVE",
"509 304 OFFCURVE {name = hr01;}",
"528 311 CURVE {name = hr01;}",
"528 516 LINE",
"492 504 OFFCURVE",
"425 500 OFFCURVE",
"384 500 CURVE",
"168 500 LINE",
"128 499 OFFCURVE",
"60 495 OFFCURVE",
"18 487 CURVE",
"18 282 LINE"
);
}
);
width = 550;
}
);
unicode = 03C0;
},
{
glyphname = "hamza-ar";
layers = (
{
anchors = (
{
name = bottom;
position = "{244, -100}";
},
{
name = top;
position = "{244, 549}";
}
);
layerId = "F1BADE0A-D307-4A55-B1D9-DEBA981FCD10";
paths = (
{
closed = 1;
nodes = (
"176 28 LINE",
"130 80 OFFCURVE",
"110 126 OFFCURVE",
"110 181 CURVE SMOOTH",
"110 284 OFFCURVE",
"186 358 OFFCURVE",
"290 358 CURVE SMOOTH",
"330 358 OFFCURVE",
"363 349 OFFCURVE",
"394 329 CURVE",
"413 357 LINE",
"378 380 OFFCURVE",
"336 392 OFFCURVE",
"290 392 CURVE SMOOTH",
"173 392 OFFCURVE",
"75 308 OFFCURVE",
"75 181 CURVE SMOOTH",
"75 116 OFFCURVE",
"100 61 OFFCURVE",
"150 5 CURVE"
);
},
{
closed = 1;
nodes = (
"448 0 LINE",
"448 34 LINE",
"40 34 LINE",
"40 0 LINE"
);
}
);
width = 498;
},
{
anchors = (
{
name = bottom;
position = "{308, -100}";
},
{
name = top;
position = "{308, 549}";
}
);
layerId = "D02A7F20-5372-446E-84B7-8F4B885083B2";
paths = (
{
closed = 1;
nodes = (
"290 105 LINE",
"254 145 OFFCURVE",
"238 183 OFFCURVE",
"238 226 CURVE SMOOTH",
"238 303 OFFCURVE",
"290 357 OFFCURVE",
"367 357 CURVE SMOOTH",
"393 357 OFFCURVE",
"414 351 OFFCURVE",
"439 335 CURVE",
"512 435 LINE",
"471 462 OFFCURVE",
"418 477 OFFCURVE",
"364 477 CURVE SMOOTH",
"218 477 OFFCURVE",
"104 369 OFFCURVE",
"104 226 CURVE SMOOTH",
"104 154 OFFCURVE",
"132 91 OFFCURVE",
"190 25 CURVE"
);
},
{
closed = 1;
nodes = (
"575 0 LINE",
"575 120 LINE",
"40 120 LINE",
"40 0 LINE"
);
}
);
width = 605;
},
{
anchors = (
{
name = bottom;
position = "{327, -100}";
},
{
name = top;
position = "{327, 575}";
}
);
layerId = "2D07D9D6-DD7A-4EF1-82E8-8B18836F0AAC";
paths = (
{
closed = 1;
nodes = (
"344 161 LINE",
"322 185 OFFCURVE",
"313 207 OFFCURVE",
"313 234 CURVE SMOOTH",
"313 282 OFFCURVE",
"348 317 OFFCURVE",
"395 317 CURVE SMOOTH",
"413 317 OFFCURVE",
"428 313 OFFCURVE",
"443 303 CURVE",
"565 461 LINE",
"524 487 OFFCURVE",
"454 505 OFFCURVE",
"395 505 CURVE SMOOTH",
"226 505 OFFCURVE",
"89 387 OFFCURVE",
"89 234 CURVE SMOOTH",
"89 159 OFFCURVE",
"115 105 OFFCURVE",
"176 37 CURVE"
);
},
{
closed = 1;
nodes = (
"613 0 LINE",
"613 188 LINE",
"40 188 LINE",
"40 0 LINE"
);
}
);
width = 633;
},
{
associatedMasterId = "D02A7F20-5372-446E-84B7-8F4B885083B2";
layerId = "85EC8C13-5D7F-4A2F-8D94-211E32F0E5BF";
name = "Dec 8 17, 12:11";
paths = (
{
closed = 1;
nodes = (
"251 85 LINE",
"215 125 OFFCURVE",
"199 163 OFFCURVE",
"199 206 CURVE SMOOTH",
"199 283 OFFCURVE",
"252 337 OFFCURVE",
"326 337 CURVE SMOOTH",
"355 337 OFFCURVE",
"375 331 OFFCURVE",
"400 315 CURVE",
"389 296 LINE",
"463 484 LINE",
"473 415 LINE",
"432 442 OFFCURVE",
"378 457 OFFCURVE",
"326 457 CURVE SMOOTH",
"178 457 OFFCURVE",
"65 349 OFFCURVE",
"65 206 CURVE SMOOTH",
"65 134 OFFCURVE",
"93 71 OFFCURVE",
"151 5 CURVE"
);
},
{
closed = 1;
nodes = (
"547 40 LINE",
"529 159 LINE",
"11 88 LINE",
"29 -31 LINE"
);
}
);
width = 600;
},
{
associatedMasterId = "2D07D9D6-DD7A-4EF1-82E8-8B18836F0AAC";
layerId = "EDD92DD2-E463-4FD0-8CD5-31D0D54ED287";
name = "Dec 8 17, 12:20";
paths = (
{
closed = 1;
nodes = (
"237 128 OFFCURVE",
"222 166 OFFCURVE",
"222 206 CURVE SMOOTH",
"222 278 OFFCURVE",
"264 325 OFFCURVE",
"326 325 CURVE SMOOTH",
"350 325 OFFCURVE",
"363 321 OFFCURVE",
"387 305 CURVE",
"510 462 LINE",
"463 493 OFFCURVE",
"390 513 OFFCURVE",
"326 513 CURVE SMOOTH",
"141 513 OFFCURVE",
"-2 380 OFFCURVE",
"-2 206 CURVE SMOOTH",
"-2 122 OFFCURVE",
"30 48 OFFCURVE",
"101 -32 CURVE",
"269 92 LINE"
);
},
{
closed = 1;
nodes = (
"-52 99 LINE",
"-22 -87 LINE",
"582 -5 LINE",
"552 181 LINE"
);
}
);
width = 600;
},
{
anchors = (
{
name = bottom;
position = "{252, -60}";
},
{
name = top;
position = "{252, 549}";
}
);
associatedMasterId = "F1BADE0A-D307-4A55-B1D9-DEBA981FCD10";
layerId = "F4462189-C93F-4859-AE6A-E07AAA5B505F";
name = "Dec 8 17, 22:07";
paths = (
{
closed = 1;
nodes = (
"184 60 LINE",
"140 109 OFFCURVE",
"121 154 OFFCURVE",
"121 206 CURVE SMOOTH",
"121 304 OFFCURVE",
"194 375 OFFCURVE",
"293 375 CURVE SMOOTH",
"330 375 OFFCURVE",
"362 366 OFFCURVE",
"392 346 CURVE",
"411 375 LINE",
"377 397 OFFCURVE",
"337 409 OFFCURVE",
"293 409 CURVE SMOOTH",
"180 409 OFFCURVE",
"86 328 OFFCURVE",
"86 206 CURVE SMOOTH",
"86 144 OFFCURVE",
"110 91 OFFCURVE",
"158 37 CURVE"
);
},
{
closed = 1;
nodes = (
"481 81 LINE",
"476 115 LINE",
"40 55 LINE",
"45 21 LINE"
);
}
);
width = 531;
},
{
anchors = (
{
name = bottom;
position = "{296, -60}";
},
{
name = top;
position = "{298, 549}";
}
);
associatedMasterId = "D02A7F20-5372-446E-84B7-8F4B885083B2";
layerId = "35409207-D918-4AB3-8953-A329D212CDF1";
name = "Dec 8 17, 22:07";
paths = (
{
closed = 1;
nodes = (
"280 105 LINE",
"244 145 OFFCURVE",
"228 183 OFFCURVE",
"228 226 CURVE SMOOTH",
"228 303 OFFCURVE",
"280 357 OFFCURVE",
"357 357 CURVE SMOOTH",
"383 357 OFFCURVE",
"404 351 OFFCURVE",
"429 335 CURVE",
"502 435 LINE",
"461 462 OFFCURVE",
"408 477 OFFCURVE",
"354 477 CURVE SMOOTH",
"208 477 OFFCURVE",
"94 369 OFFCURVE",
"94 226 CURVE SMOOTH",
"94 154 OFFCURVE",
"122 91 OFFCURVE",
"180 25 CURVE"
);
},
{
closed = 1;
nodes = (
"576 60 LINE",
"558 179 LINE",
"40 108 LINE",
"58 -11 LINE"
);
}
);
width = 606;
},
{
anchors = (
{
name = bottom;
position = "{354, -134}";
},
{
name = top;
position = "{354, 575}";
}
);
associatedMasterId = "2D07D9D6-DD7A-4EF1-82E8-8B18836F0AAC";
layerId = "6D89B558-E4BE-494E-B3A5-4566FE22BD61";
name = "Dec 8 17, 22:07";
paths = (
{
closed = 1;
nodes = (
"674 0 LINE",
"644 186 LINE",
"40 104 LINE",
"70 -82 LINE"
);
},
{
closed = 1;
nodes = (
"329 123 OFFCURVE",
"314 160 OFFCURVE",
"314 203 CURVE SMOOTH",
"314 273 OFFCURVE",
"355 320 OFFCURVE",
"422 320 CURVE SMOOTH",
"441 320 OFFCURVE",
"455 316 OFFCURVE",
"479 300 CURVE",
"602 457 LINE",
"555 488 OFFCURVE",
"484 508 OFFCURVE",
"414 508 CURVE SMOOTH",
"234 508 OFFCURVE",
"90 375 OFFCURVE",
"90 200 CURVE SMOOTH",
"90 117 OFFCURVE",
"122 43 OFFCURVE",
"193 -37 CURVE",
"361 87 LINE"
);
}
);
width = 697;
}
);
unicode = 0621;
},
{
glyphname = "alef-ar";
layers = (
{
anchors = (
{
name = bottom;
position = "{118, -60}";
},
{
name = top;
position = "{118, 763}";
}
);
layerId = "F1BADE0A-D307-4A55-B1D9-DEBA981FCD10";
paths = (
{
closed = 1;
nodes = (
"135 0 LINE {name = hr00;}",
"135 730 LINE",
"100 730 LINE",
"100 0 LINE"
);
}
);
width = 235;
},
{
anchors = (
{
name = bottom;
position = "{157, -60}";
},
{
name = top;
position = "{157, 739}";
}
);
layerId = "D02A7F20-5372-446E-84B7-8F4B885083B2";
paths = (
{
closed = 1;
nodes = (
"224 0 LINE {name = hr00;}",
"224 700 LINE",
"90 700 LINE",
"90 0 LINE"
);
}
);
width = 314;
},
{
anchors = (
{
name = bottom;
position = "{192, -60}";
},
{
name = top;
position = "{192, 725}";
}
);
layerId = "2D07D9D6-DD7A-4EF1-82E8-8B18836F0AAC";
paths = (
{
closed = 1;
nodes = (
"304 0 LINE",
"304 690 LINE",
"80 690 LINE",
"80 0 LINE {name = hr00;}"
);
}
);
width = 384;
}
);
unicode = 0627;
},
{
glyphname = "alef-ar.fina";
layers = (
{
components = (
{
name = "alef-ar";
},
{
name = connection_r;
transform = "{1, 0, 0, 1, 185, 0}";
}
);
layerId = "F1BADE0A-D307-4A55-B1D9-DEBA981FCD10";
paths = (
{
closed = 1;
nodes = (
"235 0 LINE",
"235 34 LINE",
"135 34 LINE",
"135 0 LINE"
);
}
);
width = 235;
},
{
components = (
{
name = "alef-ar";
},
{
name = connection_r;
transform = "{1, 0, 0, 1, 323, 0}";
}
);
layerId = "D02A7F20-5372-446E-84B7-8F4B885083B2";
paths = (
{
closed = 1;
nodes = (
"373 0 LINE",
"373 120 LINE",
"224 120 LINE",
"224 0 LINE"
);
}
);
width = 373;
},
{
components = (
{
name = "alef-ar";
},
{
name = connection_r;
transform = "{1, 0, 0, 1, 355, 0}";
}
);
layerId = "2D07D9D6-DD7A-4EF1-82E8-8B18836F0AAC";
paths = (
{
closed = 1;
nodes = (
"405 0 LINE",
"405 188 LINE",
"304 188 LINE",
"304 0 LINE"
);
}
);
width = 405;
}
);
unicode = FE8E;
},
{
glyphname = "alef-ar.short";
layers = (
{
anchors = (
{
name = bottom;
position = "{118, -37}";
},
{
name = top;
position = "{118, 668}";
}
);
layerId = "F1BADE0A-D307-4A55-B1D9-DEBA981FCD10";
paths = (
{
closed = 1;
nodes = (
"135 0 LINE {name = hr00;}",
"135 635 LINE",
"100 635 LINE",
"100 0 LINE"
);
}
);
width = 235;
},
{
anchors = (
{
name = bottom;
position = "{157, -37}";
},
{
name = top;
position = "{157, 634}";
}
);
layerId = "D02A7F20-5372-446E-84B7-8F4B885083B2";
paths = (
{
closed = 1;
nodes = (
"224 0 LINE {name = hr00;}",
"224 595 LINE",
"90 595 LINE",
"90 0 LINE"
);
}
);
width = 314;
},
{
anchors = (
{
name = bottom;
position = "{192, -70}";
},
{
name = top;
position = "{192, 618}";
}
);
layerId = "2D07D9D6-DD7A-4EF1-82E8-8B18836F0AAC";
paths = (
{
closed = 1;
nodes = (
"304 0 LINE",
"304 583 LINE",
"80 583 LINE",
"80 0 LINE {name = hr00;}"
);
}
);
width = 384;
}
);
},
{
glyphname = "alef-ar.fina.short";
layers = (
{
components = (
{
name = connection_r;
transform = "{1, 0, 0, 1, 185, 0}";
},
{
name = "alef-ar.short";
}
);
layerId = "F1BADE0A-D307-4A55-B1D9-DEBA981FCD10";
paths = (
{
closed = 1;
nodes = (
"235 0 LINE",
"235 34 LINE",
"135 34 LINE",
"135 0 LINE"
);
}
);
width = 235;
},
{
components = (
{
name = connection_r;
transform = "{1, 0, 0, 1, 323, 0}";
},
{
name = "alef-ar.short";
}
);
layerId = "D02A7F20-5372-446E-84B7-8F4B885083B2";
paths = (
{
closed = 1;
nodes = (
"373 0 LINE",
"373 120 LINE",
"224 120 LINE",
"224 0 LINE"
);
}
);
width = 373;
},
{
components = (
{
name = connection_r;
transform = "{1, 0, 0, 1, 355, 0}";
},
{
name = "alef-ar.short";
}
);
layerId = "2D07D9D6-DD7A-4EF1-82E8-8B18836F0AAC";
paths = (
{
closed = 1;
nodes = (
"405 0 LINE",
"405 188 LINE",
"304 188 LINE",
"304 0 LINE"
);
}
);
width = 405;
}
);
},
{
glyphname = "behDotless-ar";
layers = (
{
anchors = (
{
name = bottom;
position = "{356, -60}";
},
{
name = top;
position = "{356, 480}";
}
);
layerId = "F1BADE0A-D307-4A55-B1D9-DEBA981FCD10";
paths = (
{
closed = 1;
nodes = (
"671 0 LINE",
"671 500 LINE",
"636 500 LINE",
"636 20 LINE",
"651 34 LINE",
"337 34 LINE SMOOTH",
"154 34 OFFCURVE",
"75 90 OFFCURVE",
"75 213 CURVE SMOOTH",
"75 271 OFFCURVE",
"92 345 OFFCURVE",
"100 386 CURVE",
"66 392 LINE",
"58 351 OFFCURVE",
"40 275 OFFCURVE",
"40 213 CURVE SMOOTH",
"40 67 OFFCURVE",
"138 0 OFFCURVE",
"337 0 CURVE SMOOTH"
);
}
);
width = 761;
},
{
anchors = (
{
name = bottom;
position = "{399, -60}";
},
{
name = top;
position = "{399, 510}";
}
);
layerId = "D02A7F20-5372-446E-84B7-8F4B885083B2";
paths = (
{
closed = 1;
nodes = (
"758 0 LINE",
"758 500 LINE",
"624 500 LINE",
"624 70 LINE",
"688 120 LINE",
"337 120 LINE SMOOTH",
"202 120 OFFCURVE",
"174 143 OFFCURVE",
"174 212 CURVE SMOOTH",
"174 263 OFFCURVE",
"189 326 OFFCURVE",
"197 367 CURVE",
"66 392 LINE",
"58 350 OFFCURVE",
"40 275 OFFCURVE",
"40 213 CURVE SMOOTH",
"40 67 OFFCURVE",
"138 0 OFFCURVE",
"337 0 CURVE SMOOTH"
);
}
);
width = 828;
},
{
anchors = (
{
name = bottom;
position = "{464, -60}";
},
{
name = top;
position = "{464, 573}";
}
);
layerId = "2D07D9D6-DD7A-4EF1-82E8-8B18836F0AAC";
paths = (
{
closed = 1;
nodes = (
"887 0 LINE",
"887 505 LINE",
"663 505 LINE",
"663 66 LINE",
"809 188 LINE",
"438 188 LINE SMOOTH",
"348 188 OFFCURVE",
"264 199 OFFCURVE",
"264 309 CURVE SMOOTH",
"264 346 OFFCURVE",
"273 394 OFFCURVE",
"280 425 CURVE",
"63 468 LINE",
"55 436 OFFCURVE",
"40 369 OFFCURVE",
"40 305 CURVE SMOOTH",
"40 111 OFFCURVE",
"181 0 OFFCURVE",
"420 0 CURVE SMOOTH"
);
}
);
width = 917;
},
{
associatedMasterId = "2D07D9D6-DD7A-4EF1-82E8-8B18836F0AAC";
layerId = "CDF3B9A1-6672-473C-BE0E-276160DE5FE7";
name = "Dec 7 17, 13:12";
paths = (
{
closed = 1;
nodes = (
"617 66 LINE",
"763 188 LINE",
"429 188 LINE SMOOTH",
"298 188 OFFCURVE",
"278 208 OFFCURVE",
"278 279 CURVE SMOOTH",
"278 350 OFFCURVE",
"308 456 OFFCURVE",
"306 466 CURVE",
"400 331 LINE",
"-18 411 LINE",
"84 500 LINE",
"88 486 OFFCURVE",
"54 371 OFFCURVE",
"54 279 CURVE SMOOTH",
"54 96 OFFCURVE",
"187 0 OFFCURVE",
"429 0 CURVE SMOOTH",
"841 0 LINE",
"841 505 LINE",
"617 505 LINE"
);
},
{
closed = 1;
nodes = (
"1709 0 LINE",
"1709 500 LINE",
"1537 500 LINE",
"1537 112 LINE",
"1582 157 LINE",
"1250 157 LINE SMOOTH",
"1177 157 OFFCURVE",
"1105 166 OFFCURVE",
"1105 255 CURVE SMOOTH",
"1105 287 OFFCURVE",
"1114 330 OFFCURVE",
"1120 356 CURVE",
"952 390 LINE",
"946 361 OFFCURVE",
"933 303 OFFCURVE",
"933 255 CURVE SMOOTH",
"933 93 OFFCURVE",
"1050 0 OFFCURVE",
"1250 0 CURVE SMOOTH"
);
},
{
closed = 0;
nodes = (
"763 733 LINE",
"425 733 LINE SMOOTH",
"351 733 OFFCURVE",
"278 742 OFFCURVE",
"278 833 CURVE SMOOTH",
"278 865 OFFCURVE",
"287 909 OFFCURVE",
"293 935 CURVE"
);
},
{
closed = 0;
nodes = (
"73 943 LINE",
"67 914 OFFCURVE",
"54 854 OFFCURVE",
"54 805 CURVE SMOOTH",
"54 640 OFFCURVE",
"173 545 OFFCURVE",
"378 545 CURVE SMOOTH",
"846 545 LINE"
);
}
);
width = 901;
},
{
associatedMasterId = "2D07D9D6-DD7A-4EF1-82E8-8B18836F0AAC";
layerId = "A7C8D09F-59B9-42E0-9CA0-2AB795DBF9E8";
name = "Dec 7 17, 13:14";
paths = (
{
closed = 1;
nodes = (
"617 66 LINE",
"763 188 LINE",
"429 188 LINE SMOOTH",
"300 188 OFFCURVE",
"278 208 OFFCURVE",
"278 275 CURVE SMOOTH",
"278 354 OFFCURVE",
"308 455 OFFCURVE",
"306 466 CURVE",
"400 331 LINE",
"-18 411 LINE",
"133 500 LINE",
"80 411 OFFCURVE",
"54 356 OFFCURVE",
"54 277 CURVE SMOOTH",
"54 98 OFFCURVE",
"187 0 OFFCURVE",
"429 0 CURVE SMOOTH",
"841 0 LINE",
"841 505 LINE",
"617 505 LINE"
);
},
{
closed = 1;
nodes = (
"1709 0 LINE",
"1709 500 LINE",
"1537 500 LINE",
"1537 112 LINE",
"1582 157 LINE",
"1250 157 LINE SMOOTH",
"1177 157 OFFCURVE",
"1105 166 OFFCURVE",
"1105 255 CURVE SMOOTH",
"1105 287 OFFCURVE",
"1114 330 OFFCURVE",
"1120 356 CURVE",
"952 390 LINE",
"946 361 OFFCURVE",
"933 303 OFFCURVE",
"933 255 CURVE SMOOTH",
"933 93 OFFCURVE",
"1050 0 OFFCURVE",
"1250 0 CURVE SMOOTH"
);
},
{
closed = 0;
nodes = (
"763 733 LINE",
"425 733 LINE SMOOTH",
"351 733 OFFCURVE",
"278 742 OFFCURVE",
"278 833 CURVE SMOOTH",
"278 865 OFFCURVE",
"287 909 OFFCURVE",
"293 935 CURVE"
);
},
{
closed = 0;
nodes = (
"73 943 LINE",
"67 914 OFFCURVE",
"54 854 OFFCURVE",
"54 805 CURVE SMOOTH",
"54 640 OFFCURVE",
"173 545 OFFCURVE",
"378 545 CURVE SMOOTH",
"846 545 LINE"
);
}
);
width = 901;
},
{
associatedMasterId = "2D07D9D6-DD7A-4EF1-82E8-8B18836F0AAC";
layerId = "D3C23D65-89CE-4AAA-9B0C-721EBAE077D1";
name = "Dec 7 17, 13:15";
paths = (
{
closed = 1;
nodes = (
"1709 0 LINE",
"1709 500 LINE",
"1537 500 LINE",
"1537 112 LINE",
"1582 157 LINE",
"1250 157 LINE SMOOTH",
"1177 157 OFFCURVE",
"1105 166 OFFCURVE",
"1105 255 CURVE SMOOTH",
"1105 287 OFFCURVE",
"1114 330 OFFCURVE",
"1120 356 CURVE",
"952 390 LINE",
"946 361 OFFCURVE",
"933 303 OFFCURVE",
"933 255 CURVE SMOOTH",
"933 93 OFFCURVE",
"1050 0 OFFCURVE",
"1250 0 CURVE SMOOTH"
);
},
{
closed = 1;
nodes = (
"351 188 OFFCURVE",
"278 197 OFFCURVE",
"278 288 CURVE SMOOTH",
"278 320 OFFCURVE",
"287 364 OFFCURVE",
"293 390 CURVE",
"337 338 LINE",
"-81 418 LINE",
"73 398 LINE",
"67 369 OFFCURVE",
"54 309 OFFCURVE",
"54 260 CURVE SMOOTH",
"54 95 OFFCURVE",
"173 0 OFFCURVE",
"378 0 CURVE SMOOTH",
"841 0 LINE",
"841 505 LINE",
"617 505 LINE",
"617 66 LINE",
"763 188 LINE",
"425 188 LINE SMOOTH"
);
}
);
width = 901;
},
{
associatedMasterId = "2D07D9D6-DD7A-4EF1-82E8-8B18836F0AAC";
layerId = "B5ABC5B7-2902-4378-B91B-A4D885587DD0";
name = "Dec 7 17, 13:17";
paths = (
{
closed = 1;
nodes = (
"617 66 LINE",
"763 188 LINE",
"429 188 LINE SMOOTH",
"300 188 OFFCURVE",
"278 208 OFFCURVE",
"278 275 CURVE SMOOTH",
"278 354 OFFCURVE",
"308 455 OFFCURVE",
"306 466 CURVE",
"400 331 LINE",
"-18 411 LINE",
"133 500 LINE",
"80 411 OFFCURVE",
"54 311 OFFCURVE",
"54 232 CURVE SMOOTH",
"54 53 OFFCURVE",
"187 0 OFFCURVE",
"429 0 CURVE SMOOTH",
"841 0 LINE",
"841 505 LINE",
"617 505 LINE"
);
}
);
width = 901;
},
{
associatedMasterId = "2D07D9D6-DD7A-4EF1-82E8-8B18836F0AAC";
layerId = "FBB2D381-BE21-4A28-A9EC-E9BC4D4FB7F5";
name = "Dec 7 17, 13:21";
paths = (
{
closed = 1;
nodes = (
"617 66 LINE",
"763 188 LINE",
"429 188 LINE SMOOTH",
"298 188 OFFCURVE",
"278 208 OFFCURVE",
"278 279 CURVE SMOOTH",
"278 350 OFFCURVE",
"308 456 OFFCURVE",
"306 466 CURVE",
"400 392 LINE",
"-18 472 LINE",
"84 500 LINE",
"88 486 OFFCURVE",
"54 371 OFFCURVE",
"54 279 CURVE SMOOTH",
"54 96 OFFCURVE",
"187 0 OFFCURVE",
"429 0 CURVE SMOOTH",
"841 0 LINE",
"841 505 LINE",
"617 505 LINE"
);
}
);
width = 901;
},
{
anchors = (
{
name = bottom;
position = "{478, -60}";
},
{
name = top;
position = "{478, 573}";
}
);
associatedMasterId = "2D07D9D6-DD7A-4EF1-82E8-8B18836F0AAC";
layerId = "16E4699C-8768-4F06-95EC-3CF60E53C799";
name = "Dec 8 17, 01:29";
paths = (
{
closed = 1;
nodes = (
"677 66 LINE",
"823 188 LINE",
"429 188 LINE SMOOTH",
"300 188 OFFCURVE",
"278 208 OFFCURVE",
"278 275 CURVE SMOOTH",
"278 354 OFFCURVE",
"308 455 OFFCURVE",
"306 466 CURVE",
"400 392 LINE",
"-18 472 LINE",
"84 500 LINE",
"88 486 OFFCURVE",
"54 371 OFFCURVE",
"54 279 CURVE SMOOTH",
"54 96 OFFCURVE",
"189 0 OFFCURVE",
"383 0 CURVE SMOOTH",
"901 0 LINE",
"901 505 LINE",
"677 505 LINE"
);
}
);
width = 931;
},
{
anchors = (
{
name = bottom;
position = "{356, -60}";
},
{
name = top;
position = "{356, 480}";
}
);
associatedMasterId = "F1BADE0A-D307-4A55-B1D9-DEBA981FCD10";
layerId = "DDDFE9E4-31F0-4F49-A093-AF6D205B977D";
name = "Apr 25 18, 12:28";
paths = (
{
closed = 1;
nodes = (
"671 0 LINE",
"671 500 LINE",
"636 500 LINE",
"636 20 LINE",
"651 34 LINE",
"337 34 LINE SMOOTH",
"154 34 OFFCURVE",
"75 90 OFFCURVE",
"75 213 CURVE SMOOTH",
"75 274 OFFCURVE",
"94 353 OFFCURVE",
"101 392 CURVE",
"115 383 LINE",
"51 395 LINE",
"67 399 LINE",
"60 360 OFFCURVE",
"40 279 OFFCURVE",
"40 213 CURVE SMOOTH",
"40 67 OFFCURVE",
"138 0 OFFCURVE",
"337 0 CURVE SMOOTH"
);
}
);
width = 761;
},
{
anchors = (
{
name = bottom;
position = "{399, -60}";
},
{
name = top;
position = "{399, 510}";
}
);
associatedMasterId = "D02A7F20-5372-446E-84B7-8F4B885083B2";
layerId = "DA869F6F-930C-47B8-BEB9-A7202AEB6240";
name = "Apr 25 18, 12:28";
paths = (
{
closed = 1;
nodes = (
"758 0 LINE",
"758 500 LINE",
"624 500 LINE",
"624 70 LINE",
"688 120 LINE",
"337 120 LINE SMOOTH",
"202 120 OFFCURVE",
"174 143 OFFCURVE",
"174 212 CURVE SMOOTH",
"174 277 OFFCURVE",
"199 362 OFFCURVE",
"202 395 CURVE",
"258 355 LINE",
"6 403 LINE",
"70 414 LINE",
"67 386 OFFCURVE",
"40 289 OFFCURVE",
"40 213 CURVE SMOOTH",
"40 67 OFFCURVE",
"138 0 OFFCURVE",
"337 0 CURVE SMOOTH"
);
}
);
width = 828;
},
{
anchors = (
{
name = bottom;
position = "{464, -60}";
},
{
name = top;
position = "{464, 573}";
}
);
associatedMasterId = "2D07D9D6-DD7A-4EF1-82E8-8B18836F0AAC";
layerId = "B89D07C6-C9E3-4363-9D75-AE3A5FC9B1CC";
name = "Apr 25 18, 12:28";
paths = (
{
closed = 1;
nodes = (
"887 0 LINE",
"887 505 LINE",
"663 505 LINE",
"663 66 LINE",
"809 188 LINE",
"438 188 LINE SMOOTH",
"348 188 OFFCURVE",
"264 199 OFFCURVE",
"264 309 CURVE SMOOTH",
"264 364 OFFCURVE",
"285 445 OFFCURVE",
"287 454 CURVE",
"364 408 LINE",
"32 474 LINE",
"68 486 LINE",
"66 480 OFFCURVE",
"40 389 OFFCURVE",
"40 305 CURVE SMOOTH",
"40 111 OFFCURVE",
"181 0 OFFCURVE",
"420 0 CURVE SMOOTH"
);
}
);
width = 917;
}
);
unicode = 066E;
},
{
glyphname = "behDotless-ar.fina";
layers = (
{
components = (
{
name = "behDotless-ar";
},
{
name = connection_r;
transform = "{1, 0, 0, 1, 721, 0}";
}
);
layerId = "F1BADE0A-D307-4A55-B1D9-DEBA981FCD10";
paths = (
{
closed = 1;
nodes = (
"771 0 LINE",
"771 34 LINE",
"671 34 LINE",
"671 0 LINE"
);
}
);
width = 771;
},
{
components = (
{
name = "behDotless-ar";
},
{
name = connection_r;
transform = "{1, 0, 0, 1, 827, 0}";
}
);
layerId = "D02A7F20-5372-446E-84B7-8F4B885083B2";
paths = (
{
closed = 1;
nodes = (
"877 0 LINE",
"877 120 LINE",
"758 120 LINE",
"758 0 LINE"
);
}
);
width = 877;
},
{
components = (
{
name = "behDotless-ar";
},
{
name = connection_r;
transform = "{1, 0, 0, 1, 938, 0}";
}
);
layerId = "2D07D9D6-DD7A-4EF1-82E8-8B18836F0AAC";
paths = (
{
closed = 1;
nodes = (
"988 0 LINE",
"988 188 LINE",
"887 188 LINE",
"887 0 LINE"
);
}
);
width = 988;
}
);
},
{
glyphname = "behDotless-ar.medi";
layers = (
{
components = (
{
name = "behDotless-ar.init";
},
{
name = connection_r;
transform = "{1, 0, 0, 1, 185, 0}";
}
);
layerId = "F1BADE0A-D307-4A55-B1D9-DEBA981FCD10";
paths = (
{
closed = 1;
nodes = (
"235 0 LINE",
"235 34 LINE",
"135 34 LINE",
"135 0 LINE"
);
}
);
width = 235;
},
{
components = (
{
name = "behDotless-ar.init";
},
{
name = connection_r;
transform = "{1, 0, 0, 1, 322, 0}";
}
);
layerId = "D02A7F20-5372-446E-84B7-8F4B885083B2";
paths = (
{
closed = 1;
nodes = (
"372 0 LINE",
"372 120 LINE",
"253 120 LINE",
"253 0 LINE"
);
}
);
width = 372;
},
{
components = (
{
name = "behDotless-ar.init";
},
{
name = connection_r;
transform = "{1, 0, 0, 1, 376, 0}";
}
);
layerId = "2D07D9D6-DD7A-4EF1-82E8-8B18836F0AAC";
paths = (
{
closed = 1;
nodes = (
"426 0 LINE",
"426 188 LINE",
"325 188 LINE",
"325 0 LINE"
);
}
);
width = 426;
}
);
},
{
color = 6;
glyphname = "behDotless-ar.medi.alt";
layers = (
{
anchors = (
{
name = bottom;
position = "{118, -60}";
},
{
name = top;
position = "{118, 573}";
}
);
components = (
{
name = connection_l;
},
{
name = connection_r;
transform = "{1, 0, 0, 1, 185, 0}";
}
);
layerId = "F1BADE0A-D307-4A55-B1D9-DEBA981FCD10";
paths = (
{
closed = 1;
nodes = (
"235 0 LINE",
"235 34 LINE",
"135 34 LINE",
"135 0 LINE"
);
},
{
closed = 1;
nodes = (
"135 0 LINE",
"135 500 LINE",
"100 500 LINE",
"100 20 LINE",
"115 34 LINE",
"0 34 LINE",
"0 0 LINE"
);
}
);
width = 235;
},
{
anchors = (
{
name = bottom;
position = "{186, -60}";
},
{
name = top;
position = "{186, 573}";
}
);
components = (
{
name = connection_l;
},
{
name = connection_r;
transform = "{1, 0, 0, 1, 322, 0}";
}
);
layerId = "D02A7F20-5372-446E-84B7-8F4B885083B2";
paths = (
{
closed = 1;
nodes = (
"372 0 LINE",
"372 120 LINE",
"253 120 LINE",
"253 0 LINE"
);
},
{
closed = 1;
nodes = (
"253 0 LINE",
"253 500 LINE",
"119 500 LINE",
"119 70 LINE",
"183 120 LINE",
"0 120 LINE",
"0 0 LINE"
);
}
);
width = 372;
},
{
anchors = (
{
name = bottom;
position = "{263, -60}";
},
{
name = top;
position = "{263, 573}";
}
);
components = (
{
name = connection_l;
},
{
name = connection_r;
transform = "{1, 0, 0, 1, 476, 0}";
}
);
layerId = "2D07D9D6-DD7A-4EF1-82E8-8B18836F0AAC";
paths = (
{
closed = 1;
nodes = (
"526 0 LINE",
"526 188 LINE",
"375 188 LINE",
"375 0 LINE"
);
},
{
closed = 1;
nodes = (
"375 0 LINE",
"375 505 LINE",
"151 505 LINE",
"151 66 LINE",
"297 188 LINE",
"0 188 LINE",
"0 0 LINE"
);
}
);
width = 526;
}
);
},
{
glyphname = "behDotless-ar.init";
layers = (
{
anchors = (
{
name = bottom;
position = "{118, -60}";
},
{
name = top;
position = "{118, 573}";
}
);
components = (
{
name = connection_l;
}
);
layerId = "F1BADE0A-D307-4A55-B1D9-DEBA981FCD10";
paths = (
{
closed = 1;
nodes = (
"135 0 LINE",
"135 500 LINE",
"100 500 LINE",
"100 20 LINE",
"115 34 LINE",
"0 34 LINE",
"0 0 LINE"
);
}
);
width = 225;
},
{
anchors = (
{
name = bottom;
position = "{186, -60}";
},
{
name = top;
position = "{186, 573}";
}
);
components = (
{
name = connection_l;
}
);
layerId = "D02A7F20-5372-446E-84B7-8F4B885083B2";
paths = (
{
closed = 1;
nodes = (
"253 0 LINE",
"253 500 LINE",
"119 500 LINE",
"119 70 LINE",
"183 120 LINE",
"0 120 LINE",
"0 0 LINE"
);
}
);
width = 323;
},
{
anchors = (
{
name = bottom;
position = "{213, -60}";
},
{
name = top;
position = "{213, 573}";
}
);
components = (
{
name = connection_l;
}
);
layerId = "2D07D9D6-DD7A-4EF1-82E8-8B18836F0AAC";
paths = (
{
closed = 1;
nodes = (
"325 0 LINE",
"325 505 LINE",
"101 505 LINE",
"101 66 LINE",
"247 188 LINE",
"0 188 LINE",
"0 0 LINE"
);
}
);
width = 385;
}
);
},
{
color = 6;
glyphname = "behDotless-ar.init.alt";
layers = (
{
anchors = (
{
name = bottom;
position = "{118, -60}";
},
{
name = top;
position = "{118, 573}";
}
);
components = (
{
name = connection_l;
}
);
layerId = "F1BADE0A-D307-4A55-B1D9-DEBA981FCD10";
paths = (
{
closed = 1;
nodes = (
"135 0 LINE",
"135 500 LINE",
"100 500 LINE",
"100 20 LINE",
"115 34 LINE",
"0 34 LINE",
"0 0 LINE"
);
}
);
width = 225;
},
{
anchors = (
{
name = bottom;
position = "{186, -60}";
},
{
name = top;
position = "{186, 573}";
}
);
components = (
{
name = connection_l;
}
);
layerId = "D02A7F20-5372-446E-84B7-8F4B885083B2";
paths = (
{
closed = 1;
nodes = (
"253 0 LINE",
"253 500 LINE",
"119 500 LINE",
"119 70 LINE",
"183 120 LINE",
"0 120 LINE",
"0 0 LINE"
);
}
);
width = 323;
},
{
anchors = (
{
name = bottom;
position = "{263, -60}";
},
{
name = top;
position = "{263, 573}";
}
);
components = (
{
name = connection_l;
}
);
layerId = "2D07D9D6-DD7A-4EF1-82E8-8B18836F0AAC";
paths = (
{
closed = 1;
nodes = (
"375 0 LINE",
"375 505 LINE",
"151 505 LINE",
"151 66 LINE",
"297 188 LINE",
"0 188 LINE",
"0 0 LINE"
);
}
);
width = 435;
}
);
},
